<svg width="30" height="29" viewBox="0 0 30 29" fill="none" xmlns="http://www.w3.org/2000/svg">
<path fill-rule="evenodd" clip-rule="evenodd" d="M30 10.8791H0V25.022C0 25.8923 0.342857 26.7191 0.942857 27.3284C1.54286 27.9376 2.36786 28.2857 3.21429 28.2857H26.7857C28.5643 28.2857 30 26.8279 30 25.022V10.8791ZM6.42857 2.17582H3.21429C1.43571 2.17582 0 3.63363 0 5.43956V8.7033H30V5.43956C30 4.56923 29.6571 3.74242 29.0571 3.13319C28.4571 2.52396 27.6321 2.17582 26.7857 2.17582H23.5714V5.43956C23.5714 6.03791 23.0893 6.52747 22.5 6.52747C21.9107 6.52747 21.4286 6.03791 21.4286 5.43956V2.17582H8.57143V5.43956C8.57143 6.03791 8.08929 6.52747 7.5 6.52747C6.91071 6.52747 6.42857 6.03791 6.42857 5.43956V2.17582ZM6.42857 1.08791V2.17582H8.57143V1.08791C8.57143 0.48956 8.08929 0 7.5 0C6.91071 0 6.42857 0.48956 6.42857 1.08791ZM21.4286 1.08791V2.17582H23.5714V1.08791C23.5714 0.48956 23.0893 0 22.5 0C21.9107 0 21.4286 0.48956 21.4286 1.08791Z" fill="white"/>
</svg>
