<svg width="108" height="27" viewBox="0 0 108 27" fill="none" xmlns="http://www.w3.org/2000/svg">
<path d="M60.9363 8.79045C60.9363 5.64325 60.9905 2.7131 61.1533 0L52.8512 1.5736V2.33327L53.6652 2.44179C54.262 2.49605 54.6419 2.7131 54.8589 3.03867C55.076 3.41851 55.2388 3.96113 55.3473 4.77506C55.4558 6.34866 55.5643 9.92995 55.5101 15.5732C55.5101 21.1622 55.4558 24.6892 55.3473 26.0458C58.3317 26.6969 60.665 26.9682 62.4013 26.9682C65.6571 26.9682 68.2074 26.0458 70.0523 24.1466C71.8972 22.3017 72.8739 19.6971 72.8739 16.4957C72.8739 13.9453 72.1685 11.8291 70.7577 10.147C69.3469 8.46488 67.5562 7.65095 65.44 7.65095C64.0292 7.65095 62.5641 8.03078 60.9363 8.79045ZM61.0991 25.5032C60.9905 23.7668 60.882 18.5576 60.882 10.0385C61.3704 9.87569 62.0215 9.76717 62.8354 9.76717C64.1377 9.76717 65.1687 10.4183 65.9284 11.7749C66.688 13.1314 67.0679 14.7593 67.0679 16.8212C67.0679 19.3715 66.6338 21.4335 65.7656 23.1699C64.8974 24.852 63.8122 25.7202 62.4556 25.7202C62.0215 25.6117 61.5874 25.5574 61.0991 25.5032ZM21.7048 0.54262H0V1.62786L1.1395 1.73639C2.0077 1.89917 2.60458 2.22474 2.98441 2.7131C3.36425 3.25572 3.58129 4.12392 3.63556 5.31768C4.06965 11.178 4.06965 16.6584 3.63556 21.7048C3.52703 22.8986 3.30998 23.7668 2.98441 24.3094C2.60458 24.852 2.0077 25.1776 1.1395 25.2861L0 25.4489V26.5341H13.9996V25.4489L12.5345 25.3404C12.177 25.3105 11.8293 25.2085 11.5122 25.0406C11.1952 24.8728 10.9153 24.6425 10.6896 24.3637C10.3098 23.821 10.0927 22.9528 10.0385 21.7591C9.87569 19.5886 9.76717 17.0925 9.76717 14.3252L12.6973 14.3794C14.2709 14.4337 15.3562 15.6275 15.8988 18.015H16.984V9.17029H15.8988C15.3562 11.5036 14.3252 12.6973 12.6973 12.7516L9.76717 12.8058C9.76717 7.92226 9.87569 4.44949 10.0385 2.33327H14.3252C17.3639 2.33327 19.4258 4.2867 20.6196 8.19357L21.9219 7.81373L21.7048 0.54262ZM19.1545 17.2553C19.1545 20.077 19.9684 22.4102 21.542 24.2551C23.1156 26.1 25.4489 26.9682 28.379 26.9682C31.3092 26.9682 33.6967 26.0458 35.4331 24.1466C37.1695 22.3017 37.9834 19.9684 37.9834 17.1468C37.9834 14.3252 37.1695 11.9919 35.5959 10.147C34.0223 8.30209 31.689 7.4339 28.7589 7.4339C25.8287 7.4339 23.4412 8.35635 21.7048 10.2555C19.9684 12.1004 19.1545 14.4337 19.1545 17.2553ZM31.2549 11.0695C31.9061 12.6431 32.1774 14.705 32.1774 17.2011C32.1774 22.9528 30.9836 25.7745 28.6504 25.7745C27.4566 25.7745 26.5341 24.9605 25.883 23.3327C25.2318 21.7048 24.9605 19.6429 24.9605 17.2011C24.9605 11.5036 26.1543 8.68193 28.4876 8.68193C29.6813 8.62766 30.6038 9.4416 31.2549 11.0695ZM77.1064 24.2551C78.897 26.0458 81.176 26.9682 83.8891 26.9682C85.5712 26.9682 87.0363 26.6427 88.3386 25.9373C89.6409 25.2861 90.6719 24.4722 91.3773 23.4955L90.8347 22.8443C89.6409 23.7668 88.2843 24.2009 86.7107 24.2009C84.5403 24.2009 82.8581 23.4955 81.7186 22.0304C80.5249 20.5653 79.9823 18.7204 80.0908 16.3329H91.7029C91.7029 13.7283 91.0517 11.6121 89.6952 9.92995C88.3386 8.30209 86.4394 7.48816 83.9976 7.48816C80.959 7.48816 78.6257 8.46488 76.9436 10.364C75.2615 12.2632 74.4475 14.5965 74.4475 17.3639C74.4475 20.1855 75.3157 22.4645 77.1064 24.2551ZM81.1217 10.6354C81.7186 9.33307 82.4783 8.68193 83.5093 8.68193C85.1371 8.68193 85.9511 10.7439 85.9511 14.9221L80.1993 15.0306C80.2536 13.4027 80.5249 11.9376 81.1217 10.6354ZM106.299 8.46488C104.834 7.81373 102.989 7.4339 100.765 7.4339C98.4856 7.4339 96.695 8.03078 95.3384 9.17029C93.9819 10.3098 93.2764 11.7206 93.2764 13.4027C93.2764 14.8678 93.7105 16.0073 94.5245 16.8212C95.3384 17.6352 96.6407 18.3406 98.3228 18.9375C99.8422 19.4801 100.927 20.0227 101.47 20.5111C102.013 21.0537 102.338 21.6506 102.338 22.4645C102.338 23.2242 102.067 23.9296 101.47 24.4722C100.927 25.0691 100.168 25.3404 99.191 25.3404C96.8035 25.3404 95.0128 23.604 93.7648 20.1312L92.8424 20.4025L93.0594 25.8287C95.0128 26.5884 97.1833 26.9682 99.5708 26.9682C102.067 26.9682 103.966 26.4256 105.377 25.2861C106.788 24.2009 107.493 22.6273 107.493 20.6738C107.493 19.3715 107.168 18.2863 106.462 17.4724C105.757 16.6584 104.617 15.953 102.989 15.3019C101.199 14.6508 99.9507 14.0539 99.2995 13.5112C98.6484 12.9686 98.3228 12.3175 98.3228 11.5036C98.3228 10.6896 98.5399 10.0385 99.0282 9.49586C99.5166 8.95324 100.113 8.73619 100.873 8.73619C103.044 8.73619 104.617 10.3098 105.594 13.4027L106.516 13.1314L106.299 8.46488ZM54.0993 7.97652C53.3396 7.59669 52.5257 7.4339 51.6032 7.4339C50.6807 7.4339 49.7583 7.81373 48.7273 8.5734C47.6963 9.33307 46.9367 10.3641 46.3398 11.7749L46.394 7.4339L38.1462 9.06176V9.82143L38.9601 9.87569C39.9911 9.98422 40.588 10.7981 40.6965 12.2632C41.0221 15.6275 41.0221 19.2088 40.6965 23.0071C40.588 24.4722 39.9911 25.2318 38.9601 25.3946L38.1462 25.5032V26.5341H49.6498V25.5032L48.1847 25.3946C47.1537 25.2861 46.5568 24.4722 46.4483 23.0071C46.1227 19.8599 46.0685 16.4957 46.3398 13.0229C46.6654 12.4803 47.3708 12.1547 48.456 12.0462C49.5412 11.9376 50.7893 12.2632 52.0916 13.0229L54.0993 7.97652Z" fill="white"/>
</svg>
