<svg width="637" height="195" viewBox="0 0 637 195" fill="none" xmlns="http://www.w3.org/2000/svg">
<path d="M137.525 184.664C135.437 184.664 133.749 182.972 133.749 180.888L133.753 143.222C133.753 135.311 136.053 127.789 140.403 121.464C147.977 110.45 151.98 97.5318 151.98 84.1118C151.98 47.7749 122.266 18.2123 85.7407 18.2123C76.0287 18.2123 66.5961 20.3382 57.7035 24.5296C36.7994 34.555 22.4542 54.8966 20.2867 77.6057C20.0337 80.2451 19.9318 82.911 19.9884 85.5316C20.1319 92.404 18.6819 99.4916 15.68 106.606L7.64833 125.622C7.45575 126.079 7.58036 126.471 7.67476 126.66C7.76916 126.857 7.9995 127.204 8.49038 127.34L18.0513 129.994C21.4875 130.954 23.9948 133.85 24.4479 137.384L28.5676 163.069C28.5978 163.265 28.6167 163.462 28.6167 163.658C28.6242 167.423 31.6942 170.489 35.4626 170.489H59.4216C68.6163 170.489 76.1004 163.008 76.1004 153.81C76.1004 151.722 77.7921 150.034 79.8765 150.034C81.9608 150.034 83.6525 151.722 83.6525 153.81C83.6525 167.17 72.7851 178.041 59.4216 178.041H35.4626C27.65 178.041 21.2572 171.769 21.0684 163.994L16.9751 138.46C16.8921 137.83 16.5258 137.411 16.0311 137.271L6.4702 134.624C4.02332 133.94 1.98049 132.241 0.877881 129.957C-0.224723 127.676 -0.292693 125.021 0.69663 122.684L8.7245 103.672C11.3149 97.5432 12.5647 91.4977 12.4401 85.6977C12.3797 82.7864 12.4892 79.8222 12.7686 76.8882C15.1891 51.5585 31.1655 28.8872 54.4637 17.7139C64.3947 13.0316 74.911 10.664 85.7444 10.664C126.431 10.664 159.536 43.6137 159.536 84.1156C159.536 99.0687 155.073 113.467 146.629 125.75C143.148 130.81 141.309 136.848 141.309 143.226L141.305 180.892C141.301 182.976 139.61 184.664 137.525 184.664Z" fill="white"/>
<path d="M122.931 82.3521C122.247 82.3521 121.556 82.1671 120.937 81.7782C119.166 80.6756 118.63 78.3458 119.733 76.5786C121.277 74.1015 122.096 71.243 122.096 68.3128C122.096 59.6921 115.084 52.6762 106.46 52.6762C105.644 52.6762 104.844 52.7404 104.062 52.8575C102.374 53.1294 100.728 52.2156 100.037 50.6598C96.9895 43.8101 90.3134 39.3846 83.0257 39.3846C72.7662 39.3846 64.4173 47.7296 64.4173 57.9929C64.4173 58.7859 64.4664 59.5675 64.5646 60.3378C64.8252 62.4071 63.36 64.2951 61.2908 64.5557C59.2442 64.8124 57.3373 63.3511 57.0729 61.2818C56.937 60.2057 56.869 59.1068 56.869 57.9929C56.869 43.5684 68.605 31.8325 83.0294 31.8325C92.3903 31.8325 101.019 36.9717 105.697 45.1355C105.95 45.1279 106.211 45.1241 106.464 45.1241C119.249 45.1241 129.652 55.5271 129.652 68.3128C129.652 72.659 128.44 76.8995 126.144 80.5774C125.423 81.7253 124.192 82.3521 122.931 82.3521Z" fill="white"/>
<path d="M58.0132 96.9239C45.2275 96.9239 34.8245 86.5209 34.8245 73.7352C34.8245 60.9495 45.2275 50.5466 58.0132 50.5466C58.4096 50.5466 58.8061 50.5541 59.2026 50.5768C61.287 50.6787 62.8918 52.4534 62.7861 54.534C62.6841 56.6184 60.9245 58.2497 58.8288 58.1175C58.5607 58.1062 58.2888 58.0986 58.0169 58.0986C49.3962 58.0986 42.3804 65.1107 42.3804 73.7352C42.3804 82.3597 49.3925 89.3718 58.0169 89.3718C60.1013 89.3718 61.793 91.0635 61.793 93.1479C61.793 95.2322 60.0975 96.9239 58.0132 96.9239Z" fill="white"/>
<path d="M118.173 107.591C107.223 107.591 98.3073 98.6797 98.3073 87.7254C98.3073 85.6411 99.9952 83.9494 102.083 83.9494C104.172 83.9494 105.859 85.6411 105.859 87.7254C105.859 94.5148 111.384 100.039 118.173 100.039C124.962 100.039 130.487 94.5148 130.487 87.7254C130.487 83.4019 128.176 79.3464 124.453 77.1299C122.659 76.065 122.074 73.7465 123.139 71.9529C124.203 70.1593 126.518 69.574 128.316 70.6388C134.312 74.2072 138.035 80.7549 138.035 87.7217C138.039 98.6797 129.124 107.591 118.173 107.591Z" fill="white"/>
<path d="M98.1751 91.0559C93.6137 91.0559 89.1089 88.9678 86.1975 85.0218C84.959 83.3415 85.3177 80.9777 86.9943 79.7429C88.6709 78.5044 91.0347 78.8631 92.2732 80.5396C94.6634 83.7795 99.2438 84.4743 102.484 82.0878C104.753 80.4188 105.844 77.6585 105.338 74.8907C104.961 72.8403 106.32 70.873 108.374 70.4954C110.428 70.1442 112.392 71.4809 112.766 73.5313C113.797 79.1614 111.576 84.7688 106.97 88.1635C104.323 90.1119 101.238 91.0559 98.1751 91.0559Z" fill="white"/>
<path d="M95.0826 73.8862C94.8938 73.8862 94.7012 73.8749 94.5124 73.8447C92.4507 73.5313 91.0347 71.6055 91.3481 69.5438C91.6388 67.6142 91.163 65.6884 90.0076 64.1176C88.8483 62.5468 87.1491 61.5197 85.2196 61.2289C82.4404 60.8022 79.7141 61.9841 78.1168 64.2989C76.9311 66.0132 74.5749 66.4399 72.8643 65.258C71.1463 64.0723 70.7196 61.7198 71.9052 60.0055C75.1602 55.293 80.7147 52.9141 86.3524 53.7599C90.2757 54.3528 93.7345 56.4371 96.0908 59.6317C98.4433 62.8262 99.4137 66.7457 98.8171 70.669C98.5263 72.5457 96.9177 73.8862 95.0826 73.8862Z" fill="white"/>
<path d="M94.3538 133.321C92.2656 133.321 90.5778 131.633 90.5778 129.545V118.783C90.5778 113.682 86.4279 109.536 81.3302 109.536H73.1475C64.1681 109.536 56.8615 102.229 56.8615 93.2498C56.8615 84.2704 64.1681 76.9637 73.1475 76.9637C75.2319 76.9637 76.9236 78.6554 76.9236 80.7398C76.9236 82.8242 75.2319 84.5158 73.1475 84.5158C68.3331 84.5158 64.4136 88.4354 64.4136 93.2498C64.4136 98.0643 68.3331 101.984 73.1475 101.984H81.3302C90.5929 101.984 98.1298 109.521 98.1298 118.783V129.545C98.1298 131.633 96.4419 133.321 94.3538 133.321Z" fill="white"/>
<path d="M200.789 102.273C193.983 102.273 187.583 99.0228 187.583 91.0994C187.583 83.2775 193.78 77.2841 216.433 74.643C217.957 74.5414 218.871 73.9319 218.871 71.7987V69.6654C218.871 62.3514 215.519 57.5771 207.798 57.5771C195.101 57.5771 203.837 70.2749 194.897 70.2749C191.951 70.2749 190.529 68.548 190.529 65.7037C190.529 57.9834 200.992 54.9359 210.541 54.9359C222.528 54.9359 226.998 60.3198 226.998 71.5955V94.858C226.998 98.4134 229.232 98.5149 231.67 97.7023V98.8197C230.756 100.75 228.318 102.273 225.677 102.273C222.02 102.273 218.972 100.039 218.769 94.858C218.871 93.9437 218.058 93.9437 217.347 94.858C213.589 99.4292 207.189 102.273 200.789 102.273ZM196.319 89.2709C196.319 93.7405 199.164 97.6007 205.564 97.6007C212.776 97.6007 218.871 92.42 218.871 85.4107V80.7379C218.871 78.4015 218.261 76.8778 214.808 77.2841C199.672 79.1126 196.319 84.3949 196.319 89.2709ZM289.848 102.273C286.089 102.273 283.347 100.242 283.347 95.0611V74.1351C283.347 65.8053 279.283 60.015 271.868 60.015C264.452 60.015 259.576 65.8053 259.576 74.1351V94.1469C259.576 97.8039 261.303 99.0228 266.179 99.5308V101.664H244.948V99.5308C249.723 99.0228 251.45 97.8039 251.45 94.1469V45.3871C251.45 40.9175 250.535 39.089 244.847 39.5969V37.5652L256.021 35.1272C258.256 34.6193 259.576 35.6352 259.576 37.9716V58.1865C259.576 62.0467 260.49 63.3673 261.913 61.9451C263.436 60.523 267.906 54.9359 276.541 54.9359C284.362 54.9359 291.473 59.6087 291.473 71.7987V94.858C291.473 98.4134 293.708 98.8197 296.654 98.3118V99.5308C295.435 101.156 292.591 102.273 289.848 102.273ZM309.753 102.273C302.947 102.273 296.547 99.0228 296.547 91.0994C296.547 83.2775 302.743 77.2841 325.396 74.643C326.92 74.5414 327.834 73.9319 327.834 71.7987V69.6654C327.834 62.3514 324.482 57.5771 316.762 57.5771C304.064 57.5771 312.8 70.2749 303.861 70.2749C300.915 70.2749 299.493 68.548 299.493 65.7037C299.493 57.9834 309.956 54.9359 319.505 54.9359C331.491 54.9359 335.961 60.3198 335.961 71.5955V94.858C335.961 98.4134 338.196 98.5149 340.634 97.7023V98.8197C339.72 100.75 337.282 102.273 334.64 102.273C330.983 102.273 327.936 100.039 327.733 94.858C327.834 93.9437 327.022 93.9437 326.311 94.858C322.552 99.4292 316.152 102.273 309.753 102.273ZM305.283 89.2709C305.283 93.7405 308.127 97.6007 314.527 97.6007C321.739 97.6007 327.834 92.42 327.834 85.4107V80.7379C327.834 78.4015 327.225 76.8778 323.771 77.2841C308.635 79.1126 305.283 84.3949 305.283 89.2709ZM346.068 102.273C345.357 102.273 344.747 101.766 344.747 100.851V45.3871C344.747 40.9175 343.833 39.089 338.144 39.5969V37.5652L349.318 35.1272C351.553 34.6193 352.874 35.6352 352.874 37.9716V60.1166C352.874 61.0309 353.686 61.742 354.804 60.523C356.632 58.2881 362.321 54.9359 369.025 54.9359C380.098 54.9359 389.037 63.8752 389.037 77.792C389.037 93.639 378.371 102.273 367.197 102.273C358.664 102.273 353.89 97.2959 351.248 97.2959C348.607 97.2959 348.099 102.273 346.068 102.273ZM352.874 83.4807C352.874 94.9595 361.102 99.6323 367.603 99.6323C375.933 99.6323 381.012 92.5215 381.012 81.9569C381.012 69.8686 374.206 60.523 364.657 60.523C359.68 60.523 352.874 62.9609 352.874 73.0176V83.4807ZM387.067 99.5308C391.943 99.0228 393.67 97.8039 393.67 94.1469V65.5005C393.67 60.9293 392.755 59.1008 387.168 59.6087V57.6786L398.241 55.1391C400.476 54.6312 401.796 55.647 401.796 58.085V94.1469C401.796 97.8039 403.523 99.0228 408.399 99.5308V101.664H387.067V99.5308ZM391.739 38.7842C391.739 35.8383 393.974 33.7051 396.819 33.7051C399.663 33.7051 401.898 35.8383 401.898 38.7842C401.898 41.7301 399.663 43.8634 396.819 43.8634C393.974 43.8634 391.739 41.7301 391.739 38.7842ZM417.972 102.273C414.213 102.273 411.47 100.242 411.47 95.0611V45.3871C411.47 40.9175 410.556 39.089 404.867 39.5969V37.5652L416.042 35.1272C418.276 34.6193 419.597 35.6352 419.597 37.9716V94.858C419.597 98.4134 421.832 98.8197 424.778 98.3118V99.5308C423.66 101.156 420.816 102.273 417.972 102.273ZM425.22 99.5308C430.096 99.0228 431.823 97.8039 431.823 94.1469V65.5005C431.823 60.9293 430.908 59.1008 425.321 59.6087V57.6786L436.394 55.1391C438.629 54.6312 439.949 55.647 439.949 58.085V94.1469C439.949 97.8039 441.676 99.0228 446.552 99.5308V101.664H425.22V99.5308ZM429.893 38.7842C429.893 35.8383 432.127 33.7051 434.972 33.7051C437.816 33.7051 440.051 35.8383 440.051 38.7842C440.051 41.7301 437.816 43.8634 434.972 43.8634C432.127 43.8634 429.893 41.7301 429.893 38.7842ZM466.146 102.273C455.276 102.273 446.54 93.0295 446.54 78.9094C446.54 63.4689 457.206 54.9359 468.888 54.9359C478.437 54.9359 482.704 60.8277 482.704 55.0375V45.3871C482.704 40.9175 481.789 39.089 476.101 39.5969V37.5652L487.275 35.1272C489.51 34.6193 490.83 35.6352 490.83 37.9716V94.858C490.83 98.4134 493.065 98.8197 496.011 98.3118V99.5308C494.894 101.156 492.049 102.273 489.307 102.273C486.056 102.273 483.821 100.648 482.907 97.6007C482.602 96.3817 481.688 96.0769 481.078 96.0769C478.132 96.0769 475.187 102.273 466.146 102.273ZM454.667 75.2525C454.667 87.544 461.168 96.6864 471.225 96.6864C476.202 96.6864 482.704 94.2485 482.704 85.106V73.424C482.704 62.0467 474.475 57.5771 467.873 57.5771C459.441 57.5771 454.667 64.7894 454.667 75.2525ZM509.625 102.273C502.819 102.273 496.419 99.0228 496.419 91.0994C496.419 83.2775 502.616 77.2841 525.268 74.643C526.792 74.5414 527.706 73.9319 527.706 71.7987V69.6654C527.706 62.3514 524.354 57.5771 516.634 57.5771C503.936 57.5771 512.672 70.2749 503.733 70.2749C500.787 70.2749 499.365 68.548 499.365 65.7037C499.365 57.9834 509.828 54.9359 519.377 54.9359C531.363 54.9359 535.833 60.3198 535.833 71.5955V94.858C535.833 98.4134 538.068 98.5149 540.506 97.7023V98.8197C539.592 100.75 537.154 102.273 534.513 102.273C530.856 102.273 527.808 100.039 527.605 94.858C527.706 93.9437 526.894 93.9437 526.183 94.858C522.424 99.4292 516.024 102.273 509.625 102.273ZM505.155 89.2709C505.155 93.7405 507.999 97.6007 514.399 97.6007C521.612 97.6007 527.706 92.42 527.706 85.4107V80.7379C527.706 78.4015 527.097 76.8778 523.643 77.2841C508.507 79.1126 505.155 84.3949 505.155 89.2709ZM560.645 102.273C549.776 102.273 541.04 93.0295 541.04 78.9094C541.04 63.4689 551.706 54.9359 563.388 54.9359C572.937 54.9359 577.203 60.8277 577.203 55.0375V45.3871C577.203 40.9175 576.289 39.089 570.601 39.5969V37.5652L581.775 35.1272C584.01 34.6193 585.33 35.6352 585.33 37.9716V94.858C585.33 98.4134 587.565 98.8197 590.511 98.3118V99.5308C589.393 101.156 586.549 102.273 583.806 102.273C580.556 102.273 578.321 100.648 577.407 97.6007C577.102 96.3817 576.188 96.0769 575.578 96.0769C572.632 96.0769 569.686 102.273 560.645 102.273ZM549.167 75.2525C549.167 87.544 555.668 96.6864 565.725 96.6864C570.702 96.6864 577.203 94.2485 577.203 85.106V73.424C577.203 62.0467 568.975 57.5771 562.372 57.5771C553.941 57.5771 549.167 64.7894 549.167 75.2525ZM613.787 102.273C601.089 102.273 590.423 93.2326 590.423 78.5031C590.423 63.4689 601.191 54.9359 613.99 54.9359C624.351 54.9359 630.65 60.523 630.65 68.1417C630.65 74.8461 625.672 77.2841 611.247 77.8936L602.206 78.3C600.276 78.4015 599.565 79.4174 599.565 81.5506C599.565 89.0677 606.879 96.788 617.952 96.788C622.421 96.788 627.297 95.4674 630.751 90.9978L632.376 92.3184C630.446 95.8738 624.555 102.273 613.787 102.273ZM599.057 72.1034C599.057 75.5572 600.276 75.862 602.41 75.7604L609.825 75.6588C619.475 75.354 622.32 73.7287 622.32 68.2432C622.32 62.5546 619.374 57.6786 612.161 57.6786C603.222 57.6786 599.057 65.2973 599.057 72.1034ZM207.189 183.273C196.319 183.273 187.583 174.029 187.583 159.909C187.583 144.469 198.25 135.936 209.932 135.936C219.48 135.936 223.747 141.828 223.747 136.037V126.387C223.747 121.917 222.833 120.089 217.144 120.597V118.565L228.318 116.127C230.553 115.619 231.873 116.635 231.873 118.972V175.858C231.873 179.413 234.108 179.82 237.054 179.312V180.531C235.937 182.156 233.092 183.273 230.35 183.273C227.099 183.273 224.864 181.648 223.95 178.601C223.645 177.382 222.731 177.077 222.122 177.077C219.176 177.077 216.23 183.273 207.189 183.273ZM195.71 156.252C195.71 168.544 202.211 177.686 212.268 177.686C217.246 177.686 223.747 175.248 223.747 166.106V154.424C223.747 143.047 215.519 138.577 208.916 138.577C200.484 138.577 195.71 145.789 195.71 156.252ZM260.33 183.273C247.632 183.273 236.966 174.233 236.966 159.503C236.966 144.469 247.734 135.936 260.533 135.936C270.895 135.936 277.193 141.523 277.193 149.142C277.193 155.846 272.215 158.284 257.791 158.894L248.75 159.3C246.82 159.402 246.109 160.417 246.109 162.551C246.109 170.068 253.423 177.788 264.495 177.788C268.965 177.788 273.841 176.467 277.295 171.998L278.92 173.318C276.99 176.874 271.098 183.273 260.33 183.273ZM245.601 153.103C245.601 156.557 246.82 156.862 248.953 156.76L256.368 156.659C266.019 156.354 268.863 154.729 268.863 149.243C268.863 143.555 265.917 138.679 258.705 138.679C249.766 138.679 245.601 146.297 245.601 153.103Z" fill="white"/>
<path d="M313.774 183.273C302.397 183.273 293.965 175.248 293.965 162.652C293.965 149.548 303.209 135.733 318.243 135.733C329.621 135.733 338.052 143.758 338.052 156.354C338.052 169.458 328.707 183.273 313.774 183.273ZM303.412 159.706C303.412 169.763 307.069 180.531 315.704 180.531C324.643 180.531 328.605 169.661 328.605 159.3C328.605 149.243 324.948 138.475 316.313 138.475C307.374 138.475 303.412 149.345 303.412 159.706ZM353.424 183.273C346.618 183.273 341.133 179.007 342.758 166.614L345.501 145.586C346.111 141.117 342.961 139.999 339.609 141.625L340.016 139.288C342.454 136.952 345.298 136.139 347.533 136.139C351.19 136.139 354.643 138.577 353.831 144.774L351.291 163.871C350.072 173.522 352.51 177.28 357.996 177.28C366.326 177.28 372.319 168.95 373.843 154.526L374.858 145.586C375.366 141.117 372.217 139.999 368.865 141.625L369.271 139.288C371.811 136.952 374.655 136.139 376.789 136.139C380.446 136.139 384.001 138.577 383.087 145.789L379.531 174.131C379.023 178.194 382.071 179.617 385.423 177.788L384.915 180.124C382.376 182.461 379.43 183.273 377.296 183.273C373.538 183.273 370.389 181.039 371.1 174.842C371.913 167.833 366.63 183.273 353.424 183.273ZM394.685 145.586C395.193 141.218 392.146 139.999 388.794 141.625L389.2 139.288C391.638 136.952 394.482 136.139 396.717 136.139C400.272 136.139 403.218 138.272 403.218 144.164C403.218 146.602 403.929 146.704 404.945 144.672C406.875 141.015 411.447 135.733 417.846 135.733C421.706 135.733 424.144 137.663 424.144 140.71C424.144 143.351 422.214 145.891 417.745 147.618H417.643C417.745 144.164 416.322 142.031 413.275 142.031C407.078 142.031 402.202 150.259 400.577 163.668L398.241 182.664H390.013L394.685 145.586ZM440.098 183.273C428.72 183.273 420.289 175.248 420.289 162.652C420.289 149.548 429.533 135.733 444.567 135.733C455.945 135.733 464.376 143.758 464.376 156.354C464.376 169.458 455.03 183.273 440.098 183.273ZM429.736 159.706C429.736 169.763 433.393 180.531 442.028 180.531C450.967 180.531 454.929 169.661 454.929 159.3C454.929 149.243 451.272 138.475 442.637 138.475C433.698 138.475 429.736 149.345 429.736 159.706Z" fill="url(#paint0_linear_503_2)"/>
<path d="M198.674 15.774L193.328 0.264H196.254L199.928 11.682L203.712 0.220001H206L209.784 11.682L213.458 0.264H216.296L210.95 15.774H208.596L204.812 4.708L201.028 15.774H198.674ZM229.961 15.928C225.231 15.928 221.931 12.342 221.931 8.008V7.964C221.931 3.63 225.275 1.19209e-06 230.005 1.19209e-06C234.735 1.19209e-06 238.035 3.586 238.035 7.92V7.964C238.035 12.298 234.691 15.928 229.961 15.928ZM230.005 13.42C233.063 13.42 235.197 11 235.197 8.008V7.964C235.197 4.972 233.019 2.508 229.961 2.508C226.903 2.508 224.769 4.928 224.769 7.92V7.964C224.769 10.956 226.947 13.42 230.005 13.42ZM245.705 15.664V0.264H252.569C254.505 0.264 256.023 0.836001 257.013 1.804C257.827 2.64 258.289 3.784 258.289 5.126V5.17C258.289 7.7 256.771 9.218 254.637 9.834L258.795 15.664H255.583L251.799 10.296H248.411V15.664H245.705ZM248.411 7.898H252.371C254.307 7.898 255.539 6.886 255.539 5.324V5.28C255.539 3.63 254.351 2.728 252.349 2.728H248.411V7.898ZM266.003 15.664V0.264H268.709V8.008L276.013 0.264H279.379L272.955 6.886L279.665 15.664H276.365L271.107 8.734L268.709 11.198V15.664H266.003ZM291.541 15.884C289.187 15.884 286.965 15.07 285.117 13.42L286.745 11.484C288.219 12.76 289.715 13.486 291.607 13.486C293.279 13.486 294.335 12.694 294.335 11.55V11.506C294.335 10.406 293.719 9.812 290.859 9.152C287.581 8.36 285.733 7.392 285.733 4.554V4.51C285.733 1.87 287.933 0.0440006 290.991 0.0440006C293.235 0.0440006 295.017 0.726001 296.579 1.98L295.127 4.026C293.741 2.992 292.355 2.442 290.947 2.442C289.363 2.442 288.439 3.256 288.439 4.268V4.312C288.439 5.5 289.143 6.028 292.113 6.732C295.369 7.524 297.041 8.69 297.041 11.242V11.286C297.041 14.168 294.775 15.884 291.541 15.884ZM304.623 15.664V0.264H307.329V6.666H314.677V0.264H317.383V15.664H314.677V9.174H307.329V15.664H304.623ZM333.086 15.928C328.356 15.928 325.056 12.342 325.056 8.008V7.964C325.056 3.63 328.4 1.19209e-06 333.13 1.19209e-06C337.86 1.19209e-06 341.16 3.586 341.16 7.92V7.964C341.16 12.298 337.816 15.928 333.086 15.928ZM333.13 13.42C336.188 13.42 338.322 11 338.322 8.008V7.964C338.322 4.972 336.144 2.508 333.086 2.508C330.028 2.508 327.894 4.928 327.894 7.92V7.964C327.894 10.956 330.072 13.42 333.13 13.42ZM348.83 15.664V0.264H354.902C358.51 0.264 360.754 2.31 360.754 5.412V5.456C360.754 8.91 357.982 10.714 354.594 10.714H351.536V15.664H348.83ZM351.536 8.272H354.682C356.728 8.272 358.004 7.128 358.004 5.522V5.478C358.004 3.674 356.706 2.728 354.682 2.728H351.536V8.272Z" fill="white"/>
<defs>
<linearGradient id="paint0_linear_503_2" x1="636.536" y1="74.0845" x2="359.079" y2="314.826" gradientUnits="userSpaceOnUse">
<stop stop-color="#966E16"/>
<stop offset="1" stop-color="#D6B865"/>
</linearGradient>
</defs>
</svg>
