<svg width="249" height="75" viewBox="0 0 249 75" fill="none" xmlns="http://www.w3.org/2000/svg">
<path d="M18.0987 25.6456L36.858 25.6222C39.9509 25.6164 43.9459 25.2127 46.9164 25.8717C48.0291 26.1186 49.0289 26.7394 49.8853 27.4739C51.9541 29.2492 53.6749 31.6432 55.488 33.6845C57.747 36.227 60.6151 38.8031 62.4023 41.6881C63.6206 43.6548 63.9543 45.9215 63.386 48.1666C63.1281 49.1856 62.6453 50.2623 62.0021 51.0969C60.3225 53.2758 45.6314 67.9996 43.9294 68.9811C42.3803 69.8737 40.5118 70.0457 38.7981 69.5772C37.0948 69.1116 35.6504 67.9809 34.7892 66.4392C33.8583 64.7884 33.6399 62.8295 34.184 61.0141C36.5486 53.1342 46.5649 57.7231 51.8212 55.7276C52.3659 55.5267 53.022 54.2427 53.0136 53.7609C52.9423 49.6162 44.9293 52.7409 43.2584 50.7373C43.702 48.0477 53.762 46.0505 52.3902 42.5972C50.2935 37.3201 43.2432 46.6233 40.2189 45.3558C39.2926 43.405 45.5323 36.8724 44.6519 35.0408C41.2586 27.9813 37.3676 41.9324 35.1278 42.3737C34.5809 42.2454 34.505 42.0957 34.1622 41.6913C34.2095 39.3426 35.1906 31.1145 32.423 30.3913C31.8339 30.2322 31.2047 30.3232 30.685 30.6437C27.8963 32.3463 30.6549 41.4542 28.8868 42.4466C26.6741 41.9032 24.2755 34.6571 22.2038 33.329C20.9062 32.4973 18.5014 34.131 18.8692 35.8048C19.28 37.6743 24.3721 43.983 23.5044 45.5833C20.8226 46.3645 10.9103 36.0329 11.2446 44.075C11.3068 45.5713 20.9036 48.9714 20.2812 51.106C19.0052 51.8949 14.4452 51.1714 12.7312 51.5333C11.2197 51.8522 10.1294 53.7029 10.8092 54.5722C13.8017 58.3977 22.6539 54.3927 26.7914 57.2721C28.2964 58.3193 29.3475 60.0654 29.6618 61.7013C30.0088 63.485 29.6265 65.3334 28.6004 66.8332C27.5295 68.4024 25.8628 69.4642 23.9881 69.7713C22.6578 69.9994 20.1713 69.5559 19.1708 68.6068C13.1514 62.8966 6.86051 56.7443 1.3294 50.6063C-0.713782 47.7765 -0.319467 43.0761 1.94793 40.6179C6.18852 36.0206 9.86177 31.2897 14.346 27.043C15.2493 26.1876 16.9199 25.8121 18.0987 25.6456Z" fill="url(#paint0_linear_466_455)"/>
<path d="M30.6707 4.72611C35.9028 4.07583 40.6757 7.7789 41.3458 13.0087C42.0161 18.2388 38.3315 23.026 33.1047 23.7164C27.8493 24.4104 23.0307 20.7012 22.3567 15.4429C21.6828 10.1846 25.4102 5.37996 30.6707 4.72611Z" fill="url(#paint1_linear_466_455)"/>
<path d="M79.6035 39.6624C76.9723 39.6624 74.4982 38.4058 74.4982 35.3426C74.4982 32.3186 76.8938 30.0016 85.6514 28.9805C86.2405 28.9413 86.5939 28.7056 86.5939 27.8809V27.0562C86.5939 24.2287 85.2979 22.3829 82.3133 22.3829C77.4043 22.3829 80.7817 27.2919 77.3258 27.2919C76.1869 27.2919 75.6371 26.6242 75.6371 25.5246C75.6371 22.54 79.6821 21.3618 83.3736 21.3618C88.0077 21.3618 89.7356 23.4432 89.7356 27.8024V36.7956C89.7356 38.1701 90.5996 38.2094 91.5421 37.8952V38.3272C91.1887 39.0734 90.2462 39.6624 89.2251 39.6624C87.8113 39.6624 86.6332 38.7985 86.5546 36.7956C86.5939 36.4422 86.2797 36.4422 86.0048 36.7956C84.5518 38.5628 82.0777 39.6624 79.6035 39.6624ZM77.8756 34.6357C77.8756 36.3636 78.9752 37.856 81.4493 37.856C84.2376 37.856 86.5939 35.8531 86.5939 33.1433V31.3368C86.5939 30.4336 86.3583 29.8445 85.023 30.0016C79.1716 30.7085 77.8756 32.7506 77.8756 34.6357ZM114.033 39.6624C112.58 39.6624 111.52 38.877 111.52 36.8742V28.7842C111.52 25.5639 109.949 23.3254 107.082 23.3254C104.216 23.3254 102.331 25.5639 102.331 28.7842V36.5207C102.331 37.9345 102.998 38.4058 104.883 38.6021V39.4268H96.6754V38.6021C98.5212 38.4058 99.1888 37.9345 99.1888 36.5207V17.6703C99.1888 15.9423 98.8353 15.2354 96.6361 15.4318V14.6464L100.956 13.7038C101.82 13.5075 102.331 13.9002 102.331 14.8035V22.6185C102.331 24.1109 102.684 24.6214 103.234 24.0716C103.823 23.5218 105.551 21.3618 108.889 21.3618C111.913 21.3618 114.662 23.1683 114.662 27.8809V36.7956C114.662 38.1701 115.526 38.3272 116.665 38.1309V38.6021C116.193 39.2305 115.094 39.6624 114.033 39.6624ZM121.729 39.6624C119.097 39.6624 116.623 38.4058 116.623 35.3426C116.623 32.3186 119.019 30.0016 127.776 28.9805C128.366 28.9413 128.719 28.7056 128.719 27.8809V27.0562C128.719 24.2287 127.423 22.3829 124.438 22.3829C119.529 22.3829 122.907 27.2919 119.451 27.2919C118.312 27.2919 117.762 26.6242 117.762 25.5246C117.762 22.54 121.807 21.3618 125.499 21.3618C130.133 21.3618 131.861 23.4432 131.861 27.8024V36.7956C131.861 38.1701 132.725 38.2094 133.667 37.8952V38.3272C133.314 39.0734 132.371 39.6624 131.35 39.6624C129.936 39.6624 128.758 38.7985 128.68 36.7956C128.719 36.4422 128.405 36.4422 128.13 36.7956C126.677 38.5628 124.203 39.6624 121.729 39.6624ZM120.001 34.6357C120.001 36.3636 121.1 37.856 123.574 37.856C126.363 37.856 128.719 35.8531 128.719 33.1433V31.3368C128.719 30.4336 128.483 29.8445 127.148 30.0016C121.297 30.7085 120.001 32.7506 120.001 34.6357ZM135.768 39.6624C135.493 39.6624 135.257 39.4661 135.257 39.1126V17.6703C135.257 15.9423 134.904 15.2354 132.705 15.4318V14.6464L137.025 13.7038C137.889 13.5075 138.399 13.9002 138.399 14.8035V23.3647C138.399 23.7181 138.713 23.993 139.145 23.5218C139.852 22.6578 142.051 21.3618 144.643 21.3618C148.924 21.3618 152.38 24.8177 152.38 30.198C152.38 36.3244 148.256 39.6624 143.936 39.6624C140.638 39.6624 138.792 37.7381 137.771 37.7381C136.75 37.7381 136.553 39.6624 135.768 39.6624ZM138.399 32.3972C138.399 36.8349 141.58 38.6414 144.094 38.6414C147.314 38.6414 149.277 35.8924 149.277 31.8081C149.277 27.1348 146.646 23.5218 142.955 23.5218C141.03 23.5218 138.399 24.4643 138.399 28.3522V32.3972ZM151.618 38.6021C153.503 38.4058 154.171 37.9345 154.171 36.5207V25.4461C154.171 23.6789 153.817 22.972 151.657 23.1683V22.4222L155.938 21.4404C156.802 21.244 157.312 21.6367 157.312 22.5793V36.5207C157.312 37.9345 157.98 38.4058 159.865 38.6021V39.4268H151.618V38.6021ZM153.425 15.1176C153.425 13.9788 154.289 13.154 155.388 13.154C156.488 13.154 157.352 13.9788 157.352 15.1176C157.352 16.2565 156.488 17.0812 155.388 17.0812C154.289 17.0812 153.425 16.2565 153.425 15.1176ZM163.566 39.6624C162.113 39.6624 161.052 38.877 161.052 36.8742V17.6703C161.052 15.9423 160.699 15.2354 158.5 15.4318V14.6464L162.82 13.7038C163.684 13.5075 164.194 13.9002 164.194 14.8035V36.7956C164.194 38.1701 165.058 38.3272 166.197 38.1309V38.6021C165.765 39.2305 164.665 39.6624 163.566 39.6624ZM166.368 38.6021C168.253 38.4058 168.921 37.9345 168.921 36.5207V25.4461C168.921 23.6789 168.567 22.972 166.407 23.1683V22.4222L170.688 21.4404C171.552 21.244 172.062 21.6367 172.062 22.5793V36.5207C172.062 37.9345 172.73 38.4058 174.615 38.6021V39.4268H166.368V38.6021ZM168.174 15.1176C168.174 13.9788 169.038 13.154 170.138 13.154C171.238 13.154 172.102 13.9788 172.102 15.1176C172.102 16.2565 171.238 17.0812 170.138 17.0812C169.038 17.0812 168.174 16.2565 168.174 15.1176ZM182.19 39.6624C177.988 39.6624 174.61 36.0887 174.61 30.63C174.61 24.6607 178.734 21.3618 183.25 21.3618C186.942 21.3618 188.591 23.6396 188.591 21.4011V17.6703C188.591 15.9423 188.238 15.2354 186.038 15.4318V14.6464L190.358 13.7038C191.222 13.5075 191.733 13.9002 191.733 14.8035V36.7956C191.733 38.1701 192.597 38.3272 193.736 38.1309V38.6021C193.304 39.2305 192.204 39.6624 191.144 39.6624C189.887 39.6624 189.023 39.0341 188.67 37.856C188.552 37.3847 188.198 37.2669 187.963 37.2669C186.824 37.2669 185.685 39.6624 182.19 39.6624ZM177.752 29.2162C177.752 33.9681 180.266 37.5025 184.153 37.5025C186.078 37.5025 188.591 36.56 188.591 33.0255V28.5093C188.591 24.1109 185.41 22.3829 182.857 22.3829C179.598 22.3829 177.752 25.1712 177.752 29.2162ZM198.999 39.6624C196.368 39.6624 193.893 38.4058 193.893 35.3426C193.893 32.3186 196.289 30.0016 205.047 28.9805C205.636 28.9413 205.989 28.7056 205.989 27.8809V27.0562C205.989 24.2287 204.693 22.3829 201.708 22.3829C196.8 22.3829 200.177 27.2919 196.721 27.2919C195.582 27.2919 195.032 26.6242 195.032 25.5246C195.032 22.54 199.077 21.3618 202.769 21.3618C207.403 21.3618 209.131 23.4432 209.131 27.8024V36.7956C209.131 38.1701 209.995 38.2094 210.937 37.8952V38.3272C210.584 39.0734 209.641 39.6624 208.62 39.6624C207.207 39.6624 206.028 38.7985 205.95 36.7956C205.989 36.4422 205.675 36.4422 205.4 36.7956C203.947 38.5628 201.473 39.6624 198.999 39.6624ZM197.271 34.6357C197.271 36.3636 198.37 37.856 200.845 37.856C203.633 37.856 205.989 35.8531 205.989 33.1433V31.3368C205.989 30.4336 205.753 29.8445 204.418 30.0016C198.567 30.7085 197.271 32.7506 197.271 34.6357ZM218.723 39.6624C214.521 39.6624 211.144 36.0887 211.144 30.63C211.144 24.6607 215.267 21.3618 219.784 21.3618C223.475 21.3618 225.125 23.6396 225.125 21.4011V17.6703C225.125 15.9423 224.771 15.2354 222.572 15.4318V14.6464L226.892 13.7038C227.756 13.5075 228.266 13.9002 228.266 14.8035V36.7956C228.266 38.1701 229.13 38.3272 230.269 38.1309V38.6021C229.837 39.2305 228.738 39.6624 227.677 39.6624C226.421 39.6624 225.557 39.0341 225.203 37.856C225.085 37.3847 224.732 37.2669 224.496 37.2669C223.357 37.2669 222.218 39.6624 218.723 39.6624ZM214.286 29.2162C214.286 33.9681 216.799 37.5025 220.687 37.5025C222.611 37.5025 225.125 36.56 225.125 33.0255V28.5093C225.125 24.1109 221.944 22.3829 219.391 22.3829C216.131 22.3829 214.286 25.1712 214.286 29.2162ZM239.268 39.6624C234.359 39.6624 230.235 36.1673 230.235 30.4729C230.235 24.6607 234.398 21.3618 239.346 21.3618C243.352 21.3618 245.787 23.5218 245.787 26.4672C245.787 29.0591 243.862 30.0016 238.286 30.2372L234.791 30.3943C234.044 30.4336 233.77 30.8263 233.77 31.651C233.77 34.5571 236.597 37.5418 240.878 37.5418C242.606 37.5418 244.491 37.0312 245.826 35.3033L246.454 35.8138C245.708 37.1883 243.43 39.6624 239.268 39.6624ZM233.573 27.9988C233.573 29.334 234.044 29.4518 234.869 29.4125L237.736 29.3733C241.467 29.2554 242.566 28.6271 242.566 26.5064C242.566 24.3072 241.428 22.4222 238.639 22.4222C235.183 22.4222 233.573 25.3675 233.573 27.9988ZM82.0777 70.6624C77.8756 70.6624 74.4982 67.0887 74.4982 61.63C74.4982 55.6607 78.6217 52.3618 83.138 52.3618C86.8295 52.3618 88.4789 54.6396 88.4789 52.4011V48.6703C88.4789 46.9423 88.1255 46.2354 85.9263 46.4318V45.6464L90.2462 44.7038C91.1102 44.5075 91.6207 44.9002 91.6207 45.8035V67.7956C91.6207 69.1701 92.4847 69.3272 93.6235 69.1309V69.6021C93.1916 70.2305 92.0919 70.6624 91.0316 70.6624C89.7749 70.6624 88.9109 70.0341 88.5575 68.856C88.4397 68.3847 88.0862 68.2669 87.8506 68.2669C86.7117 68.2669 85.5728 70.6624 82.0777 70.6624ZM77.64 60.2162C77.64 64.9681 80.1533 68.5025 84.0412 68.5025C85.9656 68.5025 88.4789 67.56 88.4789 64.0255V59.5093C88.4789 55.1109 85.2979 53.3829 82.7453 53.3829C79.4857 53.3829 77.64 56.1712 77.64 60.2162ZM102.622 70.6624C97.713 70.6624 93.5895 67.1673 93.5895 61.4729C93.5895 55.6607 97.7523 52.3618 102.701 52.3618C106.706 52.3618 109.141 54.5218 109.141 57.4672C109.141 60.0591 107.217 61.0016 101.64 61.2372L98.145 61.3943C97.3988 61.4336 97.1239 61.8263 97.1239 62.651C97.1239 65.5571 99.9515 68.5418 104.232 68.5418C105.96 68.5418 107.845 68.0312 109.18 66.3033L109.809 66.8138C109.063 68.1883 106.785 70.6624 102.622 70.6624ZM96.9276 58.9988C96.9276 60.334 97.3988 60.4518 98.2235 60.4125L101.09 60.3733C104.821 60.2554 105.921 59.6271 105.921 57.5064C105.921 55.3072 104.782 53.4222 101.994 53.4222C98.5377 53.4222 96.9276 56.3675 96.9276 58.9988Z" fill="white"/>
<path d="M123.283 70.6624C118.885 70.6624 115.625 67.56 115.625 62.6903C115.625 57.6242 119.199 52.2833 125.011 52.2833C129.41 52.2833 132.669 55.3858 132.669 60.2554C132.669 65.3215 129.056 70.6624 123.283 70.6624ZM119.277 61.5514C119.277 65.4393 120.691 69.6021 124.029 69.6021C127.485 69.6021 129.017 65.4 129.017 61.3943C129.017 57.5064 127.603 53.3436 124.265 53.3436C120.809 53.3436 119.277 57.5457 119.277 61.5514ZM138.612 70.6624C135.981 70.6624 133.86 69.013 134.489 64.2219L135.549 56.0926C135.784 54.3647 134.567 53.9327 133.271 54.561L133.428 53.6578C134.371 52.7545 135.47 52.4404 136.334 52.4404C137.748 52.4404 139.083 53.3829 138.769 55.7785L137.787 63.1616C137.316 66.8924 138.259 68.3454 140.379 68.3454C143.6 68.3454 145.917 65.1251 146.506 59.5486L146.898 56.0926C147.095 54.3647 145.877 53.9327 144.581 54.561L144.738 53.6578C145.72 52.7545 146.82 52.4404 147.645 52.4404C149.058 52.4404 150.433 53.3829 150.079 56.1712L148.705 67.128C148.509 68.6989 149.687 69.2487 150.983 68.5418L150.786 69.445C149.804 70.3483 148.666 70.6624 147.841 70.6624C146.388 70.6624 145.17 69.7985 145.445 67.4029C145.759 64.6931 143.717 70.6624 138.612 70.6624ZM154.563 56.0926C154.76 54.404 153.582 53.9327 152.286 54.561L152.443 53.6578C153.385 52.7545 154.485 52.4404 155.349 52.4404C156.723 52.4404 157.862 53.2651 157.862 55.5428C157.862 56.4854 158.137 56.5246 158.53 55.7392C159.276 54.3254 161.043 52.2833 163.517 52.2833C165.01 52.2833 165.952 53.0295 165.952 54.2076C165.952 55.2287 165.206 56.2105 163.478 56.8781H163.439C163.478 55.5428 162.928 54.7181 161.75 54.7181C159.355 54.7181 157.47 57.8991 156.841 63.083L155.938 70.4268H152.757L154.563 56.0926ZM172.12 70.6624C167.721 70.6624 164.462 67.56 164.462 62.6903C164.462 57.6242 168.035 52.2833 173.848 52.2833C178.246 52.2833 181.506 55.3858 181.506 60.2554C181.506 65.3215 177.893 70.6624 172.12 70.6624ZM168.114 61.5514C168.114 65.4393 169.528 69.6021 172.866 69.6021C176.322 69.6021 177.853 65.4 177.853 61.3943C177.853 57.5064 176.44 53.3436 173.102 53.3436C169.646 53.3436 168.114 57.5457 168.114 61.5514Z" fill="url(#paint2_linear_466_455)"/>
<path d="M78.7858 6.09819L76.719 0.102055H77.8502L79.2706 4.51623L80.7335 0.0850453H81.618L83.0809 4.51623L84.5012 0.102055H85.5984L83.5317 6.09819H82.6216L81.1587 1.8201L79.6958 6.09819H78.7858ZM90.8814 6.15773C89.0528 6.15773 87.777 4.77139 87.777 3.09587V3.07886C87.777 1.40334 89.0698 -6.12504e-06 90.8984 -6.12504e-06C92.727 -6.12504e-06 94.0028 1.38633 94.0028 3.06185V3.07886C94.0028 4.75438 92.71 6.15773 90.8814 6.15773ZM90.8984 5.18814C92.0806 5.18814 92.9056 4.25257 92.9056 3.09587V3.07886C92.9056 1.92216 92.0636 0.969581 90.8814 0.969581C89.6992 0.969581 88.8742 1.90515 88.8742 3.06185V3.07886C88.8742 4.23556 89.7162 5.18814 90.8984 5.18814ZM96.9677 6.05566V0.102055H99.6213C100.37 0.102055 100.957 0.32319 101.339 0.697416C101.654 1.02061 101.833 1.46288 101.833 1.98169V1.99871C101.833 2.9768 101.246 3.56365 100.421 3.8018L102.028 6.05566H100.787L99.3237 3.98041H98.0139V6.05566H96.9677ZM98.0139 3.05334H99.5448C100.293 3.05334 100.77 2.66211 100.77 2.05824V2.04123C100.77 1.40334 100.31 1.05463 99.5363 1.05463H98.0139V3.05334ZM104.815 6.05566V0.102055H105.861V3.09587L108.685 0.102055H109.986L107.503 2.66211L110.097 6.05566H108.821L106.788 3.37654L105.861 4.32912V6.05566H104.815ZM114.688 6.14072C113.778 6.14072 112.919 5.82602 112.205 5.18814L112.834 4.43968C113.404 4.93298 113.982 5.21365 114.714 5.21365C115.36 5.21365 115.768 4.90747 115.768 4.4652V4.44819C115.768 4.02293 115.53 3.79329 114.424 3.53814C113.157 3.23195 112.443 2.85773 112.443 1.76056V1.74355C112.443 0.722932 113.293 0.017004 114.475 0.017004C115.343 0.017004 116.032 0.280664 116.636 0.765458L116.074 1.55644C115.539 1.15669 115.003 0.944066 114.458 0.944066C113.846 0.944066 113.489 1.25876 113.489 1.64999V1.667C113.489 2.12628 113.761 2.33041 114.909 2.60257C116.168 2.90876 116.814 3.35953 116.814 4.34613V4.36314C116.814 5.47731 115.938 6.14072 114.688 6.14072ZM119.746 6.05566V0.102055H120.792V2.57706H123.632V0.102055H124.679V6.05566H123.632V3.54664H120.792V6.05566H119.746ZM130.749 6.15773C128.921 6.15773 127.645 4.77139 127.645 3.09587V3.07886C127.645 1.40334 128.938 -6.12504e-06 130.766 -6.12504e-06C132.595 -6.12504e-06 133.871 1.38633 133.871 3.06185V3.07886C133.871 4.75438 132.578 6.15773 130.749 6.15773ZM130.766 5.18814C131.949 5.18814 132.774 4.25257 132.774 3.09587V3.07886C132.774 1.92216 131.932 0.969581 130.749 0.969581C129.567 0.969581 128.742 1.90515 128.742 3.06185V3.07886C128.742 4.23556 129.584 5.18814 130.766 5.18814ZM136.836 6.05566V0.102055H139.183C140.578 0.102055 141.445 0.893035 141.445 2.09226V2.10927C141.445 3.44458 140.374 4.142 139.064 4.142H137.882V6.05566H136.836ZM137.882 3.19793H139.098C139.889 3.19793 140.382 2.75566 140.382 2.13479V2.11778C140.382 1.42035 139.88 1.05463 139.098 1.05463H137.882V3.19793Z" fill="white"/>
<defs>
<linearGradient id="paint0_linear_466_455" x1="63.6551" y1="21.317" x2="0.947777" y2="40.3619" gradientUnits="userSpaceOnUse">
<stop stop-color="#966E16"/>
<stop offset="1" stop-color="#D6B865"/>
</linearGradient>
<linearGradient id="paint1_linear_466_455" x1="63.6551" y1="21.317" x2="0.947777" y2="40.3619" gradientUnits="userSpaceOnUse">
<stop stop-color="#966E16"/>
<stop offset="1" stop-color="#D6B865"/>
</linearGradient>
<linearGradient id="paint2_linear_466_455" x1="248.32" y1="28.2791" x2="141.966" y2="121.633" gradientUnits="userSpaceOnUse">
<stop stop-color="#966E16"/>
<stop offset="1" stop-color="#D6B865"/>
</linearGradient>
</defs>
</svg>
