<svg width="20" height="21" viewBox="0 0 20 21" fill="none" xmlns="http://www.w3.org/2000/svg">
<path fill-rule="evenodd" clip-rule="evenodd" d="M20 7.7094H0V17.7316C0 18.3484 0.228571 18.9343 0.628571 19.366C1.02857 19.7977 1.57857 20.0444 2.14286 20.0444H17.8571C19.0429 20.0444 20 19.0114 20 17.7316V7.7094ZM4.28571 1.54188H2.14286C0.957143 1.54188 0 2.57494 0 3.8547V6.16752H20V3.8547C20 3.23795 19.7714 2.65203 19.3714 2.22031C18.9714 1.78858 18.4214 1.54188 17.8571 1.54188H15.7143V3.8547C15.7143 4.27872 15.3929 4.62564 15 4.62564C14.6071 4.62564 14.2857 4.27872 14.2857 3.8547V1.54188H5.71429V3.8547C5.71429 4.27872 5.39286 4.62564 5 4.62564C4.60714 4.62564 4.28571 4.27872 4.28571 3.8547V1.54188ZM4.28571 0.77094V1.54188H5.71429V0.77094C5.71429 0.346923 5.39286 0 5 0C4.60714 0 4.28571 0.346923 4.28571 0.77094ZM14.2857 0.77094V1.54188H15.7143V0.77094C15.7143 0.346923 15.3929 0 15 0C14.6071 0 14.2857 0.346923 14.2857 0.77094Z" fill="url(#paint0_linear_434_73)"/>
<defs>
<linearGradient id="paint0_linear_434_73" x1="10" y1="0" x2="10" y2="20.0444" gradientUnits="userSpaceOnUse">
<stop stop-color="#93662C"/>
<stop offset="1" stop-color="#E3BC70"/>
</linearGradient>
</defs>
</svg>
