<svg width="97" height="33" viewBox="0 0 97 33" fill="none" xmlns="http://www.w3.org/2000/svg">
<path d="M43.5228 12.733C43.5228 13.9533 43.7519 14.326 44.1089 14.4088C44.338 14.472 44.653 14.5134 44.9262 14.4502L44.9461 14.6986C44.4658 15.0081 43.9194 15.2783 43.0822 15.2783C42.245 15.2783 41.9718 14.8424 41.7845 13.9533C41.1566 14.3674 40.0462 15.2783 38.8124 15.2783C36.9067 15.2783 36.0497 13.9533 36.0497 12.5042C36.0497 11.5737 36.4683 10.8066 37.8915 10.3707C39.4403 9.89568 41.3042 9.39883 41.8065 8.90197V7.84507C41.8065 6.3131 41.1169 5.60922 40.0484 5.60922C38.9799 5.60922 38.2682 6.29131 38.081 7.84507C38.0391 8.1349 37.9334 8.25911 37.5368 8.25911C37.1402 8.25911 36.4066 8.01069 36.4066 7.38962C36.4066 6.39591 37.9752 5.23658 40.2577 5.23658C43.2496 5.23658 43.5228 6.72715 43.5228 7.88647V12.733ZM41.8065 9.37922C41.3659 9.66905 40.2775 10.0221 39.4844 10.3315C38.4159 10.7042 37.9973 11.2838 37.9973 12.2165C37.9973 13.3541 38.7089 14.4327 39.9228 14.4327C40.6543 14.4327 41.8065 14.0797 41.8065 12.5478V9.37922Z" fill="white"/>
<path d="M54.1333 12.4432C53.5671 14.5548 51.831 15.2783 50.4077 15.2783C47.4555 15.2783 45.9485 13.5807 45.9485 10.3293C45.9485 7.74047 47.0787 5.23658 50.6368 5.23658C52.8136 5.23658 53.9438 6.25208 53.9438 7.14119C53.9438 7.88647 53.3578 8.15451 52.9392 8.15451C52.5206 8.15451 52.395 8.0303 52.3112 7.69906C52.0821 6.62255 51.7252 5.64845 50.4077 5.64845C49.0902 5.64845 47.9578 7.0148 47.9578 9.99592C47.9578 11.9005 48.5438 14.448 50.8241 14.448C52.2275 14.448 53.274 13.9097 53.8601 12.3146L54.1333 12.4388V12.4432Z" fill="white"/>
<path d="M57.4204 9.89568C57.3785 11.9463 57.9029 14.472 60.3308 14.472C62.3203 14.472 62.9063 13.1884 63.283 12.2557L63.5959 12.4017C63.1354 13.9141 62.0691 15.2805 59.8902 15.2805C56.5832 15.2805 55.4111 13.3976 55.4111 10.3315C55.4111 7.4332 56.7506 5.23876 59.8703 5.23876C63.4703 5.23876 63.7016 8.01287 63.7016 9.17219C63.7016 9.52522 63.5959 9.89786 62.8843 9.89786H57.4204V9.89568ZM61.0204 9.44023C61.71 9.44023 61.7937 9.0044 61.7937 8.42473C61.7937 7.63805 61.6042 5.65063 59.7425 5.65063C57.6914 5.65063 57.4204 8.61214 57.4204 9.44023H61.0204Z" fill="white"/>
<path d="M74.3099 13.3323C74.3099 14.4502 74.3738 14.533 75.6693 14.6354V15.0298H71.1065V14.6354C72.424 14.5526 72.5099 14.4698 72.5099 13.3323V8.40512C72.5099 6.77073 71.7344 6.10826 70.4786 6.10826C69.4541 6.10826 68.5112 6.66613 68.1983 7.30899C68.0309 7.61843 67.989 7.88865 67.989 8.36372V13.3323C67.989 14.4698 68.0926 14.533 69.3704 14.6354V15.0298H64.8275V14.6354C66.1053 14.5526 66.189 14.4502 66.189 13.3323V7.224C66.189 6.35451 66.1472 6.23029 65.5391 6.14748L64.9112 6.08429V5.75305L67.696 5.2562L67.9692 6.76855C69.2029 6.00148 70.104 5.23658 71.5273 5.23658C73.3493 5.23658 74.3121 6.37412 74.3121 8.34192V13.3323H74.3099Z" fill="white"/>
<path d="M83.1843 0.764894L82.3272 0.662472V0.350849L85.5505 0L85.6144 0.0414045V13.4565C85.6144 14.4306 85.6783 14.5134 86.9539 14.6376V15.032H83.7923V13.8923C82.726 14.7422 81.7632 15.2805 80.6947 15.2805C78.1192 15.2805 76.7598 13.5001 76.7598 10.4579C76.7598 8.76033 77.2842 7.45499 78.1192 6.5855C78.9564 5.73562 80.0447 5.24094 81.6575 5.24094C82.5564 5.24094 83.268 5.42617 83.8122 5.69639V1.84359C83.8122 0.974096 83.6668 0.828091 83.1843 0.767073V0.764894ZM83.8122 7.90827C83.8122 7.38962 83.7923 7.09979 83.6249 6.77073C83.29 6.02545 82.5586 5.65281 81.6575 5.65281C79.69 5.65281 78.7691 7.66202 78.7691 10.2291C78.7691 12.4649 79.69 14.4524 81.468 14.4524C82.4506 14.4524 83.2878 14.2257 83.6668 13.2516C83.7923 12.9204 83.8122 12.5892 83.8122 12.1533V7.90827Z" fill="white"/>
<path d="M95.4493 12.733C95.4493 13.9533 95.6784 14.326 96.0354 14.4088C96.2645 14.472 96.5795 14.5134 96.8527 14.4502L96.8726 14.6986C96.3923 15.0081 95.8481 15.2783 95.0087 15.2783C94.1693 15.2783 93.8983 14.8424 93.711 13.9533C93.0831 14.3674 91.9727 15.2783 90.7389 15.2783C88.8354 15.2783 87.9762 13.9533 87.9762 12.5042C87.9762 11.5737 88.3948 10.8066 89.818 10.3707C91.3668 9.89568 93.2285 9.39883 93.7308 8.90197V7.84507C93.7308 6.3131 93.0413 5.60922 91.9727 5.60922C90.9042 5.60922 90.1948 6.29131 90.0053 7.84507C89.9634 8.1349 89.8577 8.25911 89.4611 8.25911C89.0645 8.25911 88.3309 8.01069 88.3309 7.38962C88.3309 6.39591 89.8995 5.23658 92.182 5.23658C95.1739 5.23658 95.4471 6.72715 95.4471 7.88647V12.7308L95.4493 12.733ZM93.733 9.37922C93.2924 9.66905 92.2062 10.0221 91.4109 10.3315C90.3446 10.7042 89.9238 11.2838 89.9238 12.2165C89.9238 13.3541 90.6354 14.4327 91.8493 14.4327C92.583 14.4327 93.733 14.0797 93.733 12.5478V9.37922Z" fill="white"/>
<path d="M41.9321 25.734C41.5135 24.0778 40.7799 23.0841 39.3985 23.0841C38.4159 23.0841 37.7241 23.7684 37.7241 24.7817C37.7241 25.9824 38.667 26.3769 39.8369 26.7691C41.8264 27.473 42.9147 27.9699 42.9147 29.6892C42.9147 31.4086 41.4276 32.7118 39.0834 32.7118C37.8695 32.7118 36.9706 32.3805 36.3008 32.0689L36.0915 29.2338H36.4683C36.8648 30.89 37.7439 32.3195 39.3148 32.3195C40.3613 32.3195 41.3042 31.7812 41.3042 30.5587C41.3042 29.4408 40.4251 28.9025 39.1914 28.4667C37.5368 27.9284 36.2193 27.266 36.2193 25.6512C36.2193 23.788 37.6007 22.6701 39.6937 22.6701C40.6983 22.6701 41.6611 22.9381 42.2692 23.2279V25.734H41.9321Z" fill="white"/>
<path d="M51.5181 32.4633L51.3308 31.2016C50.6611 31.657 49.4251 32.7118 47.7507 32.7118C46.2856 32.7118 45.0716 32.0297 45.0716 29.7917V24.5333C45.0716 23.7466 44.9659 23.6006 44.338 23.4785L43.8357 23.3739V23.0427L46.8077 22.7333L46.8716 22.7943V29.6892C46.8716 31.2016 47.7088 31.8423 48.8611 31.8423C49.8657 31.8423 50.7646 31.45 51.1832 30.5805C51.2868 30.3735 51.3507 29.9594 51.3507 29.3994V24.5333C51.3507 23.8294 51.2669 23.6224 50.639 23.5178L50.053 23.4154V23.0841L53.1088 22.7333L53.1507 22.7943V30.8071C53.1507 31.8423 53.1925 31.9469 54.4704 32.0689V32.4633H51.5181Z" fill="white"/>
<path d="M63.0715 30.1665C63.0715 31.3868 63.3007 31.7595 63.6576 31.8423C63.8867 31.9055 64.2018 31.9469 64.475 31.8837L64.497 32.1321C64.0145 32.4415 63.4703 32.7118 62.6331 32.7118C61.7959 32.7118 61.5249 32.2759 61.3354 31.3868C60.7075 31.8009 59.5993 32.7118 58.3634 32.7118C56.4598 32.7118 55.6006 31.3868 55.6006 29.9377C55.6006 29.0071 56.0192 28.2401 57.4424 27.8042C58.9913 27.3292 60.8551 26.8323 61.3553 26.3355V25.2786C61.3553 23.7466 60.6657 23.0427 59.5971 23.0427C58.5286 23.0427 57.817 23.7248 57.6297 25.2786C57.5878 25.5684 57.4821 25.6926 57.0855 25.6926C56.6889 25.6926 55.9553 25.4442 55.9553 24.8231C55.9553 23.8294 57.524 22.6701 59.8064 22.6701C62.7983 22.6701 63.0715 24.1606 63.0715 25.32V30.1665ZM61.3553 26.8127C60.9146 27.1025 59.8285 27.4556 59.0331 27.765C57.9668 28.1376 57.546 28.7173 57.546 29.65C57.546 30.7875 58.2576 31.8662 59.4716 31.8662C60.2052 31.8662 61.3553 31.5132 61.3553 29.9812V26.8127Z" fill="white"/>
<path d="M74.1843 29.918C73.5564 31.3672 72.4042 32.7139 70.9412 32.7139C69.8727 32.7139 69.6216 31.8858 69.8948 30.7461L72.6157 19.8764C72.8051 19.1311 72.7214 18.9872 72.2191 18.9437L71.1087 18.7977L71.2122 18.3422L74.7924 17.8868L74.8981 17.9696L71.7168 30.5783C71.5493 31.2212 71.5493 31.6352 71.8644 31.6352C72.3469 31.6352 73.2678 30.4541 73.7062 29.5846L74.1865 29.9159L74.1843 29.918Z" fill="white"/>
<path d="M85.7179 22.6919L83.6249 30.6001C83.4575 31.2016 83.4156 31.6352 83.8122 31.6352C84.3365 31.6352 85.2773 30.3103 85.6761 29.5846L86.1585 29.9159C85.4668 31.365 84.2748 32.7118 82.8296 32.7118C81.7831 32.7118 81.5319 31.8837 81.9086 30.5587L82.4947 28.5299H82.4528C81.2587 30.7875 79.2913 32.7118 77.3877 32.7118C75.8191 32.7118 75.6494 31.4064 76.068 29.8548L77.4076 24.7425C77.575 24.1432 77.597 23.8534 77.1145 23.8098L75.9204 23.727L76.024 23.2301L79.646 22.6919L79.7517 22.7747L77.868 29.9377C77.575 31.0556 77.7204 31.5938 78.3285 31.5938C79.8575 31.5938 81.6354 28.9636 82.4947 26.9979C82.9772 25.8582 83.3319 24.9277 83.9179 22.9185L85.7179 22.6919Z" fill="white"/>
<path d="M93.5458 22.9185C94.1098 22.9185 95.2819 22.9185 95.5969 22.8161L95.8062 23.1887C93.9005 25.1957 90.5935 28.3839 88.7318 30.4541V30.4955C89.1725 30.5369 89.8621 30.6611 90.6993 30.9096C91.2236 31.0752 91.9551 31.2408 92.3935 31.2408C93.2528 31.2408 94.2993 30.6829 95.0307 29.005L95.5551 29.273C94.947 31.0752 93.5039 32.8142 91.9551 32.8142C91.2853 32.8142 90.6574 32.6268 89.9458 32.3587C88.8795 31.9447 88.419 31.8009 88.0621 31.8009C87.6016 31.8009 87.183 32.0275 86.868 32.4415C86.8481 32.4829 86.8041 32.5658 86.7204 32.5658C86.5948 32.5658 86.511 32.4415 86.511 32.2127C86.511 31.9033 86.7204 31.5503 87.139 31.0752C89.232 28.7347 91.1774 26.7887 93.6471 24.3263V24.3066H90.1947C89.232 24.3066 88.6657 25.0933 88.0378 26.2112L87.5355 26.0042C87.9762 24.6597 88.8949 23.2083 89.232 22.8161C89.7123 22.8793 90.1948 22.9185 91.1774 22.9185H93.5458Z" fill="white"/>
<path d="M9.79889 26.889C9.6733 26.8214 9.67551 26.8214 9.75703 26.7103C9.77685 26.682 9.78346 26.6427 9.79668 26.6079C9.91786 26.6514 9.97955 26.6188 9.99056 26.4858C9.99937 26.3878 9.99056 26.2897 9.99056 26.2004C9.92887 26.3071 9.86498 26.4183 9.79889 26.5316C9.77906 26.4836 9.76143 26.4357 9.7394 26.3856C9.85837 26.2984 9.89803 26.1568 9.82092 26.0522C9.90023 26.026 9.93328 25.9911 9.90464 25.8931C9.88701 25.8342 9.92667 25.7514 9.95972 25.6882C9.99497 25.6142 10.05 25.551 10.0985 25.4834C10.147 25.4158 10.1955 25.3483 10.2461 25.2807C10.3387 25.1609 10.3276 25.1195 10.1866 25.0519C9.89803 24.9146 9.61162 24.773 9.3208 24.6401C9.05642 24.518 8.78763 24.4069 8.52545 24.2827C8.28751 24.1694 8.05398 24.0451 7.81603 23.9296C7.62876 23.8359 7.43709 23.7531 7.25202 23.6529C7.10661 23.5744 6.97002 23.4807 6.82901 23.3957C6.76072 23.3543 6.68801 23.3195 6.61531 23.2846C6.35974 23.1626 6.15925 22.9599 5.9191 22.8117C5.73844 22.7006 5.55558 22.5938 5.37933 22.4761C5.28459 22.4129 5.19867 22.3345 5.10834 22.2647C4.95632 22.1514 4.8021 22.0403 4.65228 21.9248C4.62805 21.9052 4.62584 21.8616 4.60822 21.8311C4.59941 21.8115 4.58398 21.794 4.56636 21.7831C4.45179 21.7069 4.33062 21.6393 4.22046 21.5565C4.14115 21.4977 4.06624 21.4258 4.00455 21.3473C3.92744 21.2471 3.86795 21.1381 3.74458 21.0706C3.67628 21.0335 3.65425 20.9202 3.60578 20.8461C3.54629 20.7567 3.4802 20.6696 3.4163 20.5824C3.36563 20.517 3.31276 20.4517 3.25768 20.3885C3.20039 20.3231 3.12989 20.2664 3.07922 20.1967C3.00872 20.0986 2.95804 19.9897 2.89195 19.8894C2.84128 19.8153 2.77298 19.7543 2.7201 19.6824C2.64299 19.5734 2.56588 19.4623 2.49979 19.3468C2.41606 19.203 2.29048 19.1333 2.13626 19.0918C2.06135 19.0722 1.99085 19.0417 1.92035 19.0112C1.83883 18.9742 1.8124 18.9044 1.84104 18.8173C1.96882 18.8783 2.09661 18.9415 2.22439 19.0047L2.24862 18.9916C2.21117 18.9262 2.17372 18.8609 2.13406 18.7955C2.04153 18.6408 1.94238 18.4904 1.85205 18.3335C1.69343 18.0502 1.52819 17.7691 1.38498 17.4749C1.24178 17.1785 1.12501 16.8669 0.992817 16.564C0.924519 16.4049 0.845205 16.2502 0.77911 16.0889C0.686577 15.8667 0.594043 15.6422 0.516932 15.4156C0.446431 15.2085 0.386946 14.9972 0.331866 14.7836C0.276787 14.5635 0.239333 14.339 0.186457 14.1189C0.131378 13.8945 0.15341 13.6526 0.0256257 13.4478C0.016813 13.4347 0.016813 13.4151 0.016813 13.3976C-0.0162345 12.9836 -0.000812337 12.5717 0.0652828 12.162C0.0652828 12.1511 0.0718923 12.1402 0.0696891 12.1315C0.00579718 11.918 0.0873145 11.7131 0.115956 11.5061C0.151206 11.2468 0.193067 10.9875 0.232724 10.7303C0.267974 10.4906 0.307631 10.2531 0.336273 10.0134C0.358304 9.83249 0.400165 9.64508 0.378133 9.46856C0.360507 9.30512 0.435415 9.18309 0.470666 9.04362C0.492698 8.95428 0.486088 8.85839 0.494901 8.76469C0.497104 8.73418 0.499307 8.70149 0.510323 8.67534C0.600653 8.47268 0.699796 8.27219 0.785719 8.06517C0.884862 7.82546 0.975192 7.58357 1.06993 7.34168C1.07433 7.33296 1.07433 7.32207 1.07874 7.31117C1.1206 7.22618 1.16026 7.14119 1.20652 7.05838C1.26381 6.9516 1.3277 6.84918 1.38718 6.7424C1.47531 6.5855 1.55463 6.42206 1.64936 6.26952C1.7485 6.11262 1.86307 5.96443 1.96662 5.80971C2.05474 5.67896 2.13626 5.53949 2.2288 5.41092C2.31913 5.28453 2.42047 5.16685 2.51961 5.04482C2.62757 4.91406 2.73112 4.77895 2.84568 4.65474C3.01533 4.47169 3.21582 4.31043 3.36563 4.11212C3.57053 3.83973 3.87897 3.6959 4.1081 3.45401C4.2447 3.31018 4.42976 3.2143 4.5928 3.09444C4.71397 3.0051 4.82854 2.90486 4.95191 2.82205C5.07529 2.73924 5.21409 2.67604 5.33747 2.59323C5.4278 2.53221 5.5005 2.44723 5.58643 2.37967C5.62168 2.35134 5.66794 2.33173 5.71201 2.31212C5.8442 2.25328 5.97859 2.1988 6.10858 2.13996C6.25178 2.07458 6.39499 2.01139 6.53379 1.93948C6.63513 1.88717 6.72767 1.81962 6.82461 1.76078C6.86647 1.73681 6.91053 1.7172 6.95459 1.69759C7.14407 1.61042 7.33134 1.51889 7.52521 1.44044C7.75655 1.34892 7.99669 1.27482 8.23023 1.18548C8.37123 1.131 8.50342 1.05473 8.64663 1.00243C8.73476 0.969738 8.84051 0.978455 8.92643 0.941408C9.22166 0.817195 9.53891 0.777969 9.84515 0.701698C9.98175 0.666831 10.1117 0.605814 10.2439 0.56223C10.3144 0.540438 10.3871 0.525184 10.4598 0.514288C10.6625 0.4816 10.8674 0.457629 11.0701 0.422762C11.2023 0.398791 11.3301 0.355207 11.4601 0.333415C11.5724 0.315982 11.687 0.32034 11.8016 0.307265C11.9227 0.29419 12.0439 0.26804 12.1651 0.254965C12.3193 0.237531 12.4735 0.228815 12.6278 0.217919C12.6564 0.215739 12.6828 0.215739 12.7115 0.209202C12.8282 0.185231 12.945 0.154722 13.0618 0.139468C13.1808 0.124214 13.2997 0.126393 13.4187 0.122034C13.5685 0.117676 13.7161 0.117676 13.8659 0.113318C14.0863 0.10678 14.3044 0.093705 14.5247 0.0958842C14.6635 0.0958842 14.8023 0.124214 14.9411 0.137289C14.9741 0.139468 15.0094 0.137289 15.0424 0.137289C15.2297 0.126393 15.4126 0.137289 15.5998 0.169977C15.8025 0.204843 16.0162 0.180872 16.2277 0.180872C16.2542 0.180872 16.2872 0.156901 16.307 0.167797C16.4899 0.250606 16.6904 0.207023 16.8733 0.248427C17.0561 0.292011 17.2368 0.252786 17.4152 0.285473C17.5408 0.309444 17.6642 0.353028 17.7898 0.376999C17.9859 0.414045 18.1819 0.435837 18.378 0.475063C18.53 0.505571 18.6777 0.555692 18.8275 0.594918C18.9971 0.638502 19.1668 0.677727 19.3342 0.727848C19.4532 0.762715 19.5677 0.812836 19.6845 0.854241C19.8762 0.921796 20.0701 0.984992 20.2617 1.05255C20.3829 1.09613 20.5041 1.14407 20.6231 1.19419C20.7641 1.25303 20.9007 1.32712 21.0439 1.37289C21.1606 1.41211 21.2884 1.41865 21.4118 1.4448C21.4625 1.4557 21.5087 1.47531 21.5594 1.4862C21.5947 1.49274 21.6365 1.49928 21.6696 1.48838C21.7467 1.46659 21.7533 1.42519 21.6916 1.37071C21.6145 1.30533 21.533 1.24432 21.4559 1.18112C21.4404 1.16804 21.4338 1.14843 21.4294 1.10049C21.5175 1.11356 21.6123 1.11356 21.6938 1.14625C21.8745 1.21599 22.0463 1.30097 22.2226 1.37942C22.5442 1.52325 22.8725 1.654 23.1853 1.81308C23.4079 1.9264 23.6106 2.0833 23.8243 2.21623C23.9366 2.28597 24.06 2.33827 24.1702 2.41018C24.3068 2.49735 24.4478 2.58234 24.5667 2.69129C24.8091 2.91357 25.0382 3.1511 25.2739 3.37992C25.3907 3.49324 25.5141 3.60219 25.6331 3.71333C25.7146 3.78743 25.8005 3.85934 25.8776 3.93779C26.12 4.19057 26.3403 4.45861 26.5342 4.75063C26.6135 4.8683 26.7082 4.97726 26.7853 5.09712C26.8668 5.22351 26.9373 5.35862 27.01 5.49155C27.1004 5.65717 27.1797 5.82932 27.2766 5.99276C27.3714 6.1562 27.4881 6.30874 27.5829 6.47218C27.66 6.60293 27.7173 6.74676 27.7834 6.88405C27.8561 7.03659 27.9354 7.18696 28.0015 7.34386C28.0455 7.4441 28.0698 7.55088 28.1072 7.65548C28.1711 7.83417 28.2482 8.01069 28.3033 8.19374C28.3606 8.38333 28.4002 8.57728 28.4443 8.76904C28.5082 9.05016 28.5721 9.3291 28.6272 9.61021C28.6558 9.75186 28.6624 9.89786 28.6845 10.0417C28.7131 10.2291 28.7505 10.4165 28.7792 10.6061C28.7968 10.7194 28.8056 10.8371 28.8255 10.9504C28.8519 11.1051 28.9136 11.2599 28.9092 11.4146C28.9048 11.5431 28.929 11.6543 28.9554 11.7741C28.9687 11.8373 28.9356 11.9093 28.9312 11.979C28.9246 12.0553 28.9202 12.1337 28.9224 12.21C28.9224 12.2623 28.9334 12.3168 28.94 12.3909C29.0105 12.4301 29.0061 12.502 28.9819 12.5979C28.9312 12.7984 28.8916 13.0054 28.8651 13.2102C28.8541 13.293 28.8497 13.3737 28.8233 13.4565C28.8056 13.511 28.8321 13.585 28.8563 13.6461C28.9092 13.7768 28.8056 13.8596 28.7682 13.962C28.755 13.9991 28.7395 14.0361 28.7285 14.0732C28.6911 14.2039 28.6536 14.3369 28.6228 14.4698C28.6007 14.5635 28.5897 14.6594 28.5809 14.7553C28.5721 14.8599 28.5479 14.9514 28.495 15.0473C28.3804 15.2587 28.2923 15.4831 28.1954 15.7032C28.1513 15.8013 28.1226 15.9081 28.0698 16.0018C28.0301 16.0693 27.9596 16.1194 27.9089 16.1826C27.8781 16.2219 27.8517 16.2676 27.834 16.3134C27.7635 16.4943 27.6798 16.6642 27.53 16.7993C27.4419 16.8778 27.3868 16.9911 27.3163 17.087C27.3009 17.1088 27.281 17.1371 27.259 17.1437C27.129 17.1785 27.0982 17.2897 27.0563 17.3921C27.0145 17.4967 26.9792 17.6013 26.9395 17.7059C26.9351 17.719 26.9263 17.7364 26.9175 17.7386C26.7479 17.7647 26.7457 17.9565 26.6201 18.0284C26.6091 18.0349 26.6047 18.0611 26.5981 18.0611C26.4769 18.0633 26.4835 18.1897 26.4196 18.2441C26.3711 18.2856 26.3337 18.3422 26.283 18.3814C26.2125 18.4337 26.1354 18.4751 26.1288 18.5754C26.1288 18.5841 26.12 18.5972 26.1112 18.6015C25.9437 18.6822 25.9173 18.8543 25.8402 18.9938C25.8115 19.0461 25.7476 19.0766 25.7058 19.1202C25.5934 19.2444 25.4766 19.3664 25.3731 19.4994C25.2784 19.6214 25.1087 19.7696 25.0096 19.8088C24.9413 19.9199 24.906 20.0071 24.8465 20.0681C24.7165 20.1967 24.5711 20.3122 24.4345 20.4364C24.3817 20.4843 24.3376 20.5432 24.2869 20.5933C24.2693 20.6129 24.2385 20.6412 24.2208 20.6369C24.1217 20.6086 24.1129 20.6957 24.0644 20.7393C23.9719 20.8221 23.9234 20.9594 23.778 20.9768C23.7582 20.979 23.7383 21.003 23.7229 21.0204C23.6216 21.1359 23.496 21.21 23.344 21.2405C23.3087 21.2471 23.2801 21.2885 23.2448 21.3081C23.1942 21.3386 23.1391 21.3626 23.0818 21.3844C23.0311 21.417 22.9782 21.4475 22.9298 21.4824C22.8879 21.5129 22.8505 21.5478 22.8152 21.5827C22.7822 21.6132 22.7535 21.6807 22.7249 21.6785C22.5927 21.6698 22.5376 21.7897 22.4385 21.8311C22.3878 21.8529 22.3393 21.8812 22.2909 21.9204C22.2446 21.9422 22.1961 21.9618 22.1521 21.9858C22.0727 22.0294 21.9978 22.0795 21.9185 22.1166C21.8392 22.1558 21.7511 22.1776 21.6696 22.2168C21.5925 22.2538 21.5264 22.3083 21.4492 22.3432C21.3171 22.4042 21.1783 22.4543 21.0439 22.5153C20.9623 22.5524 20.8852 22.6003 20.8059 22.6417C20.7288 22.681 20.6495 22.7158 20.5724 22.7507C20.5283 22.7703 20.4821 22.7878 20.438 22.8074C20.3895 22.8292 20.3455 22.8597 20.297 22.8706C20.1956 22.8945 20.0921 22.9076 19.9885 22.925C19.9775 22.925 19.9643 22.9338 19.9577 22.9294C19.8586 22.8531 19.8145 22.949 19.7462 22.9904C19.6493 23.0492 19.5479 23.1081 19.44 23.1408C19.2373 23.2018 19.028 23.2432 18.8209 23.2977C18.746 23.3173 18.6733 23.3478 18.6072 23.3848C18.5367 23.4241 18.4706 23.4241 18.3912 23.4284C18.2458 23.4371 18.1048 23.4938 17.9616 23.5374C17.9396 23.5439 17.9286 23.5788 17.911 23.6006C17.7876 23.5635 17.6686 23.5461 17.5386 23.5962C17.4307 23.6376 17.3073 23.6529 17.1905 23.6638C17.1487 23.6681 17.1002 23.6311 17.0451 23.6115C16.9768 23.6921 16.8887 23.6812 16.7851 23.6638C16.6353 23.6376 16.4811 23.642 16.3291 23.6311C16.3225 23.6311 16.3159 23.6311 16.3093 23.6267C16.1176 23.581 15.9237 23.533 15.732 23.4916C15.3575 23.411 14.9807 23.3325 14.604 23.2519C14.485 23.2258 14.3683 23.1865 14.2515 23.1582C14.1149 23.1233 13.9761 23.095 13.8373 23.0623C13.769 23.0449 13.7029 23.0275 13.6368 23.0035C13.4143 22.9229 13.1918 22.84 12.9692 22.7616C12.8723 22.7267 12.7666 22.7093 12.6762 22.6635C12.5374 22.5938 12.3942 22.5197 12.2752 22.4216C12.1673 22.3323 12.088 22.2059 11.9954 22.0969C11.9514 22.0446 11.9051 21.9923 11.8588 21.9422C11.7663 21.8398 11.6826 21.7287 11.579 21.6371C11.4733 21.5434 11.3543 21.4628 11.2331 21.3887C11.1604 21.3451 11.0877 21.3212 11.0966 21.21C11.0988 21.1686 11.0437 21.1098 10.9996 21.0814C10.8322 20.9659 10.7066 20.8199 10.6141 20.6391C10.4863 20.3928 10.3409 20.1531 10.2109 19.909C10.169 19.8306 10.1536 19.7391 10.1183 19.6584C10.0126 19.4253 9.90023 19.1943 9.79448 18.9611C9.7394 18.8369 9.64687 18.7083 9.64907 18.5841C9.65348 18.4359 9.55874 18.3466 9.5279 18.2245C9.48604 18.0589 9.44858 17.8911 9.40672 17.7255C9.40011 17.6972 9.3913 17.6623 9.37147 17.6449C9.28995 17.5751 9.27894 17.4836 9.26131 17.3877C9.23487 17.2374 9.19081 17.0914 9.15556 16.9432C9.15115 16.9214 9.15556 16.8974 9.15115 16.8756C9.13353 16.7536 9.1159 16.6294 9.09387 16.5095C9.07845 16.4223 9.05201 16.3352 9.03218 16.248C9.02557 16.224 9.03218 16.1892 9.01676 16.1805C8.93084 16.1173 8.96389 16.0257 8.96609 15.9516C8.96609 15.8536 8.95507 15.7664 8.88898 15.6923C8.88017 15.6814 8.86474 15.6705 8.86474 15.6596C8.89118 15.4591 8.75679 15.2892 8.75018 15.093C8.74577 14.9993 8.68188 14.9122 8.65544 14.8185C8.64002 14.7662 8.63561 14.7051 8.64883 14.6528C8.67086 14.5635 8.68629 14.485 8.65985 14.3848C8.61578 14.2127 8.61578 14.0274 8.59595 13.8487C8.57613 13.6548 8.60036 13.4565 8.50563 13.2712C8.46377 13.1906 8.45716 13.0838 8.45495 12.9879C8.45055 12.8289 8.46597 12.6698 8.46817 12.5085C8.46817 12.4715 8.46597 12.4279 8.44394 12.4017C8.3448 12.2666 8.40869 12.1381 8.45495 12.0073C8.52105 11.8221 8.60256 11.639 8.64663 11.4494C8.67086 11.347 8.63341 11.2293 8.6268 11.1182C8.62239 11.0507 8.62239 10.9831 8.61799 10.9155C8.61358 10.8502 8.60257 10.7848 8.60036 10.7216C8.59816 10.6671 8.60036 10.6105 8.59375 10.5494C8.60697 10.447 8.61138 10.3446 8.63781 10.2444C8.67527 10.1027 8.72594 9.96324 8.77221 9.82377C8.81187 9.70174 8.85152 9.58406 8.95727 9.49471C9.06303 9.40537 9.15336 9.29423 9.2525 9.19617C9.27233 9.17655 9.30538 9.15694 9.33181 9.15476C9.51908 9.14604 9.67551 9.07413 9.8055 8.93684C9.73059 8.86929 9.65568 8.79955 9.58077 8.732C9.58518 8.72546 9.58738 8.71674 9.59179 8.71021C9.76804 8.77558 9.94209 8.84096 10.1183 8.90633C10.125 8.89326 10.1316 8.878 10.1404 8.86493C10.0919 8.83442 10.0434 8.80173 9.99497 8.77122C9.99937 8.74725 10.0016 8.71892 10.006 8.68841C10.0236 8.69713 10.0523 8.70585 10.0743 8.7211C10.2219 8.81917 10.3981 8.79519 10.5612 8.83006C10.8806 8.89762 11.1803 9.00875 11.4557 9.19398C11.6584 9.33127 11.8831 9.44023 12.11 9.53176C12.4691 9.67777 12.6498 9.95452 12.782 10.2967C12.8635 10.508 12.9913 10.7063 13.1147 10.9003C13.1719 10.9918 13.2645 11.0637 13.346 11.1356C13.3658 11.1531 13.4187 11.1596 13.4429 11.1465C13.7602 10.9766 14.0752 10.7957 14.3947 10.6279C14.6128 10.5124 14.8353 10.4056 15.0601 10.3032C15.3355 10.1768 15.6108 10.0482 15.8929 9.93491C16.0625 9.86518 16.2432 9.82377 16.415 9.76275C16.5846 9.70174 16.7521 9.63418 16.9151 9.56445C17.228 9.42934 17.5607 9.37486 17.8933 9.3073C17.8999 9.3073 17.9088 9.30512 17.9154 9.3073C18.1114 9.36832 18.3075 9.27679 18.5036 9.3073C18.6622 9.33127 18.8209 9.34653 18.9795 9.3705C19.0037 9.37486 19.0346 9.39011 19.0456 9.40973C19.1403 9.60367 19.213 9.7889 19.1624 10.0243C19.1249 10.2008 18.9795 10.2836 18.9244 10.4318C18.8737 10.5669 18.8143 10.6976 18.7702 10.8349C18.7636 10.8589 18.8076 10.9134 18.8407 10.933C18.9244 10.9831 19.0103 11.14 18.9839 11.2359C18.9773 11.2642 18.9442 11.2991 18.9178 11.3034C18.7658 11.3339 18.6887 11.456 18.5873 11.5453C18.5983 11.5497 18.6094 11.554 18.6204 11.5584C18.6094 11.6216 18.5983 11.6848 18.5851 11.7502C18.5741 11.8068 18.5609 11.8635 18.5543 11.9201C18.5455 11.9899 18.5212 12.0378 18.4684 12.0988C18.3472 12.2361 18.1577 12.308 18.1004 12.5151C18.0542 12.6872 17.9616 12.855 17.8559 12.9988C17.7457 13.147 17.5915 13.2625 17.4571 13.3955C17.4417 13.4107 17.4329 13.4325 17.4219 13.4521C17.4174 13.4587 17.4174 13.4652 17.413 13.4717C17.3271 13.5916 17.2434 13.7158 17.1509 13.8291C17.1002 13.8923 17.0165 13.9294 16.9724 13.9969C16.946 14.0383 16.968 14.1102 16.968 14.1625C16.8997 14.193 16.8248 14.2279 16.7499 14.2584C16.7124 14.2737 16.675 14.2889 16.6375 14.3042C16.6155 14.3129 16.5869 14.3216 16.5758 14.339C16.5009 14.448 16.4304 14.5635 16.3533 14.6725C16.3357 14.6964 16.3048 14.7095 16.2652 14.7378C16.2652 14.7487 16.2674 14.7836 16.2718 14.825C16.1969 14.8403 16.1 14.8185 16.0471 14.9056C16.0339 14.9296 16.003 14.947 16.0008 14.971C15.981 15.2151 15.8312 15.3219 15.5976 15.348V15.4308C15.5514 15.457 15.5117 15.4809 15.472 15.5027C15.3355 15.5768 15.2804 15.7032 15.2341 15.8405C15.2275 15.8579 15.1944 15.8863 15.1812 15.8819C15.0909 15.8536 15.0865 15.8884 15.1151 15.9582C15.1217 15.9756 15.1217 16.0061 15.1129 16.0192C15.0336 16.1194 15.0777 16.224 15.0953 16.3286C15.038 16.3635 14.9785 16.3984 14.9191 16.4354C14.7758 16.5226 14.6657 16.5182 14.5313 16.4267C14.4982 16.4027 14.4542 16.3962 14.4145 16.3809C14.4079 16.4202 14.4013 16.4572 14.3925 16.4964C14.3793 16.5596 14.3661 16.625 14.3528 16.6904C14.1568 16.686 14.0202 16.8102 14.0025 17.0085C14.0025 17.0282 14.0025 17.0565 13.9915 17.0696C13.9232 17.1458 13.9166 17.2286 13.9871 17.3354C13.8461 17.2352 13.6941 16.9802 13.6963 16.7797C13.6963 16.5945 13.7073 16.4158 13.7602 16.2328C13.802 16.0868 13.7866 15.9255 13.802 15.7708C13.8109 15.6749 13.9959 15.4897 14.0885 15.457C14.214 15.4134 14.3286 15.348 14.3881 15.2173C14.4476 15.0821 14.5049 14.9449 14.571 14.8141C14.5974 14.7618 14.6304 14.703 14.6767 14.6768C14.7869 14.6158 14.8508 14.5199 14.9235 14.4262C14.9477 14.3935 15.005 14.3848 15.0579 14.3587C15.1328 14.3107 15.2121 14.2388 15.3068 14.2018C15.4897 14.132 15.6108 13.9882 15.7563 13.8771C15.8466 13.8073 15.9523 13.7594 16.0383 13.6875C16.1176 13.6221 16.1881 13.5436 16.252 13.463C16.3489 13.341 16.4194 13.1971 16.5869 13.1492C16.6111 13.1427 16.6397 13.1187 16.6485 13.0969C16.7036 12.9596 16.8028 12.8637 16.9239 12.7875C16.9305 12.7831 16.9305 12.77 16.935 12.7504C16.9129 12.757 16.8975 12.7591 16.8799 12.7635C16.8953 12.7068 16.9019 12.6502 16.99 12.6763C17.0363 12.6894 17.2654 12.38 17.239 12.3386C17.2148 12.3037 17.1663 12.2841 17.1156 12.2514C17.1729 12.125 17.2412 11.9877 17.2941 11.8439C17.3447 11.7044 17.38 11.5562 17.4307 11.3862C17.3073 11.4233 17.2081 11.4516 17.1112 11.4843C16.7631 11.6042 16.4172 11.7262 16.0713 11.8526C15.9722 11.8875 15.8818 11.9441 15.7849 11.9833C15.4875 12.101 15.1878 12.21 14.8926 12.332C14.7626 12.3865 14.6415 12.4628 14.5137 12.526C14.4652 12.5499 14.4101 12.5565 14.3594 12.5761C14.3264 12.587 14.2934 12.6001 14.2669 12.6218C14.1854 12.685 14.0995 12.7482 14.0246 12.8202C13.9695 12.8725 13.9386 12.9509 13.8814 12.9967C13.7712 13.086 13.6412 13.1557 13.5311 13.2451C13.4451 13.3126 13.3746 13.3998 13.2975 13.4783C13.2843 13.4913 13.2689 13.5044 13.2535 13.5153C13.183 13.5654 13.1389 13.6352 13.1543 13.718C13.1697 13.8117 13.1279 13.8335 13.053 13.8248C12.9781 13.816 12.8987 13.8095 12.8282 13.7812C12.7379 13.7441 12.6035 13.7419 12.6057 13.7942C12.6101 13.8727 12.6388 13.962 12.685 14.0252C12.7137 14.0645 12.7952 14.0666 12.8503 14.0841C12.7005 14.1255 12.7005 14.1277 12.5683 14.0972C12.4713 14.0732 12.3744 14.0449 12.2995 14.0252C12.3083 13.9729 12.3105 13.9315 12.3259 13.8945C12.3458 13.8444 12.3722 13.7986 12.3986 13.7441C12.262 13.7071 12.2092 13.5938 12.1893 13.4543C12.1893 13.4434 12.1717 13.4347 12.1629 13.4238C12.121 13.3715 12.0814 13.3192 12.0219 13.2429C11.9536 13.2429 11.9404 13.1841 11.969 13.0926C11.9756 13.0708 11.9624 13.0359 11.947 13.0141C11.8544 12.8768 11.7575 12.7417 11.6628 12.6044C11.6518 12.587 11.6473 12.5674 11.6407 12.5478C11.6231 12.4867 11.5879 12.4693 11.5306 12.5042H11.5328C11.4821 12.3538 11.4402 12.1991 11.3808 12.0509C11.3411 11.9507 11.253 11.8896 11.1538 11.8461C10.9578 11.7567 10.7595 11.6695 10.5634 11.5824C10.548 11.5758 10.5325 11.5715 10.5215 11.5671C10.4841 11.626 10.451 11.6804 10.418 11.7327C10.3827 11.7916 10.3431 11.8482 10.4334 11.9027C10.31 11.9049 10.3012 12.0117 10.266 12.077C10.2285 12.1468 10.2241 12.2339 10.2109 12.3124C10.1624 12.5848 10.1183 12.8572 10.0721 13.1318C10.0699 13.147 10.0787 13.1645 10.0875 13.2059C10.18 13.0686 10.1624 12.8812 10.3387 12.8332C10.2726 13.1623 10.2307 13.4979 10.2593 13.8465C10.3871 13.657 10.3232 13.4172 10.4664 13.2146C10.4444 13.4064 10.4268 13.5676 10.407 13.7289C10.3937 13.8335 10.3849 13.9359 10.3673 14.0405C10.3585 14.0993 10.3299 14.156 10.3254 14.2148C10.3122 14.411 10.3783 14.5962 10.4334 14.7792C10.44 14.7989 10.4554 14.8206 10.4532 14.8381C10.418 15.032 10.5237 15.1366 10.6868 15.2042C10.6669 15.2717 10.7396 15.3742 10.8476 15.4047C10.9115 15.4221 10.9401 15.4482 10.9688 15.5093C10.993 15.5637 11.0723 15.5921 11.1208 15.6378C11.2023 15.7119 11.275 15.7947 11.3587 15.8645C11.4028 15.9037 11.4601 15.9277 11.513 15.956C11.5372 15.9691 11.5746 15.9713 11.5857 15.9909C11.6584 16.1238 11.8016 16.1652 11.9139 16.2458C11.98 16.2916 12.0285 16.3613 12.0946 16.4093C12.1541 16.4529 12.2246 16.4834 12.2907 16.5204C12.2995 16.5139 12.3083 16.5052 12.3171 16.4986C12.2929 16.4398 12.2664 16.3788 12.2466 16.3308C12.3061 16.357 12.3766 16.3875 12.4361 16.4158C12.5198 16.5487 12.63 16.6773 12.6828 16.8277C12.7137 16.917 12.782 16.9519 12.826 17.0173C12.8371 17.0325 12.8679 17.0347 12.8877 17.0434C12.8921 17.0216 12.9076 16.9998 12.9032 16.9802C12.8943 16.9454 12.8767 16.9105 12.8613 16.8778C12.8547 16.8647 12.8393 16.8582 12.8349 16.8451C12.7952 16.7209 12.7577 16.5945 12.7159 16.4681C12.6872 16.3809 12.6586 16.2938 12.6211 16.211C12.5969 16.1543 12.5551 16.1064 12.5154 16.0453C12.5727 16.0453 12.6476 16.1521 12.6652 16.017C12.7555 16.065 12.7908 16.1499 12.7842 16.2349C12.7732 16.3679 12.8459 16.4725 12.8921 16.5792C13.0067 16.8407 13.1411 17.0935 13.2777 17.3441C13.335 17.4509 13.4121 17.549 13.4958 17.6383C13.5509 17.6972 13.6346 17.7255 13.7205 17.6841C13.8329 17.8257 13.943 17.9739 14.0642 18.1112C14.1413 18.1984 14.2074 18.2899 14.3374 18.3291C14.4299 18.3575 14.4938 18.4533 14.5357 18.5623C14.5754 18.6647 14.6767 18.7475 14.7648 18.8238C14.864 18.9088 14.9763 18.9829 15.0865 19.0548C15.1438 19.0918 15.2077 19.1202 15.2694 19.1463C15.4192 19.2052 15.5668 19.264 15.721 19.3098C15.7673 19.325 15.8268 19.2989 15.8708 19.2945C15.9127 19.3141 15.9523 19.3294 15.992 19.349C16.0074 19.3555 16.0317 19.3621 16.0339 19.373C16.0625 19.5168 16.1903 19.5822 16.2806 19.6737C16.3401 19.7369 16.4128 19.7914 16.4899 19.8328C16.5913 19.8873 16.6596 19.9679 16.7345 20.0485C16.7697 20.0856 16.816 20.1117 16.8622 20.1335C16.9702 20.1858 17.0804 20.2381 17.1949 20.2795C17.2346 20.2948 17.2941 20.2904 17.3315 20.2708C17.4108 20.2316 17.5695 20.3078 17.5849 20.395C17.5915 20.4299 17.6245 20.4604 17.6466 20.4931C17.6973 20.4408 17.7325 20.4037 17.7655 20.3689C17.7722 20.3754 17.781 20.3819 17.7876 20.3885C17.77 20.4059 17.7545 20.4255 17.7413 20.4386C17.7722 20.5018 17.7876 20.5737 17.8316 20.6086C17.911 20.6739 18.0079 20.7132 18.1203 20.7088C18.2547 20.7044 18.3868 20.7044 18.5212 20.6979C18.5433 20.6979 18.5609 20.6652 18.5697 20.6587C18.7261 20.6718 18.8804 20.6718 19.0302 20.7023C19.1447 20.7241 19.1976 20.6783 19.2395 20.5977C19.2923 20.6086 19.3408 20.6173 19.3893 20.626C19.4333 20.4778 19.484 20.4517 19.5677 20.5388C19.7087 20.4451 19.852 20.4691 20.0084 20.517C20.0855 20.541 20.1846 20.5083 20.2683 20.4865C20.3829 20.456 20.4821 20.371 20.612 20.3928C20.6341 20.3972 20.6605 20.3885 20.6847 20.3797C20.8213 20.3231 20.9535 20.2642 21.0901 20.212C21.121 20.1989 21.165 20.1967 21.1959 20.2054C21.3215 20.2403 21.4537 20.1596 21.4669 20.0333C21.4772 19.9359 21.4316 19.8843 21.3303 19.8785C21.3171 19.8785 21.3038 19.8785 21.2884 19.8764C21.3721 19.7805 21.425 19.7652 21.6519 19.7674C21.6718 19.6214 21.8018 19.6977 21.8833 19.6563C21.9075 19.6933 21.9295 19.7304 21.9736 19.7979C21.9956 19.7587 22.0111 19.7347 22.0309 19.6998C22.1366 19.8023 22.2468 19.763 22.3349 19.6824C22.3636 19.6563 22.3393 19.5713 22.3327 19.5146C22.401 19.349 22.5751 19.3446 22.7161 19.288C22.824 19.2466 22.9408 19.227 23.051 19.1921C23.0686 19.1856 23.0862 19.1507 23.0862 19.1289C23.0862 19.0875 23.0708 19.0483 23.0576 18.9785H23.3043C23.2911 18.948 23.2801 18.9219 23.2647 18.8848C23.3263 18.85 23.3836 18.8064 23.4497 18.778C23.4982 18.7563 23.5753 18.7955 23.5995 18.7127C23.615 18.6582 23.6282 18.6037 23.6458 18.5362C23.6921 18.5449 23.745 18.5536 23.7934 18.5601C23.886 18.3836 24.1349 18.3313 24.1503 18.1047C24.2671 18.1199 24.353 18.0458 24.3905 17.9238C24.4015 17.8911 24.4632 17.8693 24.505 17.8563C24.5557 17.8388 24.58 17.8214 24.5954 17.7647C24.6152 17.6776 24.6791 17.6209 24.7959 17.6427C24.7871 17.5947 24.7804 17.5512 24.7782 17.5381C24.8708 17.4073 24.9523 17.2897 25.036 17.1742C25.047 17.1589 25.0713 17.1524 25.0845 17.1393C25.1263 17.0979 25.1704 17.0543 25.2101 17.0085C25.2828 16.9236 25.3533 16.8364 25.4238 16.7492C25.4524 16.7144 25.4788 16.6751 25.5053 16.6381C25.6022 16.5008 25.697 16.3591 25.7983 16.224C25.8402 16.1674 25.8908 16.1151 25.9459 16.0671C26.0759 15.956 26.1949 15.8383 26.2345 15.664C26.2389 15.6422 26.2544 15.6182 26.272 15.6008C26.5452 15.3524 26.6487 15.0037 26.8007 14.6877C26.8712 14.5417 26.8823 14.3674 26.9175 14.2061C26.9373 14.1146 26.9506 14.0209 26.9682 13.9294C26.9748 13.901 26.9968 13.8749 27.0012 13.8487C27.0056 13.7986 27.0122 13.7463 26.9968 13.7005C26.9924 13.6853 26.9263 13.6875 26.8867 13.6853C26.8624 13.6853 26.836 13.6853 26.836 13.6853C26.8514 13.3628 26.8911 13.0511 26.8779 12.7395C26.8624 12.3843 26.814 12.0291 26.7545 11.6783C26.7082 11.4037 26.6201 11.1356 26.5562 10.8632C26.5011 10.6366 26.4659 10.4056 26.3976 10.1855C26.3227 9.9458 26.2191 9.71699 26.1244 9.48382C26.0429 9.28333 25.9591 9.08067 25.8688 8.88454C25.8203 8.78212 25.7542 8.68624 25.7014 8.58599C25.5956 8.38551 25.5009 8.17848 25.3885 7.98454C25.2585 7.76008 25.1087 7.54652 24.9699 7.32642C24.917 7.24144 24.8708 7.15209 24.8113 7.07146C24.776 7.02352 24.7165 6.99301 24.6813 6.94507C24.6328 6.88405 24.6042 6.80996 24.5557 6.74676C24.4566 6.61819 24.3574 6.48962 24.2473 6.36976C24.0203 6.11915 23.7934 5.86637 23.5511 5.62884C23.3175 5.40002 23.0796 5.17557 22.791 5.00995C22.5685 4.88356 22.357 4.73755 22.1344 4.61334C21.9163 4.49348 21.6916 4.38888 21.4691 4.27774C21.1606 4.1252 20.8544 3.96612 20.5437 3.82229C20.4204 3.76563 20.2794 3.74384 20.1494 3.6959C20.0172 3.64796 19.8894 3.58694 19.7572 3.53246C19.5061 3.43222 19.2549 3.33415 19.0037 3.23391C18.9509 3.2143 18.8914 3.20558 18.8473 3.17507C18.5961 2.9942 18.2921 2.95498 18.0079 2.86781C17.8515 2.81987 17.6796 2.81987 17.5166 2.78718C17.2302 2.73052 16.9482 2.66079 16.6618 2.60849C16.5053 2.58016 16.3445 2.57798 16.1859 2.56054C16.0118 2.54093 15.84 2.50824 15.6659 2.49517C15.5029 2.48427 15.3355 2.49517 15.1724 2.48863C14.9411 2.47773 14.712 2.45376 14.4828 2.44505C14.2559 2.43633 14.029 2.43633 13.802 2.44069C13.4561 2.44941 13.108 2.4603 12.7621 2.47991C12.5903 2.48863 12.4207 2.51914 12.251 2.54529C11.8236 2.61067 11.394 2.67386 10.9688 2.75013C10.7749 2.785 10.5876 2.85038 10.3959 2.89832C10.2549 2.93318 10.1117 2.96805 9.96633 2.99638C9.62704 3.06176 9.29656 3.15764 8.9771 3.29057C8.73476 3.39081 8.47919 3.45837 8.23243 3.54771C8.06058 3.61091 7.89314 3.68718 7.7235 3.75692C7.70808 3.76345 7.69266 3.77217 7.67503 3.77871C7.49878 3.85498 7.31812 3.91164 7.15288 4.0206C7.00967 4.11648 6.83562 4.1666 6.6814 4.24723C6.54701 4.31915 6.41922 4.40413 6.29144 4.48912C6.07994 4.62641 5.86623 4.76152 5.66133 4.90535C5.51813 5.00777 5.38814 5.1298 5.24714 5.2344C5.20087 5.26927 5.13478 5.27363 5.07749 5.29542C5.04885 5.30632 5.0092 5.31939 4.99598 5.34336C4.86819 5.55257 4.6677 5.68985 4.48704 5.84893C4.32401 5.99276 4.16318 6.13659 4.00235 6.28259C3.80186 6.46564 3.59476 6.64216 3.40529 6.83611C3.26208 6.98211 3.12769 7.14337 3.01533 7.31553C2.83907 7.58575 2.68045 7.86686 2.52622 8.15016C2.37641 8.42691 2.2332 8.70803 2.10321 8.99568C2.01068 9.2027 1.94679 9.42062 1.86748 9.63418C1.84765 9.6843 1.8168 9.73224 1.80358 9.78454C1.75511 9.96542 1.70885 10.1485 1.66699 10.3315C1.64936 10.4056 1.64275 10.4797 1.63394 10.556C1.6075 10.7652 1.58106 10.9744 1.55683 11.1836C1.53259 11.3819 1.49073 11.5802 1.48853 11.7785C1.48853 11.9114 1.42023 12.0487 1.49955 12.1838C1.52158 12.2231 1.50395 12.2863 1.50616 12.3386C1.51056 12.5085 1.52819 12.6763 1.51937 12.8441C1.50616 13.062 1.58767 13.2603 1.61411 13.4695C1.62072 13.5153 1.6053 13.5633 1.60089 13.5959C1.66478 13.7114 1.70885 13.8291 1.78816 13.9163C1.86748 14.0034 1.96662 14.0754 2.0239 14.18L1.97984 14.2214C1.89391 14.1298 1.81019 14.0383 1.70224 13.925C1.71105 14.0209 1.70003 14.1015 1.72427 14.1669C1.79257 14.3478 1.78596 14.5461 1.8829 14.7226C1.97984 14.8969 2.04373 15.0887 2.11864 15.2761C2.17372 15.4112 2.21337 15.5507 2.27727 15.6792C2.31692 15.7599 2.38742 15.8274 2.47114 15.8928V15.7337C2.47114 15.7337 2.48657 15.7337 2.49538 15.7337C2.54825 15.919 2.59232 16.1085 2.65621 16.2894C2.68926 16.3831 2.7157 16.4768 2.79721 16.5575C2.86992 16.6315 2.89415 16.7536 2.93601 16.856C3.00431 17.0238 3.08803 17.1785 3.25107 17.2701C3.26208 17.2657 3.27089 17.2592 3.28191 17.2548C3.25327 17.1872 3.22903 17.1175 3.19378 17.0521C3.16074 16.9933 3.10345 16.9475 3.07481 16.8865C3.03956 16.8146 3.02414 16.7362 3.01312 16.6512C3.07261 16.7558 3.12989 16.8604 3.19158 16.9628C3.20921 16.9911 3.22903 17.0173 3.24666 17.0456C3.32818 17.1611 3.39868 17.2875 3.49562 17.3877C3.57934 17.4749 3.60357 17.5642 3.63221 17.6776C3.66747 17.8257 3.73136 17.9783 3.86575 18.0872C3.92744 18.1374 3.9693 18.2158 4.02879 18.2943C4.01336 18.4664 4.03319 18.4969 4.20944 18.5536C4.28215 18.5776 4.35265 18.5994 4.38349 18.6865C4.39451 18.7214 4.44298 18.741 4.46942 18.7715C4.50026 18.8064 4.54873 18.8456 4.55094 18.887C4.55534 18.9807 4.61703 19.0156 4.68313 19.057C4.71177 19.0744 4.7338 19.1049 4.75803 19.1289C4.72719 19.155 4.69635 19.1834 4.6633 19.2095C4.65449 19.2161 4.64567 19.2204 4.63686 19.2248C4.63466 19.2313 4.63025 19.2379 4.63025 19.2444C4.64127 19.2923 4.65449 19.3403 4.6677 19.3882C4.61923 19.3839 4.57077 19.3817 4.52229 19.3708C4.46722 19.3599 4.41214 19.3316 4.35706 19.3272C4.33062 19.325 4.29317 19.3512 4.27774 19.3751C4.26673 19.3926 4.27774 19.4274 4.28215 19.4667C4.2469 19.4144 4.22046 19.373 4.19182 19.3316C4.15657 19.2814 4.11691 19.264 4.04861 19.2836C3.98472 19.3032 3.91202 19.2923 3.84372 19.288C3.77762 19.2836 3.71153 19.2705 3.65425 19.2618C3.66967 19.2139 3.71593 19.1507 3.69831 19.1158C3.67407 19.0679 3.60578 19.0374 3.5507 19.0134C3.46918 18.9764 3.38105 18.9524 3.29733 18.9219C3.28852 18.9306 3.27971 18.9393 3.27089 18.948C3.54188 19.2509 3.81067 19.5538 4.08166 19.8567L4.05963 19.8742C4.03319 19.8698 4.00675 19.8655 3.98032 19.8589C3.97591 19.9156 3.9715 19.9635 3.96489 20.0398C4.22927 20.2664 4.50687 20.5061 4.77786 20.7393C4.82854 20.7066 4.86819 20.6914 4.89243 20.663C4.91887 20.6347 4.9431 20.5955 4.94751 20.5584C4.94751 20.541 4.90565 20.5083 4.87701 20.5018C4.77786 20.4756 4.67872 20.4582 4.57958 20.432C4.53772 20.4212 4.50026 20.4015 4.46942 20.3623C4.58839 20.3906 4.70956 20.419 4.82854 20.4473C4.89463 20.4626 4.96073 20.4822 5.02902 20.4931C5.04885 20.4952 5.0797 20.48 5.09071 20.4626C5.09953 20.4473 5.09292 20.4168 5.0819 20.3972C5.05767 20.3514 5.02682 20.31 5.0114 20.2534C5.28679 20.4233 5.56219 20.5933 5.83759 20.7633C6.03587 20.8853 6.23196 21.0095 6.42583 21.1359C6.48312 21.173 6.53159 21.2514 6.59107 21.258C6.71445 21.2754 6.80258 21.3408 6.89952 21.4018C7.06035 21.5042 7.22338 21.6088 7.38642 21.7091C7.64639 21.8703 7.90857 22.0272 8.17074 22.1863C8.34259 22.2887 8.51224 22.3933 8.68849 22.487C8.91762 22.6091 9.15115 22.7246 9.38689 22.8379C9.62704 22.9534 9.86939 23.0645 10.1117 23.1713C10.3849 23.2933 10.6669 23.4023 10.9379 23.5308C11.1825 23.6463 11.4204 23.7815 11.6606 23.9078C11.6826 23.9187 11.7024 23.9296 11.7509 23.9536C11.7333 23.9057 11.7223 23.8839 11.7178 23.8599C11.7112 23.8185 11.7068 23.7771 11.7024 23.7357C11.7443 23.7509 11.7883 23.7662 11.8302 23.7836C11.8809 23.8054 11.9316 23.8294 11.98 23.8555C12.0615 23.8991 12.0924 23.8512 12.1056 23.7945C12.3788 23.7836 12.37 24.0233 12.4647 24.1715C12.4978 24.2217 12.5484 24.2609 12.5771 24.3132C12.5991 24.3524 12.6167 24.4069 12.6079 24.4461C12.5683 24.6095 12.5242 24.7752 12.4713 24.9342C12.4405 25.0236 12.3964 25.1108 12.348 25.1936C12.2951 25.2786 12.2268 25.3548 12.1695 25.4376C12.121 25.5074 12.0924 25.5836 11.9954 25.6207C11.9426 25.6425 11.9139 25.7253 11.8544 25.8081C11.947 25.8081 12.0065 25.8103 12.0637 25.8081C12.24 25.7972 12.4163 25.7623 12.5925 25.7732C12.934 25.795 13.2755 25.8473 13.617 25.8778C13.8109 25.8953 14.0091 25.8931 14.203 25.9083C14.2956 25.9149 14.3837 25.9476 14.474 25.965C14.734 26.0173 14.994 26.0652 15.2539 26.1197C15.4434 26.1589 15.6307 26.2047 15.8224 26.2418C16.0272 26.281 16.2343 26.3071 16.4392 26.3485C16.5648 26.3747 16.686 26.4183 16.8094 26.4531C16.8292 26.4597 16.849 26.464 16.8689 26.4662C17.2214 26.5294 17.5739 26.6209 17.9308 26.6449C18.1313 26.6602 18.3009 26.7277 18.4772 26.7909C18.5234 26.8083 18.5653 26.8541 18.5939 26.8955C18.6402 26.9652 18.6755 27.0263 18.7746 27.0502C18.8605 27.072 18.9332 27.1461 19.0103 27.1984C19.0522 27.2289 19.0897 27.266 19.1315 27.2965C19.1734 27.327 19.2174 27.351 19.2615 27.3771C19.2483 27.3967 19.2373 27.4163 19.224 27.436C19.169 27.4294 19.1139 27.4251 19.0588 27.4163C18.8826 27.388 18.8627 27.3989 18.7966 27.5602C18.7636 27.6408 18.7217 27.6996 18.6292 27.643C18.53 27.7301 18.519 27.826 18.5653 27.9437C18.5455 27.9306 18.5256 27.9175 18.4882 27.8958C18.486 27.9306 18.4772 27.9568 18.4816 27.9786C18.519 28.1355 18.3824 28.4253 18.2282 28.4297C18.063 28.4362 17.9969 28.5452 17.8911 28.6171C17.8581 28.6389 17.803 28.6323 17.7545 28.6389C17.781 28.6694 17.8052 28.6977 17.8272 28.7195C17.7303 28.7805 17.6488 28.8415 17.5562 28.8873C17.5166 28.9069 17.4505 28.9047 17.413 28.8829C17.3073 28.8219 17.2059 28.8481 17.1046 28.8786C17.0848 28.8829 17.0804 28.9374 17.0649 28.981C16.9482 28.9723 16.805 28.9636 16.6618 28.9548C16.6485 28.9548 16.6331 28.9614 16.6243 28.9679C16.5494 29.0289 16.4811 28.9919 16.4326 28.9374C16.3687 28.8655 16.3181 28.8285 16.2365 28.9178C16.2079 28.9483 16.1594 28.9592 16.1374 28.9723C15.9589 28.9505 15.7915 28.9287 15.6351 28.9091C15.5602 29.0638 15.7342 29.066 15.7541 29.1575C15.6858 29.1967 15.6108 29.0398 15.5492 29.1946C15.5668 29.2011 15.5954 29.2098 15.6241 29.2207C15.5249 29.249 15.4478 29.2708 15.3641 29.2948C15.3641 29.3188 15.3663 29.3449 15.3685 29.3732C15.3575 29.3776 15.3487 29.382 15.3465 29.3798C15.2583 29.334 15.1878 29.2469 15.0689 29.2708C15.0556 29.273 15.038 29.249 15.0226 29.236C15.0072 29.2251 14.9918 29.2033 14.9741 29.2033C14.8684 29.1967 14.7604 29.1967 14.6525 29.1902C14.6194 29.1902 14.5864 29.1749 14.5533 29.1684C14.4982 29.1553 14.441 29.1444 14.3859 29.1248C14.3528 29.1139 14.3264 29.0878 14.2956 29.0682C14.2537 29.0398 14.203 28.981 14.17 28.9897C14.073 29.0115 13.9585 28.9919 13.8814 29.0812C13.8637 29.1008 13.8307 29.1139 13.8042 29.1161C13.6522 29.1357 13.5002 29.1531 13.3482 29.1728L13.3416 29.212C13.3746 29.2381 13.4077 29.2621 13.4539 29.297C13.476 29.2665 13.4958 29.2381 13.5134 29.2098C13.5134 29.2207 13.5178 29.2338 13.52 29.2447C13.6302 29.2599 13.7426 29.273 13.8527 29.2904C13.9078 29.3013 13.9651 29.3166 14.0158 29.3406C14.0995 29.382 14.1766 29.358 14.2096 29.2447C14.2383 29.2926 14.2559 29.3209 14.2779 29.3558C14.3264 29.3667 14.3859 29.3841 14.4476 29.3972C14.6194 29.4364 14.7891 29.4822 14.9631 29.5127C15.049 29.528 15.1394 29.5084 15.2275 29.5127C15.2583 29.5127 15.2914 29.5258 15.3178 29.541C15.3531 29.5628 15.3839 29.5912 15.417 29.6173C15.417 29.6064 15.4214 29.5955 15.4236 29.5825C15.4919 29.5868 15.5624 29.5933 15.6307 29.5933C15.7849 29.5933 15.9061 29.7067 16.0735 29.6914C16.2167 29.6805 16.3665 29.7611 16.5141 29.7982C16.6023 29.82 16.6904 29.8352 16.7785 29.857C16.8226 29.8679 16.8645 29.8832 16.9085 29.8941C16.968 29.9115 17.0319 29.9224 17.0892 29.9464C17.1354 29.966 17.1729 30.003 17.2192 30.027C17.2522 30.0444 17.2875 30.0575 17.3227 30.0662C17.5805 30.1229 17.8405 30.1752 18.0982 30.234C18.1665 30.2493 18.2282 30.2972 18.2965 30.3234C18.3296 30.3364 18.367 30.3321 18.4023 30.3343C18.4133 30.3343 18.4287 30.3299 18.4309 30.3343C18.4728 30.4127 18.5543 30.3822 18.616 30.404C18.7724 30.4585 18.92 30.5413 19.072 30.6045C19.1668 30.6437 19.2659 30.6742 19.3628 30.7047C19.4862 30.7461 19.6118 30.7832 19.7352 30.8224C19.744 30.8246 19.755 30.8311 19.7616 30.8377C19.8475 30.9118 19.9335 30.9858 20.0216 31.0578C20.156 31.1667 20.1362 31.365 19.9797 31.45C19.9621 31.4587 19.9423 31.4762 19.9379 31.4936C19.9202 31.5503 19.8828 31.5481 19.8321 31.5612C19.7484 31.5851 19.6669 31.644 19.6008 31.705C19.495 31.803 19.4069 31.9207 19.3012 32.021C19.2417 32.0776 19.1535 32.1038 19.1491 32.204C19.1491 32.2432 19.1381 32.2846 19.1359 32.3108C19.0897 32.35 19.0544 32.3871 19.0103 32.4154C18.9619 32.4481 18.9112 32.4851 18.8583 32.496C18.7239 32.5265 18.7217 32.5222 18.7482 32.6573C18.6116 32.69 18.497 32.6551 18.3736 32.5919C18.2392 32.5243 18.085 32.4938 17.9308 32.5483C17.8603 32.5723 17.781 32.5832 17.7171 32.6224C17.6135 32.6834 17.5188 32.7641 17.3932 32.6704C17.3866 32.666 17.3668 32.666 17.3624 32.6704C17.2764 32.7902 17.131 32.6921 17.0297 32.7597C17.0099 32.7728 16.9438 32.7314 16.9063 32.7052C16.8622 32.6725 16.8336 32.6442 16.7873 32.7052C16.7675 32.7292 16.7124 32.751 16.6904 32.7401C16.5516 32.6747 16.4481 32.7771 16.3291 32.8033C16.3093 32.8076 16.285 32.8207 16.2718 32.8142C16.1 32.727 15.9325 32.8142 15.7651 32.8273C15.688 32.8338 15.6351 32.8229 15.5866 32.7815C15.4853 32.6943 15.3751 32.6442 15.2407 32.6725C15.1592 32.69 15.0755 32.7139 15.0028 32.7532C14.9124 32.8011 14.8353 32.775 14.767 32.7248C14.6723 32.6573 14.5886 32.6137 14.4586 32.6442C14.3022 32.6791 14.1391 32.6791 13.9783 32.6921C13.9739 32.6921 13.9695 32.6921 13.9673 32.6921C13.7712 32.8382 13.6126 32.6595 13.4363 32.6311C13.3306 32.6137 13.227 32.557 13.1235 32.557C12.9692 32.557 12.8282 32.5592 12.6762 32.5026C12.5595 32.459 12.414 32.4764 12.2841 32.4917C12.1805 32.5047 12.0902 32.4873 11.9976 32.4503C11.9756 32.4415 11.9426 32.4394 11.9205 32.4503C11.7795 32.5178 11.6319 32.5135 11.4821 32.5156C11.4094 32.5156 11.3345 32.544 11.264 32.5701C11.2486 32.5745 11.2376 32.618 11.2398 32.642C11.2398 32.6551 11.275 32.6704 11.2948 32.6725C11.3786 32.6878 11.4623 32.6965 11.5438 32.727C11.427 32.727 11.3125 32.727 11.1957 32.727C11.1318 32.727 11.0679 32.7227 11.004 32.7248C10.9798 32.7248 10.9511 32.7401 10.9313 32.7314C10.8476 32.6965 10.8101 32.7357 10.7617 32.8011C10.7374 32.8338 10.6581 32.836 10.603 32.8382C10.5832 32.8382 10.5524 32.7924 10.548 32.7662C10.5281 32.666 10.4026 32.5984 10.3078 32.6486C10.2549 32.6769 10.2175 32.6922 10.1536 32.666C10.1139 32.6486 10.05 32.6769 10.0016 32.6965C9.93989 32.7205 9.88481 32.7336 9.84295 32.6747C9.78787 32.5963 9.73499 32.5222 9.61823 32.544C9.58958 32.5483 9.55874 32.5309 9.51688 32.5222C9.49926 32.6115 9.48383 32.6987 9.47061 32.7706C9.39571 32.7357 9.33181 32.7074 9.27013 32.6791C9.31639 32.6181 9.37588 32.5396 9.43757 32.4546C9.36486 32.3369 9.37588 32.2084 9.41333 32.0776C9.42435 32.0384 9.43316 31.9948 9.42875 31.9556C9.41553 31.8357 9.4596 31.7638 9.56535 31.7159C9.64246 31.681 9.71737 31.6352 9.78346 31.5829C9.84295 31.5372 9.89362 31.5197 9.96633 31.5481C10.0346 31.5742 10.0853 31.5524 10.1536 31.5088C10.3122 31.4086 10.4114 31.2277 10.6141 31.195C10.6427 31.1907 10.6846 31.1842 10.7 31.1994C10.8212 31.3258 10.9622 31.3193 11.1164 31.2822C11.1538 31.2735 11.2045 31.2844 11.2376 31.3062C11.3169 31.3585 11.3874 31.3411 11.4447 31.2713C11.4777 31.2321 11.5372 31.2038 11.5901 31.1929C11.7002 31.1689 11.8126 31.1536 11.9227 31.1493C12.0175 31.1449 12.1144 31.1515 12.2092 31.1667C12.3127 31.1842 12.4163 31.2343 12.4912 31.1122C12.5 31.097 12.5286 31.0839 12.5462 31.0861C12.6233 31.0992 12.7005 31.1122 12.7732 31.1384C12.8921 31.182 13.0045 31.219 13.1389 31.1885C13.1962 31.1754 13.2667 31.2212 13.3328 31.2365C13.3768 31.2452 13.4209 31.2452 13.465 31.2539C13.5531 31.2691 13.6412 31.2931 13.7315 31.304C13.78 31.3084 13.8307 31.2909 13.8858 31.2844C13.9254 31.2953 13.9783 31.3105 14.029 31.3193C14.1105 31.3345 14.192 31.3519 14.2757 31.3628C14.5247 31.3977 14.7736 31.4348 15.0226 31.4609C15.1856 31.4783 15.3509 31.4805 15.5161 31.4936C15.569 31.498 15.6197 31.5241 15.6703 31.5219C15.7012 31.5219 15.7276 31.4827 15.7607 31.4674C15.7937 31.4522 15.829 31.4435 15.873 31.4282C15.8598 31.4021 15.8466 31.3759 15.8378 31.3585C16.0162 31.3977 16.2013 31.4391 16.3864 31.474C16.4459 31.4849 16.5097 31.4762 16.5714 31.474C16.5824 31.474 16.6001 31.4544 16.5979 31.4478C16.5957 31.4304 16.5869 31.3999 16.5736 31.3977C16.4987 31.3759 16.4216 31.3607 16.3423 31.3454C16.3048 31.3389 16.2652 31.3476 16.2299 31.3367C15.9876 31.2473 15.7519 31.1427 15.5073 31.0665C15.2451 30.9858 14.9763 30.9357 14.7098 30.8725C14.6965 30.8703 14.6833 30.8725 14.6459 30.8682C14.6723 30.8987 14.6833 30.9183 14.7009 30.927C14.8397 30.9924 14.9785 31.0643 15.1217 31.1166C15.2165 31.1515 15.3222 31.158 15.4214 31.1733C15.45 31.1776 15.4941 31.1645 15.5095 31.1798C15.5866 31.2582 15.6791 31.2626 15.7783 31.2452C15.7893 31.2452 15.8025 31.2539 15.8356 31.267C15.7144 31.3018 15.6351 31.3563 15.5161 31.2844C15.4148 31.2234 15.2848 31.2168 15.1658 31.1842C15.0865 31.1624 15.0072 31.1384 14.9279 31.1166C14.7362 31.0643 14.5467 31.012 14.355 30.9597C14.322 30.951 14.2779 30.9357 14.2515 30.9488C14.1039 31.0207 13.9651 30.927 13.8219 30.9248C13.6148 30.9205 13.4055 30.8529 13.1984 30.8551C12.9715 30.8551 12.7599 30.7745 12.5374 30.7701C12.4537 30.7701 12.37 30.805 12.2863 30.8224C12.2642 30.8268 12.2422 30.8398 12.2224 30.8377C12.0571 30.8159 11.8919 30.7832 11.7245 30.7723C11.6495 30.7679 11.5989 30.7374 11.5438 30.7004C11.665 30.7222 11.7839 30.7483 11.9051 30.7657C11.9514 30.7723 11.9999 30.7505 12.0483 30.744C12.0461 30.7352 12.0439 30.7265 12.0417 30.7178C11.9976 30.7156 11.9514 30.72 11.9095 30.7069C11.8016 30.672 11.6958 30.6197 11.5857 30.5892C11.4931 30.5631 11.3962 30.5565 11.2992 30.5478C11.2838 30.5478 11.2662 30.5762 11.253 30.5892C11.3609 30.6306 11.4557 30.6677 11.5482 30.7047C11.4336 30.6829 11.3191 30.6568 11.2045 30.6415C11.1671 30.6372 11.123 30.6655 11.0833 30.6808C11.1164 30.7156 11.145 30.757 11.1825 30.7854C11.2023 30.8006 11.2354 30.8006 11.2794 30.8115C11.0833 30.8856 10.9159 30.8355 10.7462 30.7963C10.6802 30.781 10.5854 30.8529 10.5546 30.7352C10.6427 30.6895 10.6559 30.6197 10.5986 30.5369C10.5766 30.5064 10.5612 30.4716 10.5502 30.4345C10.4973 30.2689 10.3166 30.2035 10.1734 30.2994C10.1051 30.3452 10.0478 30.343 10.0082 30.2667C9.97294 30.1992 9.92887 30.1839 9.85397 30.2079C9.82973 30.2166 9.77906 30.1883 9.76363 30.1621C9.70195 30.0553 9.64466 29.9464 9.59399 29.8331C9.57857 29.8004 9.57416 29.7372 9.59399 29.7176C9.65788 29.6565 9.64466 29.5846 9.64466 29.5127C9.64466 29.4364 9.65127 29.3602 9.63805 29.2861C9.63145 29.2469 9.5962 29.2055 9.56094 29.1837C9.54112 29.1706 9.49485 29.1837 9.464 29.1946C9.41994 29.212 9.37588 29.2316 9.34063 29.2621C9.30538 29.2904 9.28114 29.3318 9.24809 29.3711C9.23047 29.2686 9.28335 29.212 9.36046 29.1684C9.48383 29.1008 9.52349 29.0246 9.49265 28.8895C9.48604 28.859 9.45299 28.8328 9.43316 28.8045C9.4596 28.774 9.49265 28.7326 9.5279 28.6933C9.54111 28.6781 9.56094 28.6563 9.57416 28.6585C9.70195 28.6868 9.75482 28.5778 9.83854 28.5234C9.86939 28.5016 9.91786 28.4929 9.95531 28.4972C10.0963 28.519 10.1999 28.4253 10.1734 28.288C10.1316 28.0701 10.0809 27.8544 10.1095 27.6277C10.125 27.51 10.0919 27.3858 10.0721 27.2638C10.0699 27.2442 10.0302 27.218 10.0082 27.218C9.95972 27.218 9.91125 27.2311 9.84956 27.2398C9.85397 27.2856 9.85617 27.3314 9.86278 27.3967C9.8055 27.3662 9.75482 27.3401 9.70415 27.3117C9.72618 27.2965 9.74601 27.2791 9.77465 27.2573C9.75042 27.1941 9.72178 27.1221 9.69313 27.0502C9.70635 27.0502 9.71737 27.0546 9.73059 27.0546C9.75703 27.0175 9.78126 26.9805 9.8077 26.9456C9.82753 26.9587 9.84736 26.974 9.85176 26.9783C9.84295 27.0328 9.83634 27.0851 9.82973 27.1352H10.0192C10.0302 26.9631 9.9487 26.8672 9.80109 26.7909C9.79448 26.841 9.79228 26.8737 9.78787 26.9064L9.79889 26.889ZM13.0772 19.3621C13.097 19.3948 13.1058 19.4187 13.1235 19.4362C13.2072 19.5299 13.2931 19.6236 13.379 19.7173C13.4363 19.7783 13.4848 19.8524 13.5839 19.8567C13.6038 19.8567 13.6214 19.8894 13.639 19.909C13.7293 20.0071 13.8042 20.1226 13.91 20.2011C14.1435 20.3776 14.3903 20.5388 14.6304 20.7066C14.7472 20.7873 14.8552 20.8788 15.0072 20.9006C15.0755 20.9093 15.1504 20.9485 15.2055 20.9943C15.428 21.1904 15.6615 21.3713 15.9347 21.4998C16.122 21.5892 16.3137 21.6415 16.5208 21.635C16.5891 21.6328 16.6397 21.5696 16.6023 21.5151C16.5318 21.4105 16.4392 21.319 16.3533 21.2231C16.3159 21.1817 16.2696 21.1468 16.2321 21.1054C16.1594 21.0248 16.0933 20.9376 16.0162 20.8592C15.9567 20.7982 15.884 20.7524 15.8268 20.6936C15.688 20.5519 15.5492 20.4081 15.4214 20.2577C15.3399 20.1618 15.2716 20.055 15.2055 19.9483C15.1878 19.9199 15.2033 19.8742 15.2033 19.8371L15.2341 19.8328C15.6108 20.5258 16.2321 20.9529 16.8887 21.3451C16.9614 21.2253 16.957 21.2057 16.8446 21.1643C16.827 21.1577 16.805 21.1512 16.7939 21.1359C16.6882 21.0161 16.567 20.9049 16.4877 20.7698C16.4326 20.6739 16.3731 20.6107 16.2762 20.5868C16.2189 20.6086 16.1484 20.6456 16.1044 20.626C15.9964 20.5802 15.8752 20.5454 15.8224 20.4168C15.8003 20.3601 15.7695 20.3035 15.7298 20.2577C15.6351 20.1531 15.5381 20.0529 15.4324 19.957C15.2914 19.8306 15.1262 19.7303 15.0248 19.5626C15.0116 19.5386 14.9851 19.5146 14.9587 19.5059C14.8177 19.4601 14.7428 19.3403 14.6481 19.2422C14.6128 19.2073 14.5621 19.1877 14.5181 19.1638C14.5115 19.1594 14.5027 19.1572 14.4894 19.1507C14.5159 19.1354 14.5379 19.1245 14.5467 19.1202C14.4123 18.996 14.2911 18.887 14.1722 18.778C14.0951 18.7061 14.04 18.6146 13.943 18.5536C13.78 18.4533 13.639 18.3204 13.4892 18.1962C13.2931 18.0328 13.1103 17.8562 12.8877 17.7299C12.8503 17.7081 12.8018 17.6688 12.7952 17.6318C12.7776 17.525 12.6872 17.5163 12.6145 17.4814C12.5727 17.4596 12.5352 17.4291 12.4978 17.3986C12.4735 17.3768 12.4581 17.3441 12.4339 17.3245C12.3502 17.2592 12.2598 17.2047 12.1805 17.1371C12.0417 17.0151 11.9095 16.8843 11.7729 16.7601C11.7553 16.7427 11.7245 16.7383 11.7002 16.7296C11.7002 16.7514 11.6958 16.771 11.6936 16.7928C11.6936 16.9562 11.8721 17.0761 11.806 17.2548C11.806 17.2592 11.8104 17.2657 11.8148 17.2722C11.8721 17.3507 11.9338 17.4248 11.9888 17.5054C12.0219 17.5533 12.0637 17.6013 12.0726 17.6536C12.0836 17.7168 12.11 17.7451 12.1695 17.756C12.251 17.7734 12.2819 17.8345 12.2576 17.902C12.2334 17.9717 12.2664 17.9805 12.3149 18.0066C12.3656 18.0349 12.4163 18.0785 12.4427 18.1265C12.4978 18.2224 12.5308 18.3291 12.5815 18.4272C12.6057 18.4751 12.6542 18.51 12.685 18.5536C12.7489 18.6451 12.7996 18.7432 12.8701 18.8282C12.956 18.9284 13.0574 19.0156 13.1477 19.1115C13.2623 19.2313 13.3724 19.3533 13.4892 19.471C13.5685 19.5517 13.6566 19.6236 13.7404 19.702C13.9056 19.8567 14.0642 20.0158 14.2339 20.164C14.355 20.2708 14.4916 20.3601 14.6238 20.4538C14.6459 20.4691 14.6767 20.4735 14.7053 20.4844C14.734 20.4931 14.7648 20.4996 14.7869 20.5149C14.9851 20.6412 15.179 20.7742 15.3795 20.8984C15.4743 20.9572 15.5778 21.0008 15.6725 21.0575C15.7783 21.1207 15.862 21.2166 15.9832 21.2536C16.0008 21.258 16.0074 21.2906 16.0206 21.3103C16.0118 21.319 16.003 21.3277 15.9942 21.3342C15.9413 21.2972 15.8884 21.258 15.8334 21.2253C15.7519 21.1751 15.6681 21.1316 15.5888 21.0836C15.5095 21.0357 15.4346 20.9834 15.3553 20.9376C15.2517 20.8788 15.1438 20.8265 15.0424 20.7676C14.8948 20.6805 14.7472 20.5911 14.6018 20.4974C14.5665 20.4735 14.5423 20.432 14.5137 20.4015C14.496 20.3819 14.4608 20.3471 14.4564 20.3492C14.3859 20.4015 14.3639 20.3274 14.3242 20.3013C14.2713 20.2664 14.2229 20.2207 14.1656 20.1945C14.0047 20.1226 13.8703 20.0158 13.747 19.8938C13.7029 19.8502 13.6721 19.7914 13.6236 19.7587C13.5024 19.678 13.3923 19.5931 13.3019 19.471C13.2623 19.4165 13.205 19.3207 13.075 19.3577L13.0772 19.3621ZM13.1565 28.3512C13.183 28.3534 13.2094 28.349 13.227 28.3599C13.3063 28.4122 13.3812 28.3991 13.4716 28.3861C13.5685 28.3708 13.6721 28.3861 13.769 28.3512C13.78 28.3469 13.7932 28.3577 13.8065 28.3599C13.8659 28.3708 13.9276 28.3904 13.9871 28.3883C14.0686 28.3883 14.1678 28.3381 14.2251 28.3708C14.3528 28.4427 14.4344 28.3665 14.5269 28.3185C14.6393 28.4427 14.734 28.4253 14.994 28.2183C14.8992 28.2139 14.8155 28.2226 14.7384 28.203C14.6106 28.1703 14.485 28.1202 14.3594 28.0788C14.311 28.0636 14.2471 28.0287 14.214 28.0483C14.1568 28.0788 14.1193 28.057 14.0686 28.0527C13.9607 28.0418 13.8307 27.959 13.758 28.1202C13.7536 28.1311 13.736 28.142 13.7271 28.1398C13.6632 28.1268 13.6038 28.1987 13.5355 28.1485C13.5289 28.1442 13.5046 28.1594 13.465 28.1769C13.5994 28.2052 13.7095 28.2292 13.8197 28.2531C13.8197 28.2619 13.8153 28.2706 13.8131 28.2793C13.6434 28.2488 13.476 28.2161 13.3041 28.1921C13.194 28.1769 13.1521 28.2248 13.1565 28.349V28.3512ZM11.85 12.6741C11.8566 12.7853 12.2554 13.0381 12.4185 13.0359C12.2863 12.8245 12.0615 12.7679 11.85 12.6741ZM15.3575 28.2553C15.4324 28.3033 15.4875 28.3534 15.5514 28.3708C15.5976 28.3839 15.6571 28.3556 15.7122 28.3468C15.7012 28.3207 15.6968 28.2771 15.6769 28.2706C15.6108 28.2444 15.5403 28.2248 15.4698 28.2161C15.4368 28.2117 15.3971 28.2401 15.3575 28.2553ZM14.2956 29.4059C14.1634 29.3732 14.0576 29.3449 13.9519 29.3188C13.932 29.3972 13.9519 29.4343 14.0158 29.4364C14.073 29.4386 14.1303 29.4364 14.1876 29.4343C14.2184 29.4321 14.2471 29.419 14.2956 29.4059ZM10.8939 32.4219C10.863 32.3783 10.841 32.3391 10.8123 32.3043C10.7991 32.289 10.7749 32.2825 10.7573 32.2737C10.7462 32.2955 10.7264 32.3151 10.7242 32.3369C10.7176 32.4089 10.7749 32.4372 10.8961 32.4219H10.8939ZM18.3714 13.134C18.3604 13.1252 18.3494 13.1143 18.3384 13.1056C18.2657 13.1383 18.2128 13.1863 18.2128 13.3083C18.2767 13.2386 18.3252 13.1863 18.3714 13.134Z" fill="white"/>
</svg>
