<svg width="126" height="32" viewBox="0 0 126 32" fill="none" xmlns="http://www.w3.org/2000/svg">
<path d="M50.6932 21.4719C50.6932 21.2068 50.514 21.0301 50.1558 20.9418V20.7651C50.3349 20.7651 51.0066 20.8093 51.1858 20.8093C51.3201 20.8093 51.9918 20.7651 52.171 20.7651V20.9418C51.8575 21.0301 51.6783 21.2069 51.6783 21.4719V24.7854C51.6783 25.8457 52.2605 26.42 53.4696 26.42C54.5444 26.42 55.3504 25.934 55.3504 24.8296V21.4277C55.3504 21.1627 55.1713 20.986 54.8131 20.8976V20.7651C54.9474 20.7651 55.4848 20.8092 55.6639 20.8092C55.8431 20.8092 56.3804 20.7651 56.5148 20.7651V20.9418C56.1117 21.0301 55.9774 21.2069 55.9774 21.4719V24.697C55.9774 26.1549 55.1266 26.9944 53.2904 26.9944C51.5887 26.9944 50.693 26.2433 50.693 24.8738L50.6932 21.4719ZM58.0373 26.7291C58.4404 26.6407 58.5747 26.464 58.5747 26.1989V21.6045C58.5747 21.2069 58.3508 21.0302 57.9925 20.9418V20.7651H59.2912L63.3217 25.4479V21.4718C63.3217 21.2067 63.1425 21.03 62.7843 20.9416V20.7649C62.9186 20.7649 63.456 20.8091 63.6351 20.8091C63.8143 20.8091 64.3516 20.7649 64.486 20.7649V20.9416C64.0829 21.03 63.9038 21.2067 63.9038 21.4718V26.994H63.6799C63.5455 26.9498 63.2321 26.8173 62.7843 26.3313L59.1569 22.1784V26.243C59.1569 26.508 59.2912 26.6848 59.6942 26.7731V26.9498C59.5599 26.9498 59.0225 26.9056 58.8434 26.9056C58.6642 26.9056 58.1269 26.9498 57.9925 26.9498L58.0373 26.7291ZM89.9218 25.4921H90.1009C90.1905 25.8455 90.3696 26.1547 90.683 26.3315C90.9517 26.5524 91.4443 26.6407 91.8026 26.6407C92.6087 26.6407 93.146 26.2431 93.146 25.6246C93.146 24.9619 92.4743 24.6527 91.713 24.2551C91.1309 23.9458 89.9665 23.5041 89.9665 22.3996C89.9665 21.3835 90.7726 20.7208 92.0265 20.7208C92.8774 20.7208 93.2356 20.9417 93.8178 20.8975V22.1345H93.6386C93.4147 21.3835 92.743 21.1626 91.9817 21.1626C91.1309 21.1626 90.8622 21.6486 90.8622 22.0903C90.8622 22.753 91.5339 23.1065 92.2952 23.4599C93.146 23.8133 94.0864 24.2993 94.0864 25.3596C94.0864 26.3757 93.2804 27.0825 91.8473 27.0825C90.9965 27.0825 90.4591 26.8174 90.0113 26.7733L89.9218 25.4921ZM107.252 24.3434L105.595 21.7368C105.327 21.295 105.103 21.03 104.789 20.9416V20.7649C105.013 20.7649 105.64 20.8091 105.774 20.8091C105.954 20.8091 106.581 20.7649 106.849 20.7649V20.9416C106.625 20.9858 106.536 21.0742 106.536 21.2509C106.536 21.3834 106.625 21.5601 106.715 21.7368C106.804 21.8694 107.924 23.7249 107.924 23.7249L109.088 21.7368C109.223 21.516 109.267 21.3392 109.267 21.2067C109.267 21.0742 109.178 20.9858 108.999 20.9858V20.7649C109.178 20.7649 109.626 20.8091 109.76 20.8091C109.894 20.8091 110.387 20.7649 110.566 20.7649V20.9416C110.118 21.1183 109.85 21.5159 109.581 21.9577L108.103 24.4318M108.193 24.1225V26.1989C108.193 26.4198 108.372 26.6849 108.73 26.7291V26.9058C108.551 26.9058 107.879 26.8616 107.7 26.8616C107.521 26.8616 106.894 26.9058 106.67 26.9058V26.7291C107.028 26.6407 107.207 26.4198 107.207 26.1989V24.2109M76.712 20.7649H80.5633C80.6976 20.7649 80.8767 20.7649 81.0111 20.6765H81.1902L81.1454 21.9135H80.9663C80.832 21.5159 80.6528 21.2067 79.9363 21.2067H78.2794V23.4157H79.5781C79.7572 23.4157 79.9811 23.4157 80.0707 23.3715C80.3394 23.3273 80.4737 23.1506 80.5633 22.8855H80.7424V24.4318H80.5633C80.4737 24.1667 80.3841 23.99 80.0707 23.9458C79.9811 23.9016 79.7572 23.9016 79.5781 23.9016H78.2794V26.4198H80.1155C80.9215 26.4198 81.1454 26.1106 81.3246 25.6246H81.5037L81.3246 26.9058C80.7424 26.8616 80.3842 26.8616 79.7124 26.8616H77.7868C77.6077 26.8616 76.936 26.9058 76.7121 26.9058V26.7291C77.0703 26.6408 77.2494 26.5082 77.2494 26.1548V21.472C77.2494 21.1627 77.0703 20.986 76.7121 20.9418L76.712 20.7649ZM66.86 21.5159C66.86 21.2067 66.6808 21.03 66.3226 20.9416V20.7649C66.5465 20.7649 67.1734 20.8091 67.3973 20.8091C67.5765 20.8091 68.2482 20.7649 68.4721 20.7649V20.9416C68.1138 21.03 67.89 21.1625 67.89 21.5159V26.1546C67.89 26.4638 68.0691 26.6405 68.4721 26.7289V26.9056C68.2482 26.9056 67.6213 26.8614 67.3973 26.8614C67.2182 26.8614 66.5465 26.9056 66.3226 26.9056V26.7289C66.7256 26.6405 66.9048 26.508 66.9048 26.1546L66.86 21.5159ZM96.1029 21.5159C96.1029 21.2067 95.9237 21.03 95.5655 20.9416V20.7649C95.7894 20.7649 96.4611 20.8091 96.6403 20.8091C96.8194 20.8091 97.4911 20.7649 97.715 20.7649V20.9416C97.3568 21.03 97.1777 21.1625 97.1777 21.5159V26.1546C97.1777 26.4638 97.3568 26.6405 97.715 26.7289V26.9056C97.4911 26.9056 96.8642 26.8614 96.6403 26.8614C96.4611 26.8614 95.7894 26.9056 95.5655 26.9056V26.7289C95.9685 26.6405 96.1029 26.508 96.1029 26.1546V21.5159ZM101.477 20.8091C99.3718 20.8091 99.0135 20.7649 98.6105 20.7207V21.9577H98.7896C98.9687 21.3834 99.2822 21.2509 99.6852 21.2509H101.029V26.1104C101.029 26.4197 100.85 26.5964 100.447 26.6847V26.8614C100.67 26.8614 101.342 26.8173 101.521 26.8173C101.7 26.8173 102.372 26.8614 102.596 26.8614V26.6847C102.238 26.5964 102.014 26.4196 102.014 26.1104V21.2509H103.313C103.716 21.2509 104.029 21.3834 104.208 21.9577H104.387V20.7207C103.895 20.7649 103.581 20.8091 101.477 20.8091ZM84.5939 26.1546C84.5939 26.4639 84.7731 26.6405 85.1761 26.7289V26.9056C84.9522 26.9056 84.2804 26.8614 84.1013 26.8614C83.9222 26.8614 83.2952 26.9056 83.0713 26.9056V26.7289C83.4296 26.6406 83.6087 26.508 83.6087 26.1546V21.4718C83.6087 21.1625 83.4296 20.9858 83.0713 20.9416V20.7649C83.2952 20.7649 83.9222 20.8091 84.1013 20.8091C84.4148 20.8091 85.2656 20.7649 85.6239 20.7649C87.1017 20.7649 87.9078 21.3834 87.9078 22.3995C87.9078 23.1947 87.2809 23.769 86.3405 23.9899C86.3405 23.9899 86.5644 24.1225 86.7883 24.3434C87.057 24.6526 87.7735 25.6246 88.0422 25.978C88.3109 26.3314 88.7139 26.729 89.1169 26.729V26.8616C88.9378 26.9057 88.6244 26.9499 88.4004 26.9499C87.9079 26.9499 87.5048 26.7732 87.1018 26.3314C86.7435 25.9338 86.2061 25.0944 85.8479 24.6526C85.624 24.3876 85.3553 24.1667 84.9075 24.0783C84.8179 24.0783 84.7283 24.0341 84.6388 24.0341L84.5939 26.1546ZM84.5939 23.6805C84.7731 23.7247 85.0865 23.7247 85.3552 23.7247C86.5195 23.7247 86.8778 23.062 86.8778 22.4877C86.8778 21.6483 86.3404 21.1624 85.3104 21.1624C85.0865 21.1624 84.8178 21.2065 84.5939 21.2507V23.6805ZM69.9056 21.5157C69.7713 21.2065 69.5474 20.9856 69.1891 20.9414V20.7647C69.413 20.7647 70.1743 20.8089 70.3535 20.8089C70.4878 20.8089 71.1595 20.7647 71.3834 20.7647V20.9414C71.2043 20.9856 70.9356 21.074 70.9356 21.2949C70.9356 21.4274 71.0252 21.6483 71.2043 22.0017L72.8164 25.5803L74.339 22.0017C74.4734 21.6925 74.5629 21.4716 74.5629 21.339C74.5629 21.1623 74.3838 21.0298 74.1151 20.9856V20.7647C74.2942 20.7647 74.7868 20.8089 74.9659 20.8089C75.1003 20.8089 75.6824 20.7647 75.9064 20.7647V20.9414C75.5481 21.0298 75.2794 21.2507 75.1003 21.7366L72.8612 26.9054H72.3686L69.9056 21.5157ZM75.6376 5.21389C75.3689 4.63958 74.9659 4.24196 74.3389 4.10942V3.80017C74.742 3.80017 76.1302 3.84434 76.4437 3.84434C76.7124 3.84434 78.0558 3.80017 78.5036 3.80017V4.10942C78.1454 4.19778 77.6976 4.3745 77.6976 4.7721C77.6976 5.03717 77.8767 5.43477 78.1902 6.09744L81.2354 12.9009L84.1015 6.09744C84.3254 5.56731 84.5045 5.12551 84.5045 4.81625C84.5045 4.46282 84.1463 4.19776 83.6985 4.1094V3.80014C84.1015 3.80014 84.9971 3.84432 85.3106 3.84432C85.5793 3.84432 86.654 3.80014 87.1019 3.80014V4.1094C86.3854 4.28612 85.9375 4.72789 85.5345 5.61146L81.3249 15.4191H80.3845L75.6376 5.21389ZM34.8853 15.0215C35.4227 14.889 35.8257 14.6681 35.8257 14.0496V5.08137C35.8257 4.50706 35.4675 4.24198 34.8853 4.10944V3.75601C35.154 3.75601 36.4079 3.80019 36.7214 3.80019C37.0796 3.80019 38.3783 3.75601 38.647 3.75601V4.06527C38.1096 4.1978 37.7066 4.4187 37.7066 5.0372V8.83664H44.5133V5.08137C44.5133 4.46288 44.1551 4.1978 43.5729 4.10944V3.75601C43.8416 3.75601 45.1403 3.80019 45.4985 3.80019C45.812 3.80019 47.0659 3.75601 47.3794 3.75601V4.06527C46.842 4.1978 46.4389 4.4187 46.4389 5.0372V14.0054C46.4389 14.5798 46.7972 14.8448 47.3794 14.9774V15.2866C47.1107 15.2866 45.812 15.2424 45.4985 15.2424C45.1403 15.2424 43.8864 15.2866 43.5729 15.2866V15.0215C44.1103 14.889 44.5133 14.6681 44.5133 14.0496V9.80838H37.7066V14.0496C37.7066 14.6681 38.0648 14.889 38.647 15.0215V15.3308C38.3783 15.3308 37.0348 15.2866 36.7214 15.2866C36.4079 15.2866 35.1988 15.3308 34.8853 15.3308V15.0215ZM113.344 15.0215C114.06 14.889 114.419 14.6239 114.419 14.0054V5.08137C114.419 4.46288 114.016 4.1978 113.344 4.10944V3.75601C113.747 3.75601 115.001 3.80019 115.359 3.80019C115.941 3.80019 117.508 3.66765 118.762 3.66765C122.927 3.66765 125.48 5.96499 125.48 9.45496C125.48 12.8568 122.837 15.3748 118.539 15.3748C117.285 15.3748 115.852 15.2865 115.269 15.2865C114.911 15.2865 113.747 15.3306 113.344 15.3306V15.0215ZM116.299 14.4472C116.747 14.5356 117.509 14.5798 118.135 14.5798C121.629 14.5798 123.464 12.5034 123.464 9.58769C123.464 6.58348 121.539 4.46307 118.27 4.46307C117.598 4.46307 116.747 4.50725 116.299 4.59561V14.4472ZM66.0995 13.9613C66.0995 14.5356 66.5026 14.889 67.1743 15.0216V15.3308C66.7712 15.3308 65.5174 15.2866 65.1143 15.2866C64.8008 15.2866 63.547 15.3308 63.1439 15.3308V15.0216C63.8157 14.889 64.1739 14.5798 64.1739 13.9613V5.12558C64.1739 4.59544 63.8604 4.242 63.1439 4.10947V3.75603C63.547 3.75603 64.7561 3.80021 65.1143 3.80021C65.6965 3.80021 67.3087 3.71185 67.9804 3.71185C70.8017 3.71185 72.3691 4.8605 72.3691 6.80442C72.3691 8.35067 71.2048 9.36684 69.4135 9.80863C69.4135 9.80863 69.8165 10.0295 70.2195 10.5155C70.7122 11.0898 72.1004 13.0337 72.6378 13.6964C73.1752 14.3591 73.8917 15.1101 74.653 15.1101V15.3752C74.2947 15.4636 73.7126 15.5077 73.2648 15.5077C72.3243 15.5077 71.5631 15.1543 70.8017 14.2707C70.1748 13.5197 69.0552 11.885 68.4282 11.0898C68.0252 10.5597 67.5326 10.162 66.637 10.0295C66.4578 9.98533 66.2787 9.98533 66.0996 9.94115L66.0995 13.9613ZM66.0995 9.27846C66.4578 9.32263 67.0399 9.36681 67.5773 9.36681C69.7717 9.36681 70.4434 8.12981 70.4434 7.0253C70.4434 5.47905 69.3686 4.50706 67.4877 4.50706C67.0847 4.50706 66.5025 4.55124 66.0995 4.63959V9.27846ZM103.09 13.9613C103.09 14.5356 103.493 14.889 104.164 15.0216V15.3308C103.761 15.3308 102.507 15.2866 102.149 15.2866C101.836 15.2866 100.582 15.3308 100.179 15.3308V15.0216C100.851 14.889 101.209 14.5798 101.209 13.9613V5.12558C101.209 4.59544 100.895 4.242 100.179 4.10947V3.75603C100.582 3.75603 101.791 3.80021 102.149 3.80021C102.731 3.80021 104.344 3.71185 104.971 3.71185C107.792 3.71185 109.359 4.8605 109.359 6.80442C109.359 8.35067 108.195 9.36684 106.404 9.80863C106.404 9.80863 106.807 10.0295 107.21 10.5155C107.702 11.0898 109.09 13.0337 109.628 13.6964C110.165 14.3591 110.882 15.1101 111.643 15.1101V15.3752C111.285 15.4636 110.703 15.5077 110.255 15.5077C109.314 15.5077 108.553 15.1543 107.792 14.2707C107.165 13.5197 106.045 11.885 105.418 11.0898C105.015 10.5597 104.523 10.162 103.627 10.0295C103.448 9.98533 103.269 9.98533 103.09 9.94115L103.09 13.9613ZM103.09 9.27846C103.448 9.32263 104.03 9.36681 104.567 9.36681C106.762 9.36681 107.434 8.12981 107.434 7.0253C107.434 5.47905 106.359 4.50706 104.478 4.50706C104.075 4.50706 103.493 4.55124 103.09 4.63959V9.27846ZM49.0821 15.0216C49.8434 14.8449 50.2464 14.3589 50.5151 13.7404L54.2768 4.81634C54.456 4.4629 54.6351 3.71187 54.6351 3.71187H55.7099C55.7099 3.71187 55.889 4.4629 56.0681 4.86052L60.0538 13.7846C60.3225 14.4031 60.6359 14.8449 61.442 15.0216V15.3308C60.9942 15.3308 59.6955 15.2867 59.3821 15.2867C59.0686 15.2867 57.8147 15.3308 57.3669 15.3308V15.0216C57.949 14.8891 58.1282 14.5798 58.1282 14.3147C58.1282 14.0938 58.0386 13.7846 57.9042 13.5195L57.0534 11.6198H52.6647L51.9034 13.5637C51.8138 13.7846 51.7243 14.0938 51.7243 14.3147C51.7243 14.624 51.9034 14.8891 52.5303 15.0658V15.375C52.1273 15.375 51.0973 15.3308 50.8734 15.3308L49.1717 15.375L49.0821 15.0216ZM56.5606 10.692L54.6798 6.40657L52.9333 10.692H56.5606ZM86.34 15.0216C87.1013 14.8449 87.5044 14.3589 87.773 13.7404L91.5348 4.81634C91.7139 4.4629 91.893 3.71187 91.893 3.71187H92.9678C92.9678 3.71187 93.1469 4.4629 93.3261 4.86052L97.3117 13.7846C97.5804 14.4031 97.8939 14.8449 98.6999 15.0216V15.3308C98.2521 15.3308 96.9535 15.2867 96.64 15.2867C96.3265 15.2867 95.0726 15.3308 94.6248 15.3308V15.0216C95.2069 14.8891 95.3861 14.5798 95.3861 14.3147C95.3861 14.0938 95.2965 13.7846 95.1622 13.5195L94.3113 11.6198H89.9226L89.1613 13.5637C89.0718 13.7846 88.9822 14.0938 88.9822 14.3147C88.9822 14.624 89.1613 14.8891 89.7883 15.0658V15.375C89.3852 15.375 88.3553 15.3308 88.1314 15.3308L86.4297 15.375V15.0216H86.34ZM93.7737 10.692L91.8929 6.40657L90.1464 10.692H93.7737Z" fill="white"/>
<path d="M0.179129 0.178212H26.3759V9.94169C26.3759 14.4036 24.6742 23.902 13.3892 30.9707C13.3892 30.9707 1.11892 25.9345 0.17848 9.94169L0.179129 0.178212Z" fill="#A51C30"/>
<path d="M8.79321 15.5813C8.72744 15.5787 8.67037 15.611 8.6244 15.6503C8.5348 15.7269 8.48115 15.8328 8.47834 15.8384C8.3784 15.9765 8.1681 16.0112 7.97716 16.0058C7.78623 16.0005 7.62205 15.9575 7.62205 15.9575L7.61156 15.9549L7.60106 15.9584C7.32657 16.0487 7.20438 16.1638 7.15412 16.263C7.12899 16.3126 7.12263 16.3574 7.12263 16.3898C7.12263 16.4153 7.1259 16.4265 7.12788 16.4338V17.446C7.11788 17.5018 7.09169 17.5359 7.05529 17.5599C7.01837 17.5842 6.96916 17.597 6.91972 17.6022C6.82083 17.6124 6.72467 17.5918 6.72467 17.5918H6.72379C6.37946 17.5239 6.14334 17.6035 5.99608 17.7023C5.85123 17.7994 5.79337 17.9125 5.79141 17.9163C5.64411 18.1129 5.74156 18.3891 5.74156 18.3891V18.3908C5.7511 18.4159 5.76217 18.4397 5.7748 18.4616C5.77494 18.462 5.77655 18.4667 5.77655 18.4667C5.91089 18.8202 6.40366 18.8196 6.40366 18.8196C6.58278 18.9522 6.89607 18.8636 6.89607 18.8636C6.98811 18.8636 7.04163 18.9014 7.0745 18.9491C7.09083 19.0142 7.08325 19.0794 7.08325 19.0794L7.08236 19.0871L7.08411 19.094C7.08711 19.1058 7.09332 19.1671 7.09635 19.2511C7.0994 19.335 7.10056 19.4456 7.1016 19.5738C7.1037 19.8302 7.10264 20.1561 7.09985 20.4763C7.09425 21.1167 7.08323 21.7352 7.08323 21.7352C7.08323 21.9513 7.04038 22.0778 7.04038 22.0778L7.03862 22.0829V22.0889C7.03862 22.0997 7.03504 22.1052 7.02288 22.1148C7.01073 22.1244 6.98932 22.1349 6.96078 22.1424C6.90369 22.1575 6.82183 22.1632 6.73951 22.1632C6.57484 22.1632 6.40803 22.1416 6.40803 22.1416L6.40364 22.1408L6.39925 22.1416C5.93292 22.1876 5.78854 22.6006 5.787 22.605V22.6058C5.75004 22.6916 5.75327 22.7785 5.77825 22.8569C5.79079 22.8963 5.80901 22.9338 5.82986 22.9691C5.9131 23.1696 6.13512 23.3263 6.13512 23.3263C6.13512 23.4147 6.98614 23.4583 6.98614 23.4583C7.03772 23.471 7.07282 23.5068 7.09897 23.5498C7.10157 23.5576 7.1047 23.5651 7.10684 23.5731C7.12777 23.6505 7.12783 23.7232 7.12783 23.7232C7.12146 23.7468 7.11901 23.7732 7.11733 23.8112C7.11545 23.8541 7.11451 23.9071 7.11558 23.9665C7.11768 24.0855 7.12466 24.231 7.13307 24.3721C7.1499 24.6543 7.17243 24.9191 7.17243 24.9191L7.17332 24.9208V24.9226C7.17808 24.9507 7.19198 24.9751 7.20918 24.9968L7.21007 25.0045C7.25485 25.2696 8.1057 25.1814 8.1057 25.1814C8.1057 25.1814 11.088 25.1135 11.8938 25.1262C12.0089 25.1279 12.0794 25.1319 12.0906 25.1374C12.1802 25.1374 12.4046 25.0934 12.4046 25.0934L12.7177 25.3143C12.8437 25.411 12.9742 25.4385 13.0938 25.4308C13.1178 25.4295 13.1417 25.4263 13.1647 25.4222C13.3943 25.3812 13.5688 25.2254 13.5688 25.2254L14.0166 25.1374C14.1062 25.1374 17.7338 25.0934 17.7338 25.0934C18.0472 25.1818 18.1816 25.0486 18.1816 25.0486L18.7632 25.0046C18.7856 25.0046 18.8065 25.0029 18.8262 24.9994C18.9685 24.9737 19.0417 24.8615 19.0798 24.7518C19.0912 24.73 19.1032 24.7083 19.1113 24.6862C19.1588 24.5574 19.1577 24.4308 19.1577 24.4308V23.6835C19.1652 23.6244 19.179 23.5783 19.1944 23.5369C19.276 23.3949 19.3903 23.3703 19.3903 23.3703L19.9274 23.2815L20.1968 23.1494C20.3001 23.1239 20.3546 23.0526 20.3857 22.9665C20.3936 22.9542 20.4021 22.9426 20.4084 22.9294C20.4455 22.8516 20.4565 22.7609 20.4565 22.6749C20.4565 22.5028 20.4102 22.3444 20.4102 22.3444L20.4084 22.3373C20.3104 22.1439 20.0842 22.065 19.8889 22.031C19.6936 21.997 19.5215 22.0086 19.5215 22.0086H19.5207C19.3051 22.0298 19.2238 21.9689 19.1866 21.9093C19.1494 21.8497 19.1577 21.7851 19.1577 21.7851V21.7824L19.2032 19.0446C19.2209 18.942 19.2511 18.8602 19.281 18.7935C19.316 18.7274 19.3457 18.6874 19.3457 18.6874C19.4801 18.7315 19.9274 18.5985 19.9274 18.5985C20.1847 18.5731 20.2919 18.4174 20.3385 18.2887C20.3426 18.2812 20.3489 18.2737 20.3525 18.2663C20.4115 18.144 20.4111 18.0314 20.4111 18.0281C20.435 17.8549 20.3129 17.7117 20.1915 17.6148C20.0697 17.5175 19.9423 17.4612 19.9423 17.4612L19.9353 17.4577H19.3064C19.289 17.4541 19.2748 17.4451 19.26 17.4257C19.2449 17.406 19.2305 17.3768 19.2198 17.3412C19.1983 17.27 19.1884 17.1738 19.1857 17.0789C19.1802 16.889 19.2023 16.7036 19.2023 16.7036L19.2032 16.7009V16.3457C19.2032 16.1738 19.0788 16.0531 18.9618 15.9781C18.8448 15.903 18.7291 15.8694 18.7291 15.8694L18.7239 15.8676H17.9253C17.9073 15.8381 17.8871 15.8092 17.8571 15.79C17.8174 15.7646 17.7715 15.7457 17.7277 15.7313C17.64 15.7025 17.5589 15.6916 17.5589 15.6916C17.4129 15.6464 17.1959 15.6468 17.1959 15.6468H17.1845L17.1749 15.6528C16.8961 15.8433 16.4069 15.9231 15.9897 15.9505C15.5725 15.978 15.2279 15.9566 15.2279 15.9566L13.8232 15.8668L13.811 15.8781C13.8151 15.8741 13.8062 15.8812 13.7918 15.8858C13.7773 15.8906 13.7565 15.8964 13.7331 15.9014C13.6864 15.9114 13.627 15.9208 13.5687 15.929C13.4521 15.9454 13.3404 15.9566 13.3404 15.9566L13.3177 15.9583L13.3098 15.9808C13.2712 16.095 13.1541 16.1344 13.1541 16.1344L13.0308 16.1758C12.949 16.1072 12.8213 16.0551 12.7002 16.0187C12.5724 15.9803 12.4662 15.9593 12.4614 15.9583C12.4605 15.9579 12.4596 15.957 12.4588 15.9566C12.4545 15.9549 12.4502 15.954 12.4465 15.9531C12.4391 15.9514 12.4321 15.9504 12.4229 15.9495C12.4046 15.9478 12.3811 15.9473 12.3521 15.9469C12.2941 15.9465 12.2149 15.9482 12.1212 15.9513C11.9338 15.9575 11.6887 15.9694 11.4451 15.9832C10.9582 16.0108 10.4777 16.0444 10.4769 16.0445C9.92165 16.0664 9.54667 15.9785 9.31096 15.8866C9.07524 15.7947 8.9821 15.7019 8.9821 15.7019C8.92297 15.6223 8.85768 15.5839 8.79321 15.5813ZM8.79056 15.6538C8.82976 15.6555 8.87512 15.677 8.92701 15.7487L8.92789 15.7504L8.92965 15.7531C8.92965 15.7531 9.03819 15.8583 9.28389 15.9541C9.52956 16.0499 9.91517 16.1395 10.4795 16.1172H10.4822C10.4822 16.1172 10.9628 16.0835 11.4495 16.0559C11.6928 16.0421 11.9376 16.0302 12.1239 16.024C12.217 16.0209 12.2963 16.0192 12.3522 16.0196C12.3801 16.0198 12.4021 16.0208 12.4169 16.0222C12.4231 16.0226 12.4271 16.0235 12.43 16.0239L12.4317 16.0256L12.4422 16.0283C12.4422 16.0283 12.5533 16.0497 12.6802 16.0878C12.807 16.1259 12.9508 16.1839 13.0064 16.2388L13.0221 16.2544L13.1778 16.2035C13.1778 16.2035 13.2734 16.1482 13.3379 16.0525C13.288 16.172 13.1656 16.213 13.1656 16.213L13.0318 16.3018C12.8974 16.1693 12.4492 16.0809 12.4492 16.0809C12.4045 16.0368 10.4787 16.1689 10.4787 16.1689C9.35913 16.2131 8.95593 15.816 8.95593 15.816C8.73202 15.5068 8.5081 15.9481 8.5081 15.9481C8.28419 16.2573 7.61247 16.0809 7.61247 16.0809C7.36463 16.1624 7.25369 16.2623 7.20226 16.3467C7.20576 16.3313 7.21113 16.3145 7.22063 16.2958C7.25949 16.2191 7.3641 16.1159 7.62035 16.03C7.63472 16.0336 7.7844 16.0729 7.97632 16.0784C8.17722 16.084 8.41473 16.052 8.53872 15.8808L8.54047 15.8791L8.54222 15.8764C8.54222 15.8764 8.59656 15.7697 8.67254 15.7047C8.71054 15.6722 8.75137 15.6522 8.79056 15.6538ZM17.2065 15.7202C17.2224 15.7204 17.4251 15.7229 17.5432 15.7616L17.5467 15.7625L17.5493 15.7633C17.5493 15.7633 17.6256 15.7741 17.7059 15.8004C17.746 15.8137 17.787 15.8303 17.8187 15.8505C17.8238 15.8536 17.8265 15.8575 17.831 15.8608C17.7234 15.7955 17.5546 15.7711 17.5546 15.7711C17.4202 15.7269 17.196 15.7271 17.196 15.7271C16.6138 16.1247 15.2254 16.0369 15.2254 16.0369L13.8374 15.948C13.7931 15.9916 13.3603 16.035 13.3502 16.036C13.3521 16.0329 13.3545 16.0306 13.3563 16.0274C13.3628 16.0269 13.4653 16.0168 13.5802 16.0006C13.6395 15.9923 13.7001 15.9828 13.7499 15.9721C13.7748 15.9668 13.7969 15.961 13.8155 15.9549C13.8259 15.9513 13.8339 15.9455 13.8426 15.9411L15.2237 16.0282C15.2237 16.0282 15.5735 16.0509 15.996 16.0231C16.4135 15.9956 16.9023 15.9219 17.2065 15.7202ZM17.9079 15.9403H18.7126C18.7152 15.9411 18.7792 15.9653 18.8534 16.0032C18.7783 15.9663 18.7187 15.948 18.7187 15.948H17.9123C17.9114 15.9454 17.9091 15.9429 17.9079 15.9403ZM18.8683 16.011C18.8875 16.0213 18.9033 16.0266 18.9234 16.0395C18.9289 16.043 18.9337 16.0478 18.9392 16.0515C18.915 16.0362 18.8912 16.0228 18.8683 16.011ZM19.1875 17.4442C19.1925 17.4526 19.1966 17.4617 19.2024 17.4692C19.2253 17.499 19.2562 17.5221 19.2942 17.5296L19.2977 17.5305H19.9187C19.924 17.5327 20.0354 17.5836 20.1461 17.672C20.2237 17.7339 20.2919 17.8115 20.3228 17.8972C20.2426 17.7701 20.0948 17.6727 20.0044 17.6219C19.9589 17.5964 19.9274 17.5831 19.9274 17.5831H19.3012C19.2464 17.5723 19.2107 17.5184 19.1875 17.4442ZM7.14293 17.5788C7.03032 17.789 6.71697 17.7152 6.71697 17.7152C6.04525 17.5826 5.82134 18.0249 5.82134 18.0249C5.81522 18.033 5.81169 18.0416 5.80647 18.0499C5.81665 18.0175 5.83042 17.9859 5.85195 17.9576L5.85546 17.9523C5.85546 17.9523 5.9065 17.8506 6.03913 17.7616C6.1716 17.6728 6.38329 17.5982 6.70999 17.6624C6.70999 17.6624 6.81482 17.6855 6.92864 17.6736C6.98556 17.6677 7.0462 17.6538 7.09745 17.6201C7.11437 17.609 7.12902 17.5946 7.14293 17.5788ZM19.13 21.9526C19.1841 22.0339 19.302 22.1031 19.5279 22.0812C19.5279 22.0812 19.6925 22.0705 19.8778 22.1027C20.0627 22.1349 20.2608 22.2101 20.3423 22.3694C20.3425 22.3702 20.3474 22.3924 20.3492 22.3996C20.1392 22.0935 19.5253 22.133 19.5253 22.133C19.2326 22.1619 19.1518 22.0407 19.13 21.9526ZM7.07997 22.1606C7.07934 22.1628 7.07558 22.1769 7.07558 22.1769C7.07558 22.199 7.06508 22.2177 7.04672 22.2322C7.02835 22.2467 7.00211 22.2575 6.97062 22.2658C6.7817 22.3155 6.40385 22.2658 6.40385 22.2658C6.07969 22.2978 5.92081 22.5133 5.8572 22.6308C5.8572 22.6308 5.98176 22.2569 6.40736 22.2141C6.41493 22.2149 6.57336 22.2356 6.74059 22.2356C6.82619 22.2356 6.91138 22.2305 6.98023 22.2123C7.01466 22.2033 7.04573 22.1912 7.07032 22.1718C7.07417 22.1687 7.07654 22.1641 7.07997 22.1606ZM10.1998 3.31828L10.1867 3.32951C9.48786 3.88967 8.47242 3.63151 8.47242 3.63151L8.46803 3.63065H8.46364C7.47734 3.63065 7.15956 3.67466 7.15956 3.67466L7.14556 3.6773L7.13682 3.68763C7.03488 3.80831 6.90994 3.80661 6.80008 3.77565C6.69283 3.74538 6.61153 3.68616 6.60766 3.68332C6.58748 3.65425 6.55523 3.6377 6.5202 3.62551C6.48053 3.61168 6.43509 3.60359 6.39162 3.59789C6.30469 3.58645 6.22457 3.58583 6.22457 3.58583H6.22281L6.22193 3.58669C5.23915 3.65279 4.62634 3.59729 4.26098 3.52629C4.0783 3.49081 3.95763 3.45109 3.88314 3.42102C3.80865 3.39093 3.78256 3.37183 3.78256 3.37183L3.78695 3.37625C3.7727 3.36221 3.75902 3.35709 3.74234 3.35209C3.72567 3.34709 3.70648 3.34329 3.68549 3.34003C3.64352 3.3335 3.5938 3.32987 3.54555 3.32707C3.44904 3.32133 3.35838 3.32101 3.35838 3.32101H3.33564L3.32514 3.34084C3.28619 3.41768 3.16545 3.57892 3.15633 3.59106C3.15091 3.59277 3.13886 3.59636 3.11697 3.59883C3.09172 3.60148 3.05878 3.60387 3.02164 3.60489C2.94735 3.60709 2.8554 3.60575 2.76625 3.60319C2.58793 3.5977 2.42077 3.58679 2.42077 3.58679L2.41902 3.58594H2.41813C2.23136 3.58594 2.11893 3.64555 2.05604 3.7076C1.99314 3.76966 1.97907 3.83617 1.97907 3.83617L1.97819 3.83881L1.93358 4.68356V4.68621C1.95573 4.94845 1.92891 5.05458 1.91084 5.08312C1.9018 5.0974 1.90122 5.09435 1.90122 5.09435L1.87061 5.07452L1.84962 5.10474C1.83793 5.122 1.79331 5.14538 1.72979 5.15909C1.66628 5.1728 1.58735 5.17969 1.51025 5.18238C1.35607 5.18782 1.212 5.17721 1.212 5.17721L1.20851 5.17636L1.20501 5.17721C1.08335 5.18923 0.992305 5.24796 0.928638 5.32649C0.86496 5.40501 0.826761 5.50217 0.803564 5.59656C0.757172 5.78535 0.769454 5.96673 0.769454 5.96673V5.97108C0.793762 6.09098 0.863058 6.17514 0.94963 6.22907C1.0362 6.28301 1.13966 6.30909 1.23825 6.32054C1.43002 6.3428 1.59852 6.31108 1.60822 6.30931H1.6091C1.84749 6.33096 1.93407 6.40363 1.96596 6.46203C1.9979 6.52056 1.97995 6.57162 1.97995 6.57162L1.9782 6.57678V6.58284C1.9782 6.67422 1.98975 7.40066 2.00094 8.10753C2.0121 8.81178 2.02272 9.48909 2.02281 9.49415C2.01216 9.58872 1.98645 9.64815 1.95634 9.68485C1.92622 9.72156 1.89184 9.73743 1.85663 9.74438C1.7862 9.7583 1.71581 9.7306 1.71581 9.7306L1.70881 9.72705H1.70181C1.20087 9.72705 0.970535 9.89954 0.874393 10.0774C0.778707 10.2544 0.814576 10.4295 0.814916 10.4312C0.839488 10.7519 1.04441 10.8998 1.23737 10.9575C1.431 11.0154 1.61609 10.992 1.61609 10.992L1.61171 10.9928C1.85133 10.9928 1.94955 11.0553 1.9913 11.1102C2.03306 11.1651 2.02366 11.2155 2.02366 11.2155L2.02191 11.2267L2.02716 11.2379C2.02565 11.2348 2.0324 11.2604 2.03415 11.294C2.03591 11.3275 2.03693 11.3722 2.03591 11.4234C2.03385 11.526 2.02679 11.6557 2.01842 11.7824C2.00166 12.0358 1.97906 12.2785 1.97906 12.2785V12.2829L1.97994 12.2881C2.02676 12.5421 2.17565 12.6464 2.30969 12.6764C2.43389 12.7042 2.53624 12.6755 2.55197 12.6712H2.55373L6.12834 12.7601C6.63867 13.1269 6.96822 13.1374 7.16565 13.0371C7.35462 12.9411 7.40426 12.7696 7.41055 12.7498L7.47265 12.7593C7.5126 12.7658 7.59081 12.7692 7.7053 12.7722C7.8198 12.7753 7.96825 12.7772 8.13914 12.7783C8.48089 12.7805 8.91189 12.7791 9.33739 12.7765C9.76289 12.7739 10.1833 12.7697 10.5024 12.7662C10.82 12.7627 11.0376 12.7602 11.0587 12.7602H11.0613C11.2081 12.7924 11.3228 12.7851 11.4112 12.7515C11.5012 12.7174 11.5622 12.6569 11.6018 12.5936C11.6807 12.4679 11.6806 12.3295 11.6806 12.3279V12.3262L11.7252 11.2735C11.7434 11.2043 11.8195 11.1536 11.8984 11.1225C11.9747 11.0923 12.0435 11.0827 12.0488 11.0819C12.5459 11.1467 12.7896 10.9737 12.8963 10.7808C13.0031 10.5876 12.9796 10.3812 12.9794 10.3795V10.3787C12.9558 10.0572 12.7626 9.89856 12.5806 9.82905C12.3983 9.75945 12.2237 9.7721 12.2237 9.7721L12.2264 9.77124C11.989 9.77124 11.88 9.68982 11.8249 9.61075C11.7701 9.53207 11.7698 9.45619 11.7698 9.45543V9.45458C11.7822 9.37779 11.7898 9.18739 11.796 8.9291C11.8023 8.66784 11.8064 8.34486 11.8092 8.02999C11.8147 7.40025 11.8153 6.80387 11.8153 6.80387C11.8153 6.74967 11.8464 6.66233 11.8791 6.59247C11.9077 6.53134 11.9293 6.49584 11.936 6.48461C12.2118 6.51231 12.4225 6.49605 12.5701 6.44405C12.7242 6.38975 12.8191 6.30107 12.8736 6.20849C12.9814 6.02542 12.9333 5.83241 12.9322 5.82797C12.9526 5.66202 12.9274 5.53649 12.8684 5.44918C12.808 5.35985 12.7183 5.31002 12.6287 5.28351C12.4551 5.23213 12.2818 5.26336 12.271 5.26539C11.9645 5.26539 11.8594 5.18158 11.8223 5.10835C11.7852 5.03479 11.8127 4.96047 11.8127 4.96047L11.8145 4.95341C11.8822 4.52997 11.8599 4.23791 11.8197 4.05086C11.7795 3.86381 11.7183 3.77819 11.7183 3.77819L11.7148 3.77302L11.7086 3.76861C11.6629 3.73852 11.5969 3.72708 11.5171 3.71856C11.4372 3.71002 11.3449 3.70734 11.2573 3.70734C11.0822 3.70734 10.925 3.71856 10.925 3.71856L10.9136 3.71942L10.9057 3.72546C10.8737 3.74918 10.839 3.74652 10.7911 3.72281C10.7433 3.69922 10.6895 3.65367 10.6407 3.60287C10.5431 3.50128 10.4658 3.38198 10.4658 3.38198L10.457 3.36902L10.1998 3.31828ZM22.8733 3.31828L22.8602 3.32951C22.1614 3.88967 21.1459 3.63151 21.1459 3.63151L21.1416 3.63065H21.1363C20.1947 3.63065 19.8777 3.67466 19.8777 3.67466L19.8637 3.6773L19.8549 3.68763C19.753 3.80831 19.6281 3.80661 19.5182 3.77565C19.4125 3.74587 19.3329 3.68865 19.3267 3.68418C19.3065 3.65445 19.2738 3.63784 19.2383 3.62551C19.1987 3.61168 19.1532 3.60359 19.1098 3.59789C19.0228 3.58645 18.9427 3.58583 18.9427 3.58583H18.941L18.9401 3.58669C17.9573 3.65279 17.3445 3.59729 16.9792 3.52629C16.7965 3.49081 16.6758 3.45109 16.6013 3.42102C16.5268 3.39093 16.5007 3.37183 16.5007 3.37183L16.5051 3.37625C16.4909 3.36221 16.4763 3.35709 16.4596 3.35209C16.443 3.34709 16.4247 3.34329 16.4037 3.34003C16.3617 3.3335 16.3111 3.32987 16.2628 3.32707C16.1663 3.32146 16.0766 3.32101 16.0766 3.32101H16.0538L16.0433 3.34084C16.0043 3.41787 15.8822 3.58052 15.8736 3.59194C15.8678 3.59364 15.8557 3.59644 15.8343 3.59883C15.809 3.60148 15.777 3.60387 15.7398 3.60489C15.6655 3.60709 15.5736 3.60575 15.4844 3.60319C15.3061 3.5977 15.1381 3.58679 15.1381 3.58679L15.1372 3.58594H15.1363C14.928 3.58594 14.8055 3.64404 14.7366 3.70588C14.6676 3.76772 14.6517 3.83617 14.6517 3.83617V4.73015C14.6738 4.97009 14.6459 5.06519 14.6299 5.08737C14.6218 5.09847 14.6226 5.09435 14.6211 5.09426C14.6197 5.09418 14.6185 5.09426 14.6185 5.09426L14.5887 5.07443L14.5677 5.10465C14.5561 5.12192 14.5114 5.1453 14.4479 5.15901C14.3844 5.17271 14.3046 5.17961 14.2275 5.18229C14.0733 5.18773 13.9293 5.17713 13.9293 5.17713L13.9266 5.17627L13.9231 5.17713C13.7911 5.18897 13.6917 5.24634 13.6214 5.32467C13.551 5.40301 13.5085 5.50097 13.4823 5.59562C13.43 5.7849 13.4421 5.96664 13.4421 5.96664V5.96835L13.443 5.971C13.4673 6.0909 13.5366 6.17505 13.6231 6.22899C13.7097 6.28293 13.8123 6.30901 13.9109 6.32045C14.1027 6.34272 14.2721 6.311 14.2817 6.30923H14.2826C14.521 6.33087 14.6067 6.40355 14.6386 6.46195C14.6705 6.52048 14.6535 6.57154 14.6535 6.57154L14.6526 6.57239V6.5741C14.6441 6.60754 14.6417 6.66466 14.6386 6.75702C14.6355 6.84938 14.6335 6.97154 14.6325 7.11253C14.6304 7.39451 14.6314 7.75388 14.6342 8.1074C14.6398 8.81182 14.6516 9.48897 14.6517 9.49402C14.6411 9.5886 14.6145 9.64802 14.5844 9.68472C14.5542 9.72143 14.5199 9.7373 14.4847 9.74425C14.4142 9.75817 14.3447 9.73047 14.3447 9.73047L14.3377 9.72692H14.3298C13.8289 9.72692 13.5986 9.89941 13.5024 10.0772C13.4067 10.2542 13.4426 10.4294 13.4429 10.431C13.4675 10.7518 13.6724 10.8997 13.8654 10.9574C14.059 11.0152 14.245 10.9919 14.245 10.9919L14.2406 10.9927C14.4572 10.9927 14.5553 11.0547 14.6036 11.1118C14.6518 11.1689 14.6517 11.2214 14.6517 11.2214V11.23L14.6552 11.2378C14.6537 11.2347 14.6604 11.2603 14.6622 11.2939C14.6639 11.3274 14.6641 11.372 14.6631 11.4233C14.661 11.5258 14.6539 11.6555 14.6456 11.7822C14.6288 12.0357 14.6071 12.2784 14.6071 12.2784L14.6062 12.2828L14.6071 12.288C14.6539 12.542 14.8037 12.6462 14.9377 12.6763C15.0618 12.7041 15.1641 12.6765 15.18 12.6718H15.1817L18.7563 12.7607C19.2667 13.1275 19.5954 13.138 19.7928 13.0377C19.9832 12.9409 20.0444 12.7575 20.0499 12.74L20.0508 12.7392C20.0669 12.7087 20.1011 12.6943 20.1181 12.6943C20.1268 12.6943 20.126 12.696 20.1243 12.6934C20.1225 12.6908 20.126 12.6926 20.1181 12.7081L20.0963 12.7521L20.1453 12.7599C20.1852 12.7664 20.2634 12.7698 20.3779 12.7728C20.4924 12.7759 20.6409 12.7778 20.8117 12.7789C21.1535 12.7811 21.5845 12.7797 22.01 12.7772C22.4355 12.7745 22.855 12.7703 23.1742 12.7668C23.4933 12.7633 23.7146 12.7608 23.7339 12.7608C23.8913 12.7929 24.0115 12.7849 24.1021 12.7513C24.1944 12.7172 24.2549 12.6564 24.2919 12.5925C24.3659 12.4647 24.3523 12.3225 24.3523 12.3225L24.3531 12.3276L24.3977 11.2732C24.416 11.204 24.4912 11.1533 24.5701 11.1222C24.6471 11.0918 24.7173 11.0831 24.7214 11.0825C25.2185 11.1474 25.4622 10.9735 25.5689 10.7805C25.6757 10.5874 25.6513 10.3819 25.6511 10.3802V10.3784C25.6275 10.057 25.4352 9.89832 25.2532 9.82881C25.0709 9.75921 24.8954 9.77186 24.8954 9.77186L24.8989 9.771C24.6384 9.771 24.5316 9.68868 24.4826 9.61137C24.4336 9.53406 24.4432 9.45865 24.4432 9.45865V9.45429C24.4432 9.19325 24.4878 6.80437 24.4878 6.80437V6.80352C24.4878 6.74932 24.519 6.66198 24.5517 6.59212C24.5803 6.53096 24.6027 6.49546 24.6094 6.48426C24.8852 6.51195 25.0959 6.4957 25.2435 6.4437C25.3977 6.3894 25.4925 6.30072 25.547 6.20814C25.6548 6.02506 25.6067 5.83206 25.6056 5.82762C25.6261 5.66167 25.5999 5.53614 25.5409 5.44883C25.4806 5.3595 25.3908 5.30967 25.3013 5.28316C25.1269 5.23157 24.953 5.26329 24.9435 5.26504C24.6371 5.26504 24.5328 5.18123 24.4957 5.108C24.4586 5.03476 24.4861 4.96045 24.4861 4.96045L24.4878 4.95336C24.5556 4.52992 24.5333 4.23787 24.4931 4.05082C24.4529 3.86377 24.3916 3.77814 24.3916 3.77814L24.3872 3.77298L24.382 3.76856C24.3362 3.73848 24.2703 3.72704 24.1904 3.71852C24.1106 3.70998 24.0182 3.70729 23.9307 3.70729C23.7555 3.70729 23.5974 3.71852 23.5974 3.71852L23.5869 3.71937L23.5782 3.72543C23.5461 3.74915 23.5123 3.7465 23.4645 3.72279C23.4166 3.69919 23.362 3.65365 23.3132 3.60285C23.2156 3.50125 23.1391 3.38195 23.1391 3.38195L23.1304 3.369L22.8733 3.31828Z" fill="black"/>
<path d="M13.345 31.1018L13.2555 31.0576C13.1659 31.0134 0.940437 25.8005 0 9.94019V0H26.5105V9.89601C26.5105 13.7838 25.2566 23.6796 13.4342 31.0134L13.345 31.1018ZM0.313477 0.308403V9.89516C1.20911 24.9158 12.315 30.3057 13.345 30.7475C24.9435 23.4581 26.1975 13.7388 26.1975 9.89516V0.308403H0.313477Z" fill="black"/>
<path d="M3.94066 3.71258C3.94066 3.71258 3.67196 3.71275 3.71675 3.88946L3.62753 10.6043C3.62753 10.6043 3.62736 10.9139 4.11995 10.9581C4.11995 10.9581 4.74654 11.0023 4.88089 10.9581H6.31443C6.31443 10.9581 6.58296 11.2225 6.58296 10.9132C6.58296 10.9132 6.76173 5.48001 6.67217 4.33134C6.67217 4.33134 6.67199 3.84468 6.26895 3.84468C6.26895 3.84468 4.65751 3.97722 4.52316 3.84468L3.94066 3.71258ZM10.1568 3.72291C10.0978 3.71774 10.0027 3.73431 9.85155 3.80057C9.85155 3.80057 9.89703 3.9778 7.88187 3.88944C7.83708 3.88944 7.07562 3.88901 7.03084 4.19836C7.03084 4.19836 6.98623 7.37929 6.98623 7.46765L6.94075 10.1184L6.89615 11.046C6.89615 11.046 7.03049 11.2225 7.12006 11.09C7.12006 11.09 7.79178 10.9136 8.23961 11.002C8.23961 11.002 9.58359 11.134 9.89704 10.9131C9.89704 10.9131 10.1208 11.0015 10.1656 10.6922C10.1656 10.6922 10.255 4.81655 10.2102 4.72819C10.2102 4.72819 10.2996 3.88897 10.2548 3.80061C10.2548 3.80061 10.2552 3.73154 10.1568 3.72291ZM2.77393 3.88772C2.68603 3.89036 2.55807 3.94467 2.37335 4.11032L2.32874 4.99389C2.32874 4.99389 2.32874 5.47985 1.88092 5.43569C1.88092 5.43569 1.38779 5.43569 1.11911 5.65659C1.11911 5.65659 0.985118 6.09768 1.47772 6.0535C1.47772 6.0535 2.23935 6.05393 2.28414 6.36327L2.23865 9.54377C2.23865 9.54377 2.41848 10.0744 1.83632 10.0744C1.83632 10.0744 1.11911 10.0296 1.11911 10.4714C1.11911 10.4714 1.25398 10.8255 1.88091 10.7371C1.88091 10.7371 2.32891 10.8253 2.28413 11.2229V12.0176C2.28413 12.0176 2.23865 12.3272 2.68646 12.3714H6.00038C6.00038 12.3714 6.17968 12.3712 6.17968 12.1945C6.17968 12.1945 6.17986 12.0176 5.91116 12.0176L3.17963 11.9296C3.17963 11.9296 2.73111 12.0625 2.68633 11.3998C2.68633 11.3998 2.72968 5.7269 2.73094 5.47719L2.73182 5.47983C2.73182 5.47983 2.73106 5.45898 2.73094 5.45655C2.73095 5.45433 2.73182 5.39193 2.73182 5.39097C2.73098 5.38927 2.73089 5.38927 2.73007 5.38743C2.72531 5.17031 2.72447 4.40176 2.95574 4.02151C2.95574 4.02151 2.92044 3.8834 2.77393 3.88772ZM11.2537 3.90411C11.0615 3.9205 11.0612 4.15433 11.0612 4.15433C11.1508 4.24269 11.1951 4.55212 11.1951 4.55212C11.2398 5.25897 11.1951 6.05401 11.1951 6.80507C11.1503 9.3233 11.0612 11.6206 11.0612 11.6206C11.0612 12.1066 10.7927 11.9735 10.7927 11.9735H7.83641C7.52293 11.9735 7.52329 12.1504 7.52329 12.1504C7.56808 12.4155 7.83641 12.3273 7.83641 12.3273C8.1051 12.3715 11.0612 12.3273 11.0612 12.3273C11.509 12.3715 11.4644 11.7966 11.4644 11.7966C11.5092 10.7805 11.5982 10.6922 11.5982 10.6922C11.6878 10.648 12.1808 10.6482 12.1808 10.6482C12.9868 10.6924 12.6286 10.1624 12.6286 10.1624C12.539 10.0299 12.0015 10.0295 12.0015 10.0295C11.5089 10.0737 11.5536 9.54374 11.5536 9.54374L11.5983 6.49534C11.5087 6.23027 11.7329 6.09843 11.7329 6.09843H12.2254C12.8971 6.14261 12.7178 5.70064 12.7178 5.70064C12.7178 5.47975 12.1361 5.39087 12.1361 5.39087C11.5988 5.47923 11.6428 5.16998 11.6428 5.16998V4.41931C11.7324 3.93333 11.4189 3.93352 11.4189 3.93352C11.3518 3.9087 11.298 3.90031 11.2537 3.90411ZM10.6213 4.00248C10.5642 4.01003 10.5013 4.05494 10.4341 4.15434V10.7811C10.4341 10.7811 10.6132 11.355 10.8819 11.3109C10.8819 11.3109 10.9266 11.1788 10.9266 10.958L11.0166 4.64006C11.0166 4.64006 10.8689 3.96967 10.6213 4.00248ZM3.4037 4.06547C3.00066 4.06547 2.95587 4.81701 2.95587 4.81701L2.91039 11.0901C2.95518 11.3993 3.04509 11.355 3.04509 11.355C3.44813 11.0899 3.40369 10.6483 3.40369 10.6483C3.40369 10.6483 3.4483 4.68449 3.4483 4.59614C3.4483 4.50778 3.4037 4.06547 3.4037 4.06547ZM3.59 11.1314C3.57088 11.1323 3.54941 11.1354 3.52702 11.1418C3.43747 11.167 3.32703 11.243 3.23401 11.4265L3.23226 11.43L3.23137 11.4336C3.23137 11.4336 3.20479 11.5159 3.22525 11.5967C3.23548 11.637 3.26167 11.6799 3.30922 11.7019C3.35517 11.7233 3.41604 11.724 3.49551 11.7028H5.68208L6.26897 11.8365L6.27684 11.8348C6.27684 11.8348 6.31879 11.8253 6.37043 11.8063C6.42207 11.7874 6.48504 11.7597 6.53136 11.714C6.55453 11.6912 6.57388 11.663 6.5821 11.6294C6.5903 11.5959 6.58586 11.5574 6.5681 11.5199C6.5326 11.4448 6.44826 11.3685 6.28822 11.2783L6.27947 11.2731H4.16897C4.1657 11.2722 4.07033 11.2518 3.96081 11.2248C3.84944 11.1973 3.72208 11.1609 3.6888 11.1445L3.68705 11.1437H3.68616C3.68616 11.1437 3.64736 11.1284 3.59 11.1314ZM10.2434 11.2479C10.1174 11.2417 9.94162 11.2669 9.94162 11.2669C9.58336 11.4878 7.47857 11.3109 7.47857 11.3109C7.34422 11.3109 7.16457 11.5318 7.16457 11.5318C7.11979 11.9294 7.79185 11.7527 7.74709 11.7527H10.2547C10.6578 11.8411 10.6579 11.6647 10.6579 11.6647C10.6579 11.5322 10.3448 11.2669 10.3448 11.2669C10.3224 11.2559 10.2854 11.25 10.2434 11.2479ZM6.93031 11.7432C6.91884 11.744 6.9074 11.7472 6.8962 11.7527C6.8962 11.7527 6.49299 11.7531 6.49299 12.2834C6.49299 12.2834 6.53777 12.6803 6.94081 12.6803C6.94081 12.6803 7.29942 12.5921 7.29942 12.1945C7.29942 12.1945 7.10251 11.7286 6.93031 11.7432ZM16.5688 3.71254C16.5688 3.71254 16.3001 3.71271 16.3449 3.88943L16.2556 10.6043C16.2556 10.6043 16.2555 10.9139 16.7481 10.9581C16.7481 10.9581 17.3755 11.0023 17.5099 10.9581H18.9425C18.9425 10.9581 19.211 11.2226 19.211 10.8692C19.211 10.8692 19.3907 5.43511 19.3011 4.28644C19.3011 4.28644 19.301 3.80066 18.8979 3.80066C18.8979 3.80066 17.2856 3.9332 17.1513 3.80066L16.5688 3.71254ZM22.7674 3.7669C22.7145 3.7691 22.6371 3.78935 22.5251 3.84456C22.5251 3.84456 22.5697 4.02179 20.5545 3.93343C20.5098 3.93343 19.7035 3.88891 19.7035 4.24235C19.7035 4.24235 19.6589 7.42328 19.6589 7.51164L19.6143 10.1624L19.5251 11.09C19.5251 11.09 19.6594 11.2665 19.749 11.134C19.749 11.134 20.4207 10.9576 20.8685 11.046C20.8685 11.046 22.2116 11.1789 22.5251 10.958C22.5251 10.958 22.7489 11.0463 22.7936 10.7371C22.7936 10.7371 22.883 4.8614 22.8382 4.77304C22.8382 4.77304 22.9285 3.93297 22.8837 3.84461C22.8837 3.84461 22.8838 3.76168 22.7674 3.7669ZM15.3575 3.88771C15.2696 3.89035 15.1416 3.94465 14.9569 4.11031V4.94902C14.9569 4.94902 14.9569 5.435 14.5091 5.39082C14.5091 5.39082 14.0168 5.39082 13.7481 5.61171C13.7481 5.61171 13.6133 6.05368 14.1058 6.0095C14.1058 6.0095 14.8675 6.00993 14.9123 6.31927L14.8677 9.49977C14.8677 9.49977 15.0468 10.0296 14.4198 10.0296C14.4198 10.0296 13.7035 9.98556 13.7035 10.4274C13.7035 10.4274 13.8375 10.7806 14.4644 10.6923C14.4644 10.6923 14.9123 10.7813 14.9123 11.1789V11.9736C14.9123 11.9736 14.8678 12.2832 15.2709 12.3274H18.5839C18.5839 12.3274 18.7632 12.3272 18.7632 12.1505C18.7632 12.1505 18.7634 11.9736 18.4947 11.9736L15.8077 11.9296C15.8077 11.9296 15.3601 12.0625 15.3153 11.3998C15.3153 11.3998 15.3601 5.47912 15.3153 5.39076V5.47964C15.3153 5.47964 15.2705 4.46319 15.5392 4.02141C15.5392 4.02141 15.504 3.88339 15.3575 3.88771ZM23.8818 3.9041C23.6896 3.92049 23.6893 4.15432 23.6893 4.15432C23.7341 4.24268 23.824 4.55211 23.824 4.55211C23.8688 5.25896 23.824 6.054 23.824 6.80505C23.7793 9.32329 23.6893 11.6206 23.6893 11.6206C23.6893 12.1066 23.4208 11.9735 23.4208 11.9735H20.4654C20.1519 11.9735 20.1514 12.1504 20.1514 12.1504C20.1962 12.4155 20.51 12.3275 20.51 12.2833C20.7787 12.3275 23.7339 12.2833 23.7339 12.2833C24.1817 12.3275 24.1371 11.7526 24.1371 11.7526C24.1819 10.7365 24.2718 10.6482 24.2718 10.6482C24.3614 10.604 24.8535 10.6042 24.8535 10.6042C25.6147 10.6483 25.2567 10.1184 25.2567 10.1184C25.1671 9.98584 24.6296 9.9855 24.6296 9.9855C24.137 10.0297 24.1817 9.49972 24.1817 9.49972L24.2272 6.45132C24.1377 6.18625 24.361 6.05354 24.361 6.05354H24.8535C25.5252 6.09771 25.3468 5.65662 25.3468 5.65662C25.3468 5.43573 24.7642 5.34686 24.7642 5.34686C24.2269 5.43521 24.2718 5.12596 24.2718 5.12596V4.4193C24.3614 3.93332 24.0479 3.93351 24.0479 3.93351C23.9807 3.90869 23.9261 3.9003 23.8818 3.9041ZM23.2494 4.01886C23.1923 4.02349 23.1294 4.06321 23.0622 4.15433V10.7811C23.0622 10.7811 23.2414 11.355 23.5101 11.3108C23.5101 11.3108 23.5555 11.1788 23.5555 10.9579L23.6447 4.64005C23.6447 4.64005 23.497 3.99882 23.2494 4.01886ZM16.0318 4.06545C15.6288 4.06545 15.584 4.817 15.584 4.817L15.5394 11.0901C15.5842 11.3993 15.6732 11.355 15.6732 11.355C16.0762 11.0899 16.0318 10.6483 16.0318 10.6483C16.0318 10.6483 16.0764 4.68448 16.0764 4.59612C16.0764 4.50776 16.0318 4.06545 16.0318 4.06545ZM16.2881 11.1246C16.2099 11.1224 16.0658 11.1568 15.9426 11.3998C15.9426 11.3998 15.853 11.7091 16.1665 11.6207H18.3602L18.9428 11.7528C18.9428 11.7528 19.5697 11.6204 18.9428 11.267H16.8384C16.8384 11.267 16.4346 11.1783 16.3451 11.1341C16.3451 11.1341 16.3236 11.1257 16.2881 11.1246ZM22.896 11.2031C22.7823 11.2053 22.6599 11.223 22.6599 11.223C22.3016 11.4439 20.1968 11.267 20.1968 11.267C20.0625 11.267 19.8828 11.4879 19.8828 11.4879C19.7933 11.8855 20.4653 11.7087 20.4653 11.7087H22.973C23.376 11.7971 23.3762 11.6207 23.3762 11.6207C23.3762 11.4882 23.0622 11.223 23.0622 11.223C23.0286 11.2064 22.9642 11.2018 22.896 11.2031ZM19.604 11.6993C19.5921 11.7001 19.581 11.7032 19.5698 11.7088C19.5698 11.7088 19.1665 11.7083 19.2112 12.2386C19.2112 12.2386 19.256 12.6363 19.6591 12.6363C19.6591 12.6363 20.0177 12.5923 20.0177 12.1506C20.0177 12.1506 19.7811 11.6847 19.604 11.6993ZM12.9421 20.2795C12.9421 20.2795 12.9421 20.7654 12.8974 21.2514C12.8526 21.5165 12.9869 22.7535 12.8974 23.372C12.8974 23.372 12.8974 23.5929 12.4495 23.4162C12.4495 23.4162 9.71779 23.4604 9.67301 23.372C9.67301 23.372 8.91172 23.4162 8.86694 23.0186C8.86694 23.0186 8.9565 20.1469 8.91172 20.0585C8.91172 20.0585 8.86694 18.5123 8.91172 18.3356C8.91172 18.3356 8.95651 16.8777 8.91172 16.701C8.91172 16.701 8.91172 16.3475 8.86694 16.215C8.86694 16.215 8.86694 15.9941 9.2252 16.1267C9.2252 16.1267 9.35955 16.3476 10.0313 16.2592C10.0313 16.2592 10.5239 16.3475 11.0165 16.2592C11.0165 16.2592 12.0912 16.1708 12.3599 16.2592C12.3599 16.2592 12.8077 16.1708 12.8973 16.6568V17.938L13.0316 18.3798L13.166 18.2914L13.2107 17.9822V16.6126C13.2107 16.6126 13.3003 16.3476 13.6586 16.3034C13.6586 16.3034 14.1959 16.2592 14.2855 16.3034C14.3751 16.3475 15.5394 16.3917 15.8529 16.3475C16.1663 16.3034 16.2111 16.5684 17.1963 16.0825C17.1963 16.0825 17.465 16.0825 17.465 16.2592C17.465 16.2592 17.3755 18.0263 17.465 18.3798C17.465 18.3798 17.465 21.6491 17.3755 21.87L17.4202 22.9302C17.4202 22.9302 17.465 23.372 16.7037 23.4162C16.7037 23.4162 17.1516 23.4604 14.2407 23.372C14.2407 23.372 13.7929 23.3278 13.2555 23.5929C13.2555 23.5929 13.1659 23.5487 13.1659 23.2837C13.1659 23.2837 13.2555 22.3117 13.1659 21.3398L13.1211 20.2795L12.9421 20.2795ZM17.6441 23.1512C17.6441 23.1512 17.9128 23.6371 18.0024 23.6813C18.0024 23.6813 18.2263 23.9464 18.1815 23.4604L18.2263 17.408C18.2263 17.408 18.1815 17.1871 18.2263 16.8779L17.9576 16.4361C17.9576 16.4361 17.6889 16.2152 17.6889 16.5686V22.9744L17.6441 23.1512ZM8.73257 23.4162C8.73257 23.4162 9.04605 23.7255 9.53864 23.7255L12.4047 23.7697C12.4047 23.7697 12.7182 23.8139 12.7182 23.9464C12.7182 23.9464 12.6734 24.2115 12.2704 24.1231L8.77733 24.0789L8.37429 24.1231C8.37429 24.1231 8.10559 24.0789 8.50863 23.593L8.73257 23.4162ZM8.10563 16.4803C8.10563 16.4803 7.83694 16.9221 7.88172 17.0546V24.0347C7.88172 24.0347 7.83694 24.5207 8.23998 24.3882C8.23998 24.3882 11.9569 24.2998 12.2256 24.3882C12.2256 24.3882 12.5839 24.4324 12.4496 24.6091C12.4496 24.6091 12.4496 24.7416 12.2256 24.6974C12.2256 24.6974 10.4792 24.8741 8.86694 24.7858C8.86694 24.7858 7.79218 24.83 7.74739 24.7416C7.74739 24.7416 7.56827 24.6974 7.56827 24.1231C7.56827 24.1231 7.56827 23.5488 7.52348 23.4604C7.52348 23.4604 7.56827 23.1512 7.0309 23.107C7.0309 23.107 6.26961 23.2395 6.26961 22.7977C6.26961 22.7977 6.35917 22.4885 7.12046 22.5327C7.12046 22.5327 7.65783 22.621 7.52351 22.1792L7.56829 19.0867C7.56829 19.0867 7.65785 18.5565 7.25481 18.5124H6.80698C6.80698 18.5124 6.18005 18.5123 6.22483 18.1589C6.22483 18.1589 6.44874 17.8055 7.07568 17.8497C7.07568 17.8497 7.52351 17.938 7.56827 17.4079C7.56827 17.4079 7.56827 16.3476 7.79218 16.3034C7.7474 16.3034 8.28474 16.3477 8.10563 16.4803ZM8.46392 16.4359C8.46392 16.4359 8.59827 16.4359 8.59827 16.701L8.55348 23.0185C8.55348 23.0185 8.59827 23.4161 8.24 23.7253C8.24 23.7253 8.06088 23.9462 8.06088 23.5928L8.15044 17.1428C8.15044 17.1428 8.15044 16.6568 8.46392 16.4359ZM13.4794 23.8579C13.4794 23.8579 13.8376 23.5928 14.0167 23.637C14.0167 23.637 15.9424 23.7695 16.5246 23.6812C17.1067 23.5928 16.7485 23.637 16.7485 23.637C16.7485 23.637 17.2411 23.637 17.4202 23.4603C17.4202 23.4603 17.5545 23.4161 17.6441 23.5486L17.9576 23.9021C17.9576 23.9021 17.9576 24.123 17.5993 24.0788C17.5993 24.0788 14.1511 24.0788 14.0167 24.123C14.0615 24.123 13.4346 24.2113 13.4794 23.8579ZM13.7033 24.4322C13.7033 24.4322 13.972 24.2997 14.1511 24.3438C14.3302 24.388 16.7933 24.2997 16.7933 24.2997C16.7933 24.2997 17.868 24.388 18.0472 24.2113L18.3159 24.1229C18.3159 24.1229 18.4054 23.9904 18.4054 23.8137V23.0627L18.4502 22.8418V17.0545C18.4502 17.0545 18.5398 16.6127 18.2711 16.3476C18.2711 16.3476 18.2711 16.1709 18.3606 16.2151C18.4502 16.2592 18.4054 16.2151 18.4054 16.2151C18.4054 16.2151 18.7637 16.1267 18.8533 16.2592C18.8533 16.2592 19.0324 16.7452 18.8533 17.0545C18.8533 17.0545 18.8085 17.6729 19.1219 17.6729C19.1219 17.6729 19.2563 17.8055 19.4802 17.7171C19.4802 17.7171 20.0176 17.7613 20.0176 17.938C20.0176 17.938 20.0176 18.3356 19.6593 18.2473L19.1667 18.2915C19.1667 18.2915 18.8084 18.3798 18.8532 18.7333C18.898 19.1309 18.8532 22.0025 18.8532 22.0025C18.8532 22.0025 18.8532 22.356 19.3906 22.3118C19.3906 22.3118 20.0623 22.2676 20.0623 22.4885C20.0623 22.4885 20.2414 22.8861 19.7488 22.9303C19.7488 22.9303 18.8532 22.8861 18.9428 23.1512C18.9428 23.1512 18.898 23.7255 18.8532 23.8581C18.8532 23.8581 18.9428 24.344 18.8532 24.4324C18.8532 24.4324 18.8084 24.6975 18.2263 24.6533C18.2263 24.6533 14.5989 24.6533 14.0167 24.6975C13.9719 24.7858 13.6137 24.7415 13.7033 24.4322ZM13.0763 24.0348C13.0763 24.0348 13.4345 24.0789 13.4345 24.4324C13.4345 24.7858 13.4345 24.9625 13.2554 25.0067C13.0315 25.0509 12.8076 24.9625 12.7628 24.6974C12.6733 24.4324 12.7628 24.1231 13.0763 24.0348Z" fill="white"/>
<path d="M6.40371 6.14139L6.22458 6.53901C6.22458 6.53901 5.77676 8.57122 5.50808 8.96888C5.50808 8.96888 5.4633 9.41068 5.10504 9.05724C5.10504 9.05724 4.25419 6.49482 4.20941 6.40646L3.94071 6.22975C3.94071 6.22975 3.76158 6.00885 4.07505 5.96467H4.88112C4.88112 5.96467 5.14982 6.18557 4.79156 6.40647C4.79156 6.40647 4.83634 6.7599 5.28415 8.04107C5.28415 8.04107 5.41849 8.52702 5.55284 8.17361L6.00067 6.67154L5.86633 6.22975C5.86633 6.22975 5.73198 6.00885 5.91111 6.00885C5.91111 6.00885 6.35895 5.96467 6.40371 6.14139ZM7.61281 6.49482V8.7038L7.56802 8.88052C7.56802 8.88052 7.34411 9.14559 7.52324 9.18977C7.52324 9.18977 7.34412 9.32231 8.86668 9.32231C8.86668 9.32231 9.44883 9.41067 9.31451 8.65964C9.31451 8.65964 9.26973 8.39456 9.04581 8.79217C9.04581 8.79217 9.00103 9.14561 8.19496 9.01307C8.19496 9.01307 8.01584 8.88054 8.01584 8.70381V7.77606C8.01584 7.77606 8.01583 7.55517 8.3741 7.55517C8.3741 7.55517 8.77714 7.82024 8.82192 7.6877C8.82192 7.6877 8.95627 7.33426 8.82192 7.15757C8.82192 7.15757 8.6428 7.15757 8.59801 7.20175C8.59801 7.20175 8.46367 7.46682 8.10542 7.2901C8.10542 7.2901 7.9263 6.93667 8.06064 6.67161C8.06064 6.67161 8.01586 6.14148 8.37412 6.18564C8.37412 6.18564 8.82195 6.27399 8.82195 6.40653C8.82195 6.40653 8.91151 6.67161 9.04586 6.36235L8.9563 6.0531C8.9563 6.0531 8.91151 5.92056 8.77717 5.96474C8.77717 5.96474 8.06067 6.0531 7.9711 5.96474L7.38895 6.00892C7.38895 6.00892 7.29938 6.22982 7.56807 6.31818C7.56807 6.36236 7.61281 6.40647 7.61281 6.49482ZM20.4653 6.14145C20.4205 5.96474 20.8235 5.96474 20.8235 5.96474L21.0475 6.00892C21.1818 6.00892 21.3609 6.0531 21.3609 6.0531C21.4953 6.27399 21.2714 6.40653 21.2714 6.40653L21.1818 6.67161V8.88059C21.2266 8.96895 21.4057 9.18985 21.4057 9.18985C21.4057 9.36656 21.1818 9.32238 21.1818 9.32238H20.5549C20.3757 9.32238 20.4205 9.10148 20.4205 9.10148C20.6444 9.01313 20.6892 8.61551 20.6892 8.61551V6.53911L20.4653 6.14145ZM17.5992 8.08531L17.5544 8.74799L17.7335 9.05724C17.8679 9.23396 17.644 9.3665 17.644 9.3665L16.9722 9.27814C16.8379 9.23396 16.9722 9.01307 16.9722 9.01307C17.1514 8.92471 17.1514 8.65963 17.1514 8.65963V6.53905C17.1514 6.45069 16.9722 6.22979 16.9722 6.22979C16.8379 6.22979 16.8827 6.0089 16.8827 6.0089C16.9275 5.92054 17.2857 5.96472 17.2857 5.96472H18.1814C19.0322 6.22979 18.8979 6.84829 18.8979 6.84829C18.9426 7.46678 18.3157 7.68768 18.3157 7.68768L18.2709 8.04111L18.8979 9.01304C18.9874 9.1014 18.9874 9.18976 18.9874 9.18976C18.8979 9.41066 18.5396 9.18976 18.5396 9.18976L17.7783 7.99693C17.6888 7.90857 17.5992 8.08531 17.5992 8.08531ZM17.5992 6.4065V7.51097C18.0022 7.82023 18.2261 7.37844 18.2261 7.37844C18.7635 6.89248 18.2261 6.40651 18.1366 6.27397C18.047 6.14143 17.644 6.27397 17.644 6.27397L17.5992 6.4065ZM11.0611 18.7766C11.0611 18.7766 11.1059 20.3228 11.0611 20.5437V20.8972C11.0611 20.8972 11.1507 21.1181 11.285 21.2064C11.285 21.2064 11.3746 21.5157 11.1507 21.4715C11.1507 21.4715 10.6133 21.4273 10.479 21.4715C10.479 21.4715 10.1655 21.4715 10.479 21.1181C10.479 21.1181 10.5685 20.9855 10.5685 20.5879C10.5685 20.5879 10.5685 18.8208 10.6133 18.7324C10.6133 18.7324 10.6581 18.5115 10.5238 18.4232H10.2551L9.94159 18.7324C9.94159 18.7324 9.85202 19.0417 9.71767 18.7324V18.5557L9.8968 18.0697H10.0311C10.0311 18.0697 10.2103 18.2023 10.3894 18.2464H11.3746L11.7329 18.0697C11.7329 18.0697 11.8672 18.0697 11.8224 18.2906C11.8224 18.2906 11.8672 18.7766 11.5985 18.8208C11.5985 18.8208 11.4194 18.7766 11.3298 18.5115C11.3298 18.4673 11.0611 18.2906 11.0611 18.7766ZM15.7183 18.2023C15.7183 18.2023 14.9122 18.1139 14.9122 18.9975C14.9122 18.9975 14.8227 19.5718 15.7183 19.9694C15.7183 19.9694 16.39 20.2787 16.3452 20.6763C16.3452 20.6763 16.2557 21.3831 15.5392 21.0297C15.5392 21.0297 15.1809 20.853 15.2257 20.6763C15.2257 20.6763 15.1361 20.4554 15.0018 20.4995C15.0018 20.4995 14.8674 20.5437 14.9122 21.2506C14.9122 21.2506 14.9122 21.5157 15.2257 21.2506L15.4048 21.2948C15.4048 21.2948 15.987 21.7366 16.4796 21.2064C16.4796 21.2064 17.017 20.7204 16.6139 20.1461C16.6139 20.1461 16.3452 19.7043 15.8527 19.5276C15.8527 19.5276 15.4048 19.3067 15.2705 18.9533C15.2705 18.9533 15.4048 18.3348 15.987 18.644C15.987 18.644 16.2109 18.9091 16.3453 18.9533C16.3453 18.9533 16.5244 18.9533 16.4796 18.5557L16.4348 18.2464C16.4348 18.2464 16.39 18.0255 16.0766 18.2464C16.0766 18.2023 15.8079 18.3348 15.7183 18.2023ZM13.1657 17.7605C13.3 17.8488 13.3448 18.0697 13.3448 18.0697C13.7926 19.1742 14.1509 20.8088 14.1509 20.8088C14.2404 21.0297 14.4644 21.1623 14.4644 21.1623C14.8226 21.2948 14.4644 21.3832 14.4644 21.3832C14.33 21.4274 13.8374 21.3832 13.8374 21.3832C13.5687 21.339 13.7031 21.2506 13.7031 21.2506C13.7926 21.1623 13.7031 20.7205 13.7031 20.7205C13.7031 20.5438 13.4792 20.2787 13.4792 20.2787C13.3896 20.2345 13.2552 20.4113 13.2552 20.4113C13.2552 20.4113 13.0313 20.4996 12.9866 20.4113C12.9418 20.3229 12.8074 20.2345 12.8074 20.2345C12.5387 20.2345 12.4492 20.853 12.4492 20.853C12.5835 21.3832 12.4492 21.2948 12.4492 21.2948C12.3148 21.4715 11.9118 21.339 11.9118 21.339C11.7327 21.2948 11.867 21.1623 11.867 21.1623C12.0909 21.1181 12.1805 20.853 12.1805 20.853C12.2701 20.7205 12.9866 17.9814 12.9866 17.9814C12.9418 17.9372 12.9866 17.6721 13.1657 17.7605ZM12.8074 19.1742C12.8074 19.2625 12.6283 19.881 12.6283 19.881L12.7626 20.1019H13.2105C13.3 20.1019 13.3448 20.0136 13.3448 19.881C13.3448 19.7927 13.1209 19.13 13.1209 19.13L13.0313 18.9975L12.8074 19.1742Z" fill="black"/>
</svg>
