<svg width="20" height="20" viewBox="0 0 20 20" fill="none" xmlns="http://www.w3.org/2000/svg">
<g clip-path="url(#clip0_434_77)">
<path d="M10 0.000762939C4.47723 0.000762939 0 4.47791 0 10.0008C0 15.5236 4.47723 20.0008 10 20.0008C15.5228 20.0008 20 15.5236 20 10.0008C20 4.47791 15.5228 0.000762939 10 0.000762939ZM13.4563 10.5308L8.45625 13.6558C8.35508 13.719 8.24004 13.7508 8.125 13.7508C8.02078 13.7508 7.91641 13.7248 7.82195 13.6723C7.62328 13.5622 7.5 13.3531 7.5 13.1258V6.87576C7.5 6.64842 7.62328 6.43936 7.82195 6.3292C8.02063 6.21842 8.26355 6.22514 8.45625 6.34568L13.4563 9.47068C13.6389 9.58514 13.75 9.78533 13.75 10.0008C13.75 10.2162 13.6389 10.4164 13.4563 10.5308Z" fill="url(#paint0_linear_434_77)"/>
</g>
<defs>
<linearGradient id="paint0_linear_434_77" x1="10" y1="0.000762939" x2="10" y2="20.0008" gradientUnits="userSpaceOnUse">
<stop stop-color="#93662C"/>
<stop offset="1" stop-color="#E3BC70"/>
</linearGradient>
<clipPath id="clip0_434_77">
<rect width="20" height="20" fill="white"/>
</clipPath>
</defs>
</svg>
